<svg xmlns="http://www.w3.org/2000/svg" id="Layer_2" viewBox="0 0 185.1 371"><defs><style>.cls-2{fill:none;stroke-miterlimit:10;stroke-width:5.67px}.cls-3{fill:#ed6e6e}.cls-3,.cls-4,.cls-5,.cls-7,.cls-8,.cls-9{stroke-width:0}.cls-4{fill:#b9cbe3}.cls-5{fill:#7f2121}.cls-2{stroke:#8e9fb2}.cls-7{fill:#c43d3d}.cls-8{fill:#6f0000}.cls-9{fill:#8e9fb2}</style></defs><g id="Layer_3"><path d="M0 0h185v371H0z" style="fill:#ed4842;stroke-width:0"/><path d="M10.4 313.4h132v10.5h-132z" class="cls-3"/><path d="M10.4 303.7h117.5v9.7H10.4z" class="cls-7"/><path d="M10.4 292.6h132v11.1h-132z" class="cls-5"/><path d="m127.3 313.3 15.2 10.9v-31.6l-15.2 10.9v9.8z" class="cls-8"/><path d="M10.4 252.3h132v10.5h-132z" class="cls-3"/><path d="M10.4 242.7h117.5v9.7H10.4z" class="cls-7"/><path d="M10.4 231.6h132v11.1h-132z" class="cls-5"/><path d="m127.3 252.3 15.2 10.9v-31.6l-15.2 10.9v9.8z" class="cls-8"/><path d="M10.4 190.3h132v10.5h-132z" class="cls-3"/><path d="M10.4 180.7h117.5v9.7H10.4z" class="cls-7"/><path d="M10.4 169.6h132v11.1h-132z" class="cls-5"/><path d="m127.3 190.3 15.2 10.9v-31.6l-15.2 10.9v9.8z" class="cls-8"/><path d="M10.4 129.3h132v10.5h-132z" class="cls-3"/><path d="M10.4 119.7h117.5v9.7H10.4z" class="cls-7"/><path d="M10.4 108.6h132v11.1h-132z" class="cls-5"/><path d="m127.3 129.3 15.2 10.9v-31.6l-15.2 10.9v9.8z" class="cls-8"/><path d="M10.4 67.3h132v10.5h-132z" class="cls-3"/><path d="M10.4 57.7h117.5v9.7H10.4z" class="cls-7"/><path d="M10.4 46.6h132v11.1h-132z" class="cls-5"/><path d="m127.3 67.3 15.2 10.9V46.6l-15.2 10.9v9.8z" class="cls-8"/><path d="M148.8 23.6h7V362h-7z" class="cls-7"/><path d="M7 23.6V16h141.8v7.6z" class="cls-5"/><path d="m148.8 23.6 6.9-7.6v7.6" class="cls-7"/><path d="m155.7 16-6.9 7.6V16" class="cls-5"/><path d="M148.8 354.1v7.8H7v-7.8z" class="cls-3"/><path d="M17 47v277" style="fill:none;stroke-miterlimit:10;stroke-width:5.67px;stroke:#b9cbe3"/><rect width="30" height="15.3" x="2" y="355.7" class="cls-4" rx="7.7" ry="7.7"/><path d="M17 324v39" class="cls-2"/><circle cx="17" cy="364" r="5" class="cls-9"/><path d="M17 47V8" class="cls-2"/><path d="M181 74h-19V60h19z" class="cls-4"/><path d="M185.1 74H181V60h4.1z" class="cls-9"/><path d="M181 332h-19v-14h19z" class="cls-4"/><path d="M185.1 332H181v-14h4.1z" class="cls-9"/><path d="M181 289h-19v-14h19z" class="cls-4"/><path d="M185.1 289H181v-14h4.1z" class="cls-9"/><path d="M181 246h-19v-14h19z" class="cls-4"/><path d="M185.1 246H181v-14h4.1z" class="cls-9"/><path d="M181 203h-19v-14h19z" class="cls-4"/><path d="M185.1 203H181v-14h4.1z" class="cls-9"/><path d="M181 160h-19v-14h19z" class="cls-4"/><path d="M185.1 160H181v-14h4.1z" class="cls-9"/><path d="M181 117h-19v-14h19z" class="cls-4"/><path d="M185.1 117H181v-14h4.1z" class="cls-9"/></g></svg>