<svg xmlns="http://www.w3.org/2000/svg" id="Layer_2" viewBox="0 0 665.5 673.5"><defs><style>.cls-1{fill:#ddc9a1}.cls-1,.cls-12,.cls-14,.cls-15,.cls-17,.cls-19,.cls-2,.cls-20,.cls-21,.cls-22,.cls-24,.cls-25,.cls-3,.cls-4,.cls-5,.cls-6,.cls-7,.cls-8,.cls-9{stroke-width:0}.cls-2{fill:#9f8d67}.cls-3{fill:#f2a0a0}.cls-4{fill:#ed6e6e}.cls-5{fill:#7f2121}.cls-6{fill:#c43d3d}.cls-26{letter-spacing:-.02em}.cls-7{fill:#6f0000}.cls-8{fill:#fff8dc}.cls-9{fill:#d4bc89}.cls-14{fill:none}.cls-12{fill:#bb042b}.cls-14{stroke:#143d56;stroke-linecap:round;stroke-linejoin:round}.cls-15{fill:#64a2a3}.cls-27{letter-spacing:-.06em}.cls-28{fill:#131613;font-family:HelveticaNeue-CondensedBold,&quot;Helvetica Neue&quot;;font-size:9.92px;font-weight:700}.cls-29{letter-spacing:.02em}.cls-17{fill:#1e2442}.cls-19{fill:#327576}.cls-20{fill:#4e4e4e}.cls-21{fill:#786b56}.cls-22{fill:#fff}.cls-24{fill:#001a5b}.cls-25{fill:#3b3b3b}</style></defs><g id="Layer_3"><path d="M294.5 389.5v-89h-1v371l1-1v-281z" style="fill:none;stroke-width:0"/><path d="M294.5 300.5h370L372.5.5H1.5l292 300h1z" class="cls-7"/><path d="M256 566.9V311.5l-23.1-27.9v255.5l23.1 27.8zm-144-138V173.5l-23.1-27.9v255.5l23.1 27.8zm96 92V265.5l-23.1-27.9v255.5l23.1 27.8zm-48-46V219.5l-23.1-27.9v255.5l23.1 27.8zm-96-92V127.5L40.9 99.6v255.5L64 382.9zm230.5 6.6 1 .8v-87.8h368l2-2h-371v89zm308 6v228.1l60 45.6V303.5L590 376.6l12.5 18.9z" class="cls-6"/><path d="M294.5 671.5v-1l-1 1v-371L1.5.5 1 372l292.5 299.5-2 2h4v-2h-1Zm-278-625v316L284 630l-5.1 5.1L9.3 365.6l.2-.3V39.5l5-5L286 306l-5 5L16.5 46.5Zm245 255V590l-5.5-6.6-23-27.8-5.5-6.6V260.5l5.4 6.6 23.1 27.8 5.4 6.6Zm-48-46V544l-5.5-6.6-23-27.8-5.5-6.6V214.5l5.4 6.6 23.1 27.8 5.4 6.6Zm-48-46V498l-5.5-6.6-23-27.8-5.5-6.6V168.5l5.4 6.6 23.1 27.8 5.4 6.6Zm-48-46V452l-5.5-6.6-23-27.8-5.5-6.6V122.5l5.4 6.6 23.1 27.8 5.4 6.6Zm-48-46V406l-5.5-6.6-23-27.8-5.5-6.6V76.5l5.4 6.6L64 110.9l5.4 6.6Zm593 554h-365l-2 2h367v-2z" class="cls-6"/><path d="M295.5 671.5v2l2-2h-2zm0-369v87.8L311 402v-39l.5.8v-.3H581v-.5l.3.5h.2v.3l8.5 12.8 72.5-73 1-1h-368ZM423.1 358h.1Zm153 0h.1Z" style="fill:#d06464;stroke-width:0"/><path d="M602.5 649.5v16h-270L311 633V402l-15.5-11.7-1-.8v282h371l-3-2.3-60-45.6v25.9z" style="fill:#560d0d;stroke-width:0"/><path d="M467.5 395.5H581v-32H311.5v.3l21 31.7h135zm114-32h-.2l.2.3v-.3z" class="cls-21"/><path d="M581 395.5h21.5L590 376.6l-8.5-12.8-.2-.3-.3-.5v32.5z" class="cls-21"/><path d="m586.5 557.5-27.3 27.3a56 56 0 0 1 22 13.8l.3.3a56.6 56.6 0 0 1-51.3 14.9l-35.7 35.7h92v-92ZM576.1 604h.1Zm-62.4 3.5c-3.1-1.8-6.1-4-9-6.4l-16 9.3v-24.8l16 9.2a56.5 56.5 0 0 1 34.7-13l35.3-35.3h-91.2v91.2l30.2-30.2Zm-26.2-43.8V550h33v23.3h-20v.2h-4v-.2h-9v-9.6Z" class="cls-8"/><path d="M510 598h.1l-5.3 3.1a54 54 0 0 0 8.9 6.4l9.3-9.4-13-.2Zm35.6.4-15.4 15.4a56.6 56.6 0 0 0 51.3-14.9l-36-.5Z" class="cls-15"/><path d="M581.1 598.5h.1" class="cls-14"/><path d="m545.6 598.4 35.9.5-.4-.3a56.6 56.6 0 0 0-21.9-13.8l-13.6 13.6Zm19.4-7.1c0 3-4.7 3-4.7 0s4.8-3 4.7 0Zm-55 6.7 13 .1 16.4-16.3a56.5 56.5 0 0 0-34.8 13l5.4 3.1Z" class="cls-19"/><path d="M565 591.3c0-3-4.7-3-4.7 0s4.8 3 4.7 0Z" class="cls-17"/><path d="M510.1 598h-.1l-5.4-3.2-15.9-9.2V598h21.4z" class="cls-19"/><path d="M488.7 598v12.4l16.1-9.3 5.3-3.1h-21.4z" class="cls-15"/><path d="M483.5 644.5v5h4.2l98.8-98.8v-4.2h-5l-98 98z" class="cls-9"/><path d="m545.6 598.4 13.6-13.6 27.3-27.3v-6.8l-98.8 98.8h6.8l35.7-35.7 15.4-15.4z" class="cls-2"/><path d="m539.4 581.8-16.3 16.3-9.4 9.4-30.2 30.2v6.8l98-98h-6.8l-35.3 35.3z" class="cls-1"/><path d="M467.5 534.5h-135v8h6.3a3.6 3.6 0 0 1-1.3-3c0-5.2 8-5.2 8 0 0 1.4-.5 2.4-1.3 3h129.7a3.6 3.6 0 0 1-1.4-3c0-5.2 8-5.2 8 0 0 1.4-.5 2.4-1.3 3h123.3v-8h-135Zm-12 4c0-5.2 8-5.2 8 0s-8 5.2-8 0Zm143 0c0 5.2-8 5.2-8 0s8-5.2 8 0Z" class="cls-9"/><path d="M479.2 542.5a4.4 4.4 0 0 1-5.3 0H344.2a4.4 4.4 0 0 1-5.3 0h-6.4v4h270v-4H479.2Zm97 .4v.1Z" class="cls-1"/><path d="M590.5 546.5h8v103h-8z" class="cls-9"/><path d="M598.5 649.5h4v-103h-4v103z" class="cls-2"/><path d="M586.5 557.5v92h4v-103h-4v11z" class="cls-1"/><path d="M467.5 653.5h-135v8h270v-8h-135Zm-131 4c0-5.2 8-5.2 8 0s-8 5.2-8 0Zm119 0c0-5.2 8-5.2 8 0s-8 5.2-8 0Zm16 0c0-5.2 8-5.2 8 0s-8 5.2-8 0Zm127 0c0 5.2-8 5.2-8 0s8-5.2 8 0Z" class="cls-9"/><path d="M590.5 649.5h-258v4h270v-4h-12z" class="cls-1"/><path d="M471.5 546.5h8v103h-8z" class="cls-9"/><path d="M479.5 649.5h4v-103h-4v103z" class="cls-1"/><path d="M598.5 538.5c0-5.2-8-5.2-8 0s8 5.2 8 0Zm-1.3 0c0 3.5-5.4 3.5-5.4 0s5.4-3.5 5.4 0Z" class="cls-25"/><path d="M597.2 538.5c0-3.5-5.4-3.5-5.4 0s5.4 3.5 5.4 0Z" class="cls-20"/><path d="M471.5 657.5c0 5.2 8 5.2 8 0s-8-5.2-8 0Zm1.3 0c0-3.5 5.4-3.5 5.4 0s-5.4 3.5-5.4 0Z" class="cls-25"/><path d="M472.8 657.5c0 3.5 5.4 3.5 5.4 0s-5.4-3.5-5.4 0Z" class="cls-20"/><path d="M598.5 657.5c0-5.2-8-5.2-8 0s8 5.2 8 0Zm-1.3 0c0 3.5-5.4 3.5-5.4 0s5.4-3.5 5.4 0Z" class="cls-25"/><path d="M597.2 657.5c0-3.5-5.4-3.5-5.4 0s5.4 3.5 5.4 0Z" class="cls-20"/><path d="M479.2 542.5c.8-.7 1.3-1.6 1.3-3 0-5.2-8-5.2-8 0 0 1.4.5 2.4 1.3 3a4.4 4.4 0 0 0 5.3 0Zm0-3c0 3.5-5.4 3.5-5.4 0s5.4-3.5 5.4 0Z" class="cls-25"/><path d="M479.2 539.5c0-3.5-5.4-3.5-5.4 0s5.4 3.5 5.4 0Z" class="cls-20"/><path d="M487.5 563.7h8.9v9.6h-8.9zm13.1 0h19.9v9.6h-19.9zM487.5 550h8.9v9.6h-8.9zm13.1 0h19.9v9.6h-19.9z" class="cls-12"/><path d="M496.4 573.3v.2h.7v-10.6h-9.6v.8h8.9v9.6zm3.4-10.4v10.6h.8v-9.8h19.9v-.8h-20.7zm-2.7-2.6V550h-.7v9.6h-8.9v.7h9.6zm2.7 0h20.7v-.7h-19.9V550h-.8v10.3z" class="cls-22"/><path d="M497.1 562.9v10.6h2.7v-10.6h20.7v-2.6h-20.7V550h-2.7v10.3h-9.6v2.6h9.6z" class="cls-24"/><path d="m483.5 502.7 30.2-30.2c-3.1-1.8-6.1-4-9-6.4l-16 9.3v-24.8l16 9.2a56.5 56.5 0 0 1 34.7-13l35.3-35.3h-91.2v91.2Zm4-74V415h33v23.3h-20v.2h-4v-.2h-9v-9.6Zm99-6.2-27.3 27.3a56 56 0 0 1 22 13.8l.3.3a56.6 56.6 0 0 1-51.3 14.9l-35.7 35.7h92v-92ZM576.1 481h.1Z" class="cls-8"/><path d="M510 463h.1l-5.3 3.1a54 54 0 0 0 8.9 6.4l9.3-9.4-13-.2Zm35.6.4-15.4 15.4a56.6 56.6 0 0 0 51.3-14.9l-36-.5Z" class="cls-15"/><path d="M581.2 463.6h-.1" class="cls-14"/><path d="m545.6 463.4 35.9.5-.4-.3a56.6 56.6 0 0 0-21.9-13.8l-13.6 13.6Zm19.4-7.1c0 3-4.7 3-4.7 0s4.8-3 4.7 0Zm-55 6.7 13 .1 16.4-16.3a56.5 56.5 0 0 0-34.8 13l5.4 3.1Z" class="cls-19"/><path d="M565 456.3c0-3-4.7-3-4.7 0s4.8 3 4.7 0Z" class="cls-17"/><path d="M510.1 463h-.1l-5.4-3.2-15.9-9.2V463h21.4z" class="cls-19"/><path d="M488.7 463v12.4l16.1-9.3 5.3-3.1h-21.4z" class="cls-15"/><path d="M483.5 509.5v5h4.2l98.8-98.8v-4.2h-5l-98 98Zm92.6-89.5h.1Z" class="cls-9"/><path d="m545.6 463.4 13.6-13.6 27.3-27.3v-6.8l-98.8 98.8h6.8l35.7-35.7 15.4-15.4z" class="cls-2"/><path d="m523.1 463.1-9.4 9.4-30.2 30.2v6.8l98-98h-6.8l-35.3 35.3-16.3 16.3z" class="cls-1"/><path d="M467.5 399.5h-135v8h6.3a3.6 3.6 0 0 1-1.3-3c0-5.2 8-5.2 8 0 0 1.4-.5 2.4-1.3 3h129.7a3.6 3.6 0 0 1-1.4-3c0-5.2 8-5.2 8 0 0 1.4-.5 2.4-1.3 3h123.3v-8h-135Zm-12 4c0-5.2 8-5.2 8 0s-8 5.2-8 0Zm143 0c0 5.2-8 5.2-8 0s8-5.2 8 0Z" class="cls-9"/><path d="M581 395.5H332.5v4h270v-4H581z" class="cls-2"/><path d="M479.2 407.5a4.4 4.4 0 0 1-5.3 0H344.2a4.4 4.4 0 0 1-5.3 0h-6.4v4h270v-4H479.2Z" class="cls-1"/><path d="M590.5 411.5h8v103h-8z" class="cls-9"/><path d="M598.5 514.5h4v-103h-4v103z" class="cls-2"/><path d="M586.5 422.5v92h4v-103h-4v11z" class="cls-1"/><path d="M467.5 518.5h-135v8h270v-8h-135Zm-131 4c0-5.2 8-5.2 8 0s-8 5.2-8 0Zm119 0c0-5.2 8-5.2 8 0s-8 5.2-8 0Zm16 0c0-5.2 8-5.2 8 0s-8 5.2-8 0Zm127 0c0 5.2-8 5.2-8 0s8-5.2 8 0Z" class="cls-9"/><path d="M467.5 526.5h-135v8h270v-8h-135z" class="cls-2"/><path d="M590.5 514.5h-258v4h270v-4h-12z" class="cls-1"/><path d="M471.5 411.5h8v103h-8z" class="cls-9"/><path d="M479.5 514.5h4v-103h-4v103z" class="cls-1"/><path d="M598.5 403.5c0-5.2-8-5.2-8 0s8 5.2 8 0Zm-1.3 0c0 3.5-5.4 3.5-5.4 0s5.4-3.5 5.4 0Z" class="cls-25"/><path d="M597.2 403.5c0-3.5-5.4-3.5-5.4 0s5.4 3.5 5.4 0Z" class="cls-20"/><path d="M471.5 522.5c0 5.2 8 5.2 8 0s-8-5.2-8 0Zm1.3 0c0-3.5 5.4-3.5 5.4 0s-5.4 3.5-5.4 0Z" class="cls-25"/><path d="M472.8 522.5c0 3.5 5.4 3.5 5.4 0s-5.4-3.5-5.4 0Z" class="cls-20"/><path d="M598.5 522.5c0-5.2-8-5.2-8 0s8 5.2 8 0Zm-1.3 0c0 3.5-5.4 3.5-5.4 0s5.4-3.5 5.4 0Z" class="cls-25"/><path d="M597.2 522.5c0-3.5-5.4-3.5-5.4 0s5.4 3.5 5.4 0Z" class="cls-20"/><path d="M479.2 407.5c.8-.7 1.3-1.6 1.3-3 0-5.2-8-5.2-8 0 0 1.4.5 2.4 1.3 3a4.4 4.4 0 0 0 5.3 0Zm0-3c0 3.5-5.4 3.5-5.4 0s5.4-3.5 5.4 0Z" class="cls-25"/><path d="M479.2 404.5c0-3.5-5.4-3.5-5.4 0s5.4 3.5 5.4 0Z" class="cls-20"/><path d="M500.6 415h19.9v9.6h-19.9zm-13.1 13.7h8.9v9.6h-8.9zm0-13.7h8.9v9.6h-8.9zm13.1 13.7h19.9v9.6h-19.9z" class="cls-12"/><path d="M496.4 438.3v.2h.7v-10.6h-9.6v.8h8.9v9.6zm.7-13V415h-.7v9.6h-8.9v.7h9.6zm2.7 0h20.7v-.7h-19.9V415h-.8v10.3zm0 2.6v10.6h.8v-9.8h19.9v-.8h-20.7z" class="cls-22"/><path d="M497.1 427.9v10.6h2.7v-10.6h20.7v-2.6h-20.7V415h-2.7v10.3h-9.6v2.6h9.6z" class="cls-24"/><path d="M423.1 358h.1l-.1-.1v.1zm153 246h.1l-.1-.1v.1zm0-61.1v.1h.1l-.1-.1zm0-61.9h.1l-.1-.1v.1zm0-61h.1l-.1-.1v.1zm0-62h.1l-.1-.1v.1z" style="fill:#7f4141;stroke-width:0"/><path d="M.5 374.5 0 0" style="stroke:#b9cbe3;stroke-linecap:round;stroke-linejoin:round;fill:none;stroke-width:0"/><path d="m9.5 365.3 4.9-4.9 2.1 2.1v-316l-7-7v325.8z" class="cls-7"/><path d="m9.5 365.3-.2.3 269.6 269.5 5.1-5.1L16.5 362.5l-2.1-2.1-4.9 4.9z" class="cls-4"/><path d="M286 306 14.5 34.5l-5 5 7 7L281 311l5-5z" class="cls-5"/><path d="m256 566.9 5.4 23.2V301.5l-5.4 10v255.4z" class="cls-7"/><path d="m232.9 283.6-5.4-23.1v288.6l5.4-10V283.6z" class="cls-3"/><path d="m227.5 260.5 5.4 23.1 23.1 27.9 5.4-10-5.4-6.6-23.1-27.8-5.4-6.6z" class="cls-5"/><path d="m232.9 539.1-5.4 10 5.4 6.6 23.1 27.8 5.4 6.6-5.4-23.2-23.1-27.8z" class="cls-4"/><path d="m208 520.9 5.4 23.2V255.5l-5.4 10v255.4z" class="cls-7"/><path d="m184.9 237.6-5.4-23.1v288.6l5.4-10V237.6z" class="cls-3"/><path d="m179.5 214.5 5.4 23.1 23.1 27.9 5.4-10-5.4-6.6-23.1-27.8-5.4-6.6z" class="cls-5"/><path d="m184.9 493.1-5.4 10 5.4 6.6 23.1 27.8 5.4 6.6-5.4-23.2-23.1-27.8z" class="cls-4"/><path d="m160 474.9 5.4 23.2V209.5l-5.4 10v255.4z" class="cls-7"/><path d="m136.9 191.6-5.4-23.1v288.6l5.4-10V191.6z" class="cls-3"/><path d="m131.5 168.5 5.4 23.1 23.1 27.9 5.4-10-5.4-6.6-23.1-27.8-5.4-6.6z" class="cls-5"/><path d="m136.9 447.1-5.4 10 5.4 6.6 23.1 27.8 5.4 6.6-5.4-23.2-23.1-27.8z" class="cls-4"/><path d="m112 428.9 5.4 23.2V163.5l-5.4 10v255.4z" class="cls-7"/><path d="m88.9 145.6-5.4-23.1v288.6l5.4-10V145.6z" class="cls-3"/><path d="m83.5 122.5 5.4 23.1 23.1 27.9 5.4-10-5.4-6.6-23.1-27.8-5.4-6.6z" class="cls-5"/><path d="m88.9 401.1-5.4 10 5.4 6.6 23.1 27.8 5.4 6.6-5.4-23.2-23.1-27.8z" class="cls-4"/><path d="m64 382.9 5.4 23.2V117.5l-5.4 10v255.4z" class="cls-7"/><path d="m40.9 99.6-5.4-23.1v288.6l5.4-10V99.6z" class="cls-3"/><path d="m35.5 76.5 5.4 23.1L64 127.5l5.4-10-5.4-6.6-23.1-27.8-5.4-6.6z" class="cls-5"/><path d="m40.9 355.1-5.4 10 5.4 6.6L64 399.5l5.4 6.6-5.4-23.2-23.1-27.8z" class="cls-4"/><path d="m311 633 21.5 32.5v-270l-21-31.7-.5-.8v270z" style="fill:#a08f73;stroke-width:0"/><path d="m348.5 637.7 30.2-30.2c-3.1-1.8-6.1-4-9-6.4l-16 9.3v-24.8l16 9.2a56.5 56.5 0 0 1 34.7-13l35.3-35.3h-91.2v91.2Zm4-74V550h33v23.3h-20v.2h-4v-.2h-9v-9.6Zm99-6.2-27.3 27.3a56 56 0 0 1 22 13.8l.3.3a56.6 56.6 0 0 1-51.3 14.9l-35.7 35.7h92v-92Z" class="cls-8"/><path d="M375 598h.1l-5.3 3.1a54 54 0 0 0 8.9 6.4l9.4-9.4-13-.2Zm35.6.4-15.4 15.4a56.6 56.6 0 0 0 51.3-14.9l-36-.5Z" class="cls-15"/><path d="M446.2 598.5h-.1" class="cls-14"/><path d="m410.6 598.4 35.9.5-.4-.3a56.6 56.6 0 0 0-21.9-13.8l-13.6 13.6Zm19.4-7.1c0 3-4.7 3-4.7 0s4.8-3 4.7 0Zm-55 6.7 13 .1 16.4-16.3a56.5 56.5 0 0 0-34.8 13l5.4 3.1Z" class="cls-19"/><path d="M430 591.3c0-3-4.7-3-4.7 0s4.8 3 4.7 0Z" class="cls-17"/><path d="M375.1 598h-.1l-5.4-3.2-15.9-9.2V598h21.4z" class="cls-19"/><path d="M353.7 598v12.4l16.1-9.3 5.3-3.1h-21.4z" class="cls-15"/><path d="M348.5 644.5v5h4.2l98.8-98.8v-4.2h-5l-98 98z" class="cls-9"/><path d="m410.6 598.4 13.6-13.6 27.3-27.3v-6.8l-98.8 98.8h6.8l35.7-35.7 15.4-15.4z" class="cls-2"/><path d="m388.1 598.1-9.4 9.4-30.2 30.2v6.8l98-98h-6.8l-35.3 35.3-16.3 16.3z" class="cls-1"/><path d="M455.5 546.5h8v103h-8z" class="cls-9"/><path d="M463.5 649.5h8v-103h-8v103z" class="cls-2"/><path d="M451.5 557.5v92h4v-103h-4v11z" class="cls-1"/><path d="M332.5 661.5v4h270v-4h-270z" class="cls-2"/><path d="M336.5 546.5h8v103h-8z" class="cls-9"/><path d="M336.5 546.5h-4v103h4v-103z" class="cls-2"/><path d="M344.5 649.5h4v-103h-4v103z" class="cls-1"/><path d="M455.5 538.5c0 5.2 8 5.2 8 0s-8-5.2-8 0Zm1.3 0c0-3.5 5.4-3.5 5.4 0s-5.4 3.5-5.4 0Z" class="cls-25"/><path d="M456.8 538.5c0 3.5 5.4 3.5 5.4 0s-5.4-3.5-5.4 0Z" class="cls-20"/><path d="M336.5 657.5c0 5.2 8 5.2 8 0s-8-5.2-8 0Zm1.3 0c0-3.5 5.4-3.5 5.4 0s-5.4 3.5-5.4 0Z" class="cls-25"/><path d="M337.8 657.5c0 3.5 5.4 3.5 5.4 0s-5.4-3.5-5.4 0Z" class="cls-20"/><path d="M455.5 657.5c0 5.2 8 5.2 8 0s-8-5.2-8 0Zm1.3 0c0-3.5 5.4-3.5 5.4 0s-5.4 3.5-5.4 0Z" class="cls-25"/><path d="M456.8 657.5c0 3.5 5.4 3.5 5.4 0s-5.4-3.5-5.4 0Z" class="cls-20"/><path d="M344.2 542.5c.8-.7 1.3-1.6 1.3-3 0-5.2-8-5.2-8 0 0 1.4.5 2.4 1.3 3a4.4 4.4 0 0 0 5.3 0Zm0-3c0 3.5-5.4 3.5-5.4 0s5.4-3.5 5.4 0Z" class="cls-25"/><path d="M344.2 539.5c0-3.5-5.4-3.5-5.4 0s5.4 3.5 5.4 0Z" class="cls-20"/><path d="M352.5 550h8.9v9.6h-8.9zm13.1 13.7h19.9v9.6h-19.9zm0-13.7h19.9v9.6h-19.9zm-13.1 13.7h8.9v9.6h-8.9z" class="cls-12"/><path d="M361.4 573.3v.2h.7v-10.6h-9.6v.8h8.9v9.6zm3.4-13h20.7v-.7h-19.9V550h-.8v10.3zm0 2.6v10.6h.8v-9.8h19.9v-.8h-20.7zm-2.7-2.6V550h-.7v9.6h-8.9v.7h9.6z" class="cls-22"/><path d="M362.1 562.9v10.6h2.7v-10.6h20.7v-2.6h-20.7V550h-2.7v10.3h-9.6v2.6h9.6z" class="cls-24"/><path d="m348.5 502.7 30.2-30.2c-3.1-1.8-6.1-4-9-6.4l-16 9.3v-24.8l16 9.2a56.5 56.5 0 0 1 34.7-13l35.3-35.3h-91.2v91.2Zm4-74.8v-13h33v23.4h-20v.2h-4v-.2h-9V428Zm99-5.4-27.3 27.3a56 56 0 0 1 22 13.8l.3.3a56.6 56.6 0 0 1-51.3 14.9l-35.7 35.7h92v-92Z" class="cls-8"/><path d="M395.2 478.8a56.6 56.6 0 0 0 51.3-14.9l-36-.5-15.3 15.4ZM375 463h.1l-5.3 3.1a54 54 0 0 0 8.9 6.4l9.4-9.4-13-.2Z" class="cls-15"/><path d="M446.2 463.6h-.1" class="cls-14"/><path d="m410.6 463.4 35.9.5-.4-.3a56.6 56.6 0 0 0-21.9-13.8l-13.6 13.6Zm19.4-7.1c0 3-4.7 3-4.7 0s4.8-3 4.7 0Zm-55 6.7 13 .1 16.4-16.3a56.5 56.5 0 0 0-34.8 13l5.4 3.1Z" class="cls-19"/><path d="M430 456.3c0-3-4.7-3-4.7 0s4.8 3 4.7 0Z" class="cls-17"/><path d="M375.1 463h-.1l-5.4-3.2-15.9-9.2V463h21.4z" class="cls-19"/><path d="M353.7 463v12.4l16.1-9.3 5.3-3.1h-21.4z" class="cls-15"/><path d="M348.5 509.5v5h4.2l98.8-98.8v-4.2h-5l-98 98z" class="cls-9"/><path d="m410.6 463.4 13.6-13.6 27.3-27.3v-6.8l-98.8 98.8h6.8l35.7-35.7 15.4-15.4z" class="cls-2"/><path d="m388.1 463.1-9.4 9.4-30.2 30.2v6.8l98-98h-6.8l-35.3 35.3-16.3 16.3z" class="cls-1"/><path d="M455.5 411.5h8v103h-8z" class="cls-9"/><path d="M463.5 514.5h8v-103h-8v103z" class="cls-2"/><path d="M451.5 422.5v92h4v-103h-4v11z" class="cls-1"/><path d="M336.5 411.5h8v103h-8z" class="cls-9"/><path d="M336.5 411.5h-4v103h4v-103z" class="cls-2"/><path d="M344.5 514.5h4v-103h-4v103z" class="cls-1"/><path d="M455.5 403.5c0 5.2 8 5.2 8 0s-8-5.2-8 0Zm1.3 0c0-3.5 5.4-3.5 5.4 0s-5.4 3.5-5.4 0Z" class="cls-25"/><path d="M456.8 403.5c0 3.5 5.4 3.5 5.4 0s-5.4-3.5-5.4 0Z" class="cls-20"/><path d="M336.5 522.5c0 5.2 8 5.2 8 0s-8-5.2-8 0Zm1.3 0c0-3.5 5.4-3.5 5.4 0s-5.4 3.5-5.4 0Z" class="cls-25"/><path d="M337.8 522.5c0 3.5 5.4 3.5 5.4 0s-5.4-3.5-5.4 0Z" class="cls-20"/><path d="M455.5 522.5c0 5.2 8 5.2 8 0s-8-5.2-8 0Zm1.3 0c0-3.5 5.4-3.5 5.4 0s-5.4 3.5-5.4 0Z" class="cls-25"/><path d="M456.8 522.5c0 3.5 5.4 3.5 5.4 0s-5.4-3.5-5.4 0Z" class="cls-20"/><path d="M344.2 407.5c.8-.7 1.3-1.6 1.3-3 0-5.2-8-5.2-8 0 0 1.4.5 2.4 1.3 3a4.4 4.4 0 0 0 5.3 0Zm0-3c0 3.5-5.4 3.5-5.4 0s5.4-3.5 5.4 0Z" class="cls-25"/><path d="M344.2 404.5c0-3.5-5.4-3.5-5.4 0s5.4 3.5 5.4 0Z" class="cls-20"/><path d="M352.5 415h8.9v9.6h-8.9zm13.1 0h19.9v9.6h-19.9zm0 13.7h19.9v9.6h-19.9zm-13.1 0h8.9v9.6h-8.9z" class="cls-12"/><path d="M361.4 438.3v.2h.7v-10.6h-9.6v.8h8.9v9.6zm3.4-10.4v10.6h.8v-9.8h19.9v-.8h-20.7zm0-2.6h20.7v-.7h-19.9V415h-.8v10.3zm-2.7 0V415h-.7v9.6h-8.9v.7h9.6z" class="cls-22"/><path d="M362.1 427.9v10.6h2.7v-10.6h20.7v-2.6h-20.7V415h-2.7v10.3h-9.6v2.6h9.6z" class="cls-24"/><text class="cls-28" transform="translate(497.5 660.6)"><tspan x="0" y="0">CAUGHT IN NO</tspan><tspan x="56.2" y="0" class="cls-29">R</tspan><tspan x="61.9" y="0" class="cls-26">W</tspan><tspan x="69.3" y="0" class="cls-27">A</tspan><tspan x="74.3" y="0">Y</tspan></text><text class="cls-28" transform="translate(497.5 525.6)"><tspan x="0" y="0">CAUGHT IN NO</tspan><tspan x="56.2" y="0" class="cls-29">R</tspan><tspan x="61.9" y="0" class="cls-26">W</tspan><tspan x="69.3" y="0" class="cls-27">A</tspan><tspan x="74.3" y="0">Y</tspan></text><text class="cls-28" transform="translate(362.5 660.6)"><tspan x="0" y="0">CAUGHT IN NO</tspan><tspan x="56.2" y="0" class="cls-29">R</tspan><tspan x="61.9" y="0" class="cls-26">W</tspan><tspan x="69.3" y="0" class="cls-27">A</tspan><tspan x="74.3" y="0">Y</tspan></text><text class="cls-28" transform="translate(362.5 525.6)"><tspan x="0" y="0">CAUGHT IN NO</tspan><tspan x="56.2" y="0" class="cls-29">R</tspan><tspan x="61.9" y="0" class="cls-26">W</tspan><tspan x="69.3" y="0" class="cls-27">A</tspan><tspan x="74.3" y="0">Y</tspan></text></g></svg>