<svg xmlns="http://www.w3.org/2000/svg" id="Layer_2" viewBox="0 0 186 371"><defs><style>.cls-2{fill:none;stroke-miterlimit:10;stroke-width:5.67px}.cls-3{fill:#ed6e6e}.cls-3,.cls-4,.cls-5,.cls-7,.cls-8,.cls-9{stroke-width:0}.cls-4{fill:#b9cbe3}.cls-5{fill:#7f2121}.cls-2{stroke:#8e9fb2}.cls-7{fill:#c43d3d}.cls-8{fill:#6f0000}.cls-9{fill:#8e9fb2}</style></defs><g id="Layer_3"><path d="M1 0h185v371H1z" style="fill:#ed4842;stroke-width:0"/><path d="M47.4 313.4h132v10.5h-132z" class="cls-3"/><path d="M47.4 303.7h117.5v9.7H47.4z" class="cls-7"/><path d="M47.4 292.6h132v11.1h-132z" class="cls-5"/><path d="m164.3 313.3 15.2 10.9v-31.6l-15.2 10.9v9.8z" class="cls-8"/><path d="M47.4 252.3h132v10.5h-132z" class="cls-3"/><path d="M47.4 242.7h117.5v9.7H47.4z" class="cls-7"/><path d="M47.4 231.6h132v11.1h-132z" class="cls-5"/><path d="m164.3 252.3 15.2 10.9v-31.6l-15.2 10.9v9.8z" class="cls-8"/><path d="M47.4 190.3h132v10.5h-132z" class="cls-3"/><path d="M47.4 180.7h117.5v9.7H47.4z" class="cls-7"/><path d="M47.4 169.6h132v11.1h-132z" class="cls-5"/><path d="m164.3 190.3 15.2 10.9v-31.6l-15.2 10.9v9.8z" class="cls-8"/><path d="M47.4 129.3h132v10.5h-132z" class="cls-3"/><path d="M47.4 119.7h117.5v9.7H47.4z" class="cls-7"/><path d="M47.4 108.6h132v11.1h-132z" class="cls-5"/><path d="m164.3 129.3 15.2 10.9v-31.6l-15.2 10.9v9.8z" class="cls-8"/><path d="M47.4 67.3h132v10.5h-132z" class="cls-3"/><path d="M47.4 57.7h117.5v9.7H47.4z" class="cls-7"/><path d="M47.4 46.6h132v11.1h-132z" class="cls-5"/><path d="m164.3 67.3 15.2 10.9V46.6l-15.2 10.9v9.8z" class="cls-8"/><path d="M40.2 362h-7V23.6h7z" class="cls-7"/><path d="M40.3 23.6V16h141.9v7.6z" class="cls-5"/><path d="M40.2 23.6 33.3 16v7.6" class="cls-7"/><path d="m33.3 16 6.9 7.6V16" class="cls-5"/><path d="M182.1 354.1v7.8H40.2v-7.8z" class="cls-3"/><path d="M171 47v277" style="fill:none;stroke-miterlimit:10;stroke-width:5.67px;stroke:#b9cbe3"/><rect width="30" height="15.3" x="155" y="355.7" class="cls-4" rx="7.7" ry="7.7"/><path d="M171 324v39" class="cls-2"/><circle cx="171" cy="364" r="5" class="cls-9"/><path d="M171 47V8" class="cls-2"/><path d="M4.1 60H23v14H4.1z" class="cls-4"/><path d="M0 60h4.1v14H0z" class="cls-9"/><path d="M4.1 103H23v14H4.1z" class="cls-4"/><path d="M0 103h4.1v14H0z" class="cls-9"/><path d="M4.1 146H23v14H4.1z" class="cls-4"/><path d="M0 146h4.1v14H0z" class="cls-9"/><path d="M4.1 189H23v14H4.1z" class="cls-4"/><path d="M0 189h4.1v14H0z" class="cls-9"/><path d="M4.1 232H23v14H4.1z" class="cls-4"/><path d="M0 232h4.1v14H0z" class="cls-9"/><path d="M4.1 275H23v14H4.1z" class="cls-4"/><path d="M0 275h4.1v14H0z" class="cls-9"/><path d="M4.1 318H23v14H4.1z" class="cls-4"/><path d="M0 318h4.1v14H0z" class="cls-9"/></g></svg>