<?xml version="1.0" encoding="UTF-8"?><svg id="Layer_2" xmlns="http://www.w3.org/2000/svg" viewBox="0 0 666.03 673.77"><defs><style>.cls-1{stroke:#b9cbe3;}.cls-1,.cls-2,.cls-3{stroke-miterlimit:10;}.cls-1,.cls-3{fill:none;stroke-width:5.67px;}.cls-4{fill:#f2a0a0;}.cls-4,.cls-5,.cls-6,.cls-7,.cls-8,.cls-9,.cls-10,.cls-11,.cls-12{stroke-width:0px;}.cls-5{fill:#ed6e6e;}.cls-2{stroke:#ed6e6e;stroke-width:1.42px;}.cls-2,.cls-9{fill:#c43d3d;}.cls-6{fill:#b9cbe3;}.cls-7{fill:#7f2121;}.cls-8{fill:#ed4842;}.cls-3{stroke:#8e9fb2;}.cls-10{fill:#6f0000;}.cls-11{fill:#7f4141;}.cls-12{fill:#8e9fb2;}</style></defs><g id="Layer_3"><polyline class="cls-2" points=".71 373.24 1.21 1.74 293.21 301.74 293.21 672.74"/><polygon class="cls-11" points="422.84 544.23 422.93 544.23 422.84 544.17 422.84 544.23"/><polygon class="cls-11" points="422.84 482.23 422.93 482.23 422.84 482.17 422.84 482.23"/><polygon class="cls-11" points="422.84 421.23 422.93 421.23 422.84 421.17 422.84 421.23"/><polygon class="cls-11" points="422.84 359.23 422.93 359.23 422.84 359.17 422.84 359.23"/><polygon class="cls-11" points="575.84 544.23 575.93 544.23 575.84 544.17 575.84 544.23"/><polygon class="cls-11" points="575.84 482.23 575.93 482.23 575.84 482.17 575.84 482.23"/><polygon class="cls-11" points="575.84 421.23 575.93 421.23 575.84 421.17 575.84 421.23"/><polygon class="cls-11" points="575.84 359.23 575.93 359.23 575.84 359.17 575.84 359.23"/><rect class="cls-5" x="-44.27" y="495.39" width="381.24" height="7.27" transform="translate(395.73 42.68) rotate(45)"/><rect class="cls-7" x="-44.52" y="170.46" width="383.96" height="7.07" transform="translate(166.22 -53.31) rotate(45)"/><polygon class="cls-9" points="232.76 285.02 232.76 540.46 255.71 568.15 255.71 312.71 232.76 285.02"/><polygon class="cls-10" points="255.71 584.73 261.15 591.3 261.15 319.28 255.71 312.71 255.71 584.73"/><polygon class="cls-4" points="227.21 550.33 232.65 556.9 232.65 284.89 227.21 278.32 227.21 550.33"/><polygon class="cls-7" points="232.65 268.31 232.65 284.89 255.71 312.71 255.71 296.14 232.65 268.31"/><polygon class="cls-10" points="255.71 312.71 261.15 302.71 261.15 319.28 255.71 312.71"/><polygon class="cls-7" points="261.15 302.71 255.71 312.71 255.71 296.14 261.15 302.71"/><polygon class="cls-4" points="227.21 261.74 232.65 284.89 227.21 278.32 227.21 261.74"/><polygon class="cls-7" points="232.65 284.89 227.21 261.74 232.65 268.31 232.65 284.89"/><polygon class="cls-5" points="255.71 584.73 255.71 568.15 232.65 540.33 232.65 556.9 255.71 584.73"/><polygon class="cls-5" points="227.21 550.33 232.65 540.33 232.65 556.9 227.21 550.33"/><polygon class="cls-5" points="255.71 568.15 261.15 591.3 255.71 584.73 255.71 568.15"/><polygon class="cls-9" points="184.76 239.02 184.76 494.46 207.71 522.15 207.71 266.71 184.76 239.02"/><polygon class="cls-10" points="207.71 538.73 213.15 545.3 213.15 273.28 207.71 266.71 207.71 538.73"/><polygon class="cls-4" points="179.21 504.33 184.65 510.9 184.65 238.89 179.21 232.32 179.21 504.33"/><polygon class="cls-7" points="184.65 222.31 184.65 238.89 207.71 266.71 207.71 250.14 184.65 222.31"/><polygon class="cls-10" points="207.71 266.71 213.15 256.71 213.15 273.28 207.71 266.71"/><polygon class="cls-7" points="213.15 256.71 207.71 266.71 207.71 250.14 213.15 256.71"/><polygon class="cls-4" points="179.21 215.74 184.65 238.89 179.21 232.32 179.21 215.74"/><polygon class="cls-7" points="184.65 238.89 179.21 215.74 184.65 222.31 184.65 238.89"/><polygon class="cls-5" points="207.71 538.73 207.71 522.15 184.65 494.33 184.65 510.9 207.71 538.73"/><polygon class="cls-5" points="179.21 504.33 184.65 494.33 184.65 510.9 179.21 504.33"/><polygon class="cls-5" points="207.71 522.15 213.15 545.3 207.71 538.73 207.71 522.15"/><polygon class="cls-9" points="136.76 193.02 136.76 448.46 159.71 476.15 159.71 220.71 136.76 193.02"/><polygon class="cls-10" points="159.71 492.73 165.15 499.3 165.15 227.28 159.71 220.71 159.71 492.73"/><polygon class="cls-4" points="131.21 458.33 136.65 464.9 136.65 192.89 131.21 186.32 131.21 458.33"/><polygon class="cls-7" points="136.65 176.31 136.65 192.89 159.71 220.71 159.71 204.14 136.65 176.31"/><polygon class="cls-10" points="159.71 220.71 165.15 210.71 165.15 227.28 159.71 220.71"/><polygon class="cls-7" points="165.15 210.71 159.71 220.71 159.71 204.14 165.15 210.71"/><polygon class="cls-4" points="131.21 169.74 136.65 192.89 131.21 186.32 131.21 169.74"/><polygon class="cls-7" points="136.65 192.89 131.21 169.74 136.65 176.31 136.65 192.89"/><polygon class="cls-5" points="159.71 492.73 159.71 476.15 136.65 448.33 136.65 464.9 159.71 492.73"/><polygon class="cls-5" points="131.21 458.33 136.65 448.33 136.65 464.9 131.21 458.33"/><polygon class="cls-5" points="159.71 476.15 165.15 499.3 159.71 492.73 159.71 476.15"/><polygon class="cls-9" points="88.76 147.02 88.76 402.46 111.71 430.15 111.71 174.71 88.76 147.02"/><polygon class="cls-10" points="111.71 446.73 117.15 453.3 117.15 181.28 111.71 174.71 111.71 446.73"/><polygon class="cls-4" points="83.21 412.33 88.65 418.9 88.65 146.89 83.21 140.32 83.21 412.33"/><polygon class="cls-7" points="88.65 130.31 88.65 146.89 111.71 174.71 111.71 158.14 88.65 130.31"/><polygon class="cls-10" points="111.71 174.71 117.15 164.71 117.15 181.28 111.71 174.71"/><polygon class="cls-7" points="117.15 164.71 111.71 174.71 111.71 158.14 117.15 164.71"/><polygon class="cls-4" points="83.21 123.74 88.65 146.89 83.21 140.32 83.21 123.74"/><polygon class="cls-7" points="88.65 146.89 83.21 123.74 88.65 130.31 88.65 146.89"/><polygon class="cls-5" points="111.71 446.73 111.71 430.15 88.65 402.33 88.65 418.9 111.71 446.73"/><polygon class="cls-5" points="83.21 412.33 88.65 402.33 88.65 418.9 83.21 412.33"/><polygon class="cls-5" points="111.71 430.15 117.15 453.3 111.71 446.73 111.71 430.15"/><polygon class="cls-9" points="40.76 101.02 40.76 356.46 63.71 384.15 63.71 128.71 40.76 101.02"/><polygon class="cls-10" points="63.71 400.73 69.15 407.3 69.15 135.28 63.71 128.71 63.71 400.73"/><polygon class="cls-4" points="35.21 366.33 40.65 372.9 40.65 100.89 35.21 94.32 35.21 366.33"/><polygon class="cls-7" points="40.65 84.31 40.65 100.89 63.71 128.71 63.71 112.14 40.65 84.31"/><polygon class="cls-10" points="63.71 128.71 69.15 118.71 69.15 135.28 63.71 128.71"/><polygon class="cls-7" points="69.15 118.71 63.71 128.71 63.71 112.14 69.15 118.71"/><polygon class="cls-4" points="35.21 77.74 40.65 100.89 35.21 94.32 35.21 77.74"/><polygon class="cls-7" points="40.65 100.89 35.21 77.74 40.65 84.31 40.65 100.89"/><polygon class="cls-5" points="63.71 400.73 63.71 384.15 40.65 356.33 40.65 372.9 63.71 400.73"/><polygon class="cls-5" points="35.21 366.33 40.65 356.33 40.65 372.9 35.21 366.33"/><polygon class="cls-5" points="63.71 384.15 69.15 407.3 63.71 400.73 63.71 384.15"/><rect class="cls-8" x="294.97" y="302.77" width="371" height="371"/><rect class="cls-5" x="338.4" y="616.11" width="132.03" height="10.54"/><rect class="cls-9" x="338.4" y="606.46" width="117.49" height="9.65"/><rect class="cls-7" x="338.4" y="595.4" width="132.03" height="11.08"/><polygon class="cls-10" points="455.22 616.06 470.43 626.96 470.43 595.4 455.22 606.3 455.22 616.06"/><rect class="cls-5" x="338.4" y="555.11" width="132.03" height="10.54"/><rect class="cls-9" x="338.4" y="545.46" width="117.49" height="9.65"/><rect class="cls-7" x="338.4" y="534.4" width="132.03" height="11.08"/><polygon class="cls-10" points="455.22 555.06 470.43 565.96 470.43 534.4 455.22 545.3 455.22 555.06"/><rect class="cls-5" x="338.4" y="493.11" width="132.03" height="10.54"/><rect class="cls-9" x="338.4" y="483.46" width="117.49" height="9.65"/><rect class="cls-7" x="338.4" y="472.4" width="132.03" height="11.08"/><polygon class="cls-10" points="455.22 493.06 470.43 503.96 470.43 472.4 455.22 483.3 455.22 493.06"/><rect class="cls-5" x="338.4" y="432.11" width="132.03" height="10.54"/><rect class="cls-9" x="338.4" y="422.46" width="117.49" height="9.65"/><rect class="cls-7" x="338.4" y="411.4" width="132.03" height="11.08"/><polygon class="cls-10" points="455.22 432.06 470.43 442.96 470.43 411.4 455.22 422.3 455.22 432.06"/><rect class="cls-5" x="338.4" y="370.11" width="132.03" height="10.54"/><rect class="cls-9" x="338.4" y="360.46" width="117.49" height="9.65"/><rect class="cls-7" x="338.4" y="349.4" width="132.03" height="11.08"/><polygon class="cls-10" points="455.22 370.06 470.43 380.96 470.43 349.4 455.22 360.3 455.22 370.06"/><rect class="cls-5" x="491.4" y="616.11" width="132.03" height="10.54"/><rect class="cls-9" x="491.4" y="606.46" width="117.49" height="9.65"/><rect class="cls-7" x="491.4" y="595.4" width="132.03" height="11.08"/><polygon class="cls-10" points="608.22 616.06 623.43 626.96 623.43 595.4 608.22 606.3 608.22 616.06"/><rect class="cls-5" x="491.4" y="555.11" width="132.03" height="10.54"/><rect class="cls-9" x="491.4" y="545.46" width="117.49" height="9.65"/><rect class="cls-7" x="491.4" y="534.4" width="132.03" height="11.08"/><polygon class="cls-10" points="608.22 555.06 623.43 565.96 623.43 534.4 608.22 545.3 608.22 555.06"/><rect class="cls-5" x="491.4" y="493.11" width="132.03" height="10.54"/><rect class="cls-9" x="491.4" y="483.46" width="117.49" height="9.65"/><rect class="cls-7" x="491.4" y="472.4" width="132.03" height="11.08"/><polygon class="cls-10" points="608.22 493.06 623.43 503.96 623.43 472.4 608.22 483.3 608.22 493.06"/><rect class="cls-5" x="491.4" y="432.11" width="132.03" height="10.54"/><rect class="cls-9" x="491.4" y="422.46" width="117.49" height="9.65"/><rect class="cls-7" x="491.4" y="411.4" width="132.03" height="11.08"/><polygon class="cls-10" points="608.22 432.06 623.43 442.96 623.43 411.4 608.22 422.3 608.22 432.06"/><rect class="cls-5" x="491.4" y="370.11" width="132.03" height="10.54"/><rect class="cls-9" x="491.4" y="360.46" width="117.49" height="9.65"/><rect class="cls-7" x="491.4" y="349.4" width="132.03" height="11.08"/><polygon class="cls-10" points="608.22 370.06 623.43 380.96 623.43 349.4 608.22 360.3 608.22 370.06"/><rect class="cls-9" x="324.24" y="326.37" width="6.96" height="338.4" transform="translate(655.43 991.13) rotate(180)"/><rect class="cls-7" x="398.33" y="251.63" width="7.6" height="141.87" transform="translate(79.57 724.7) rotate(-90)"/><polyline class="cls-9" points="331.2 326.37 324.24 318.77 324.24 326.37"/><polyline class="cls-7" points="324.24 318.77 331.2 326.37 331.2 318.77"/><rect class="cls-5" x="398.21" y="589.91" width="7.85" height="141.87" transform="translate(1062.98 258.71) rotate(90)"/><rect class="cls-9" x="629.74" y="326.37" width="6.96" height="338.4"/><rect class="cls-7" x="555" y="251.63" width="7.6" height="141.87" transform="translate(236.23 881.37) rotate(-90)"/><polyline class="cls-9" points="629.74 326.37 636.7 318.77 636.7 326.37"/><polyline class="cls-7" points="636.7 318.77 629.74 326.37 629.74 318.77"/><rect class="cls-5" x="554.88" y="589.91" width="7.85" height="141.87" transform="translate(1219.64 102.04) rotate(90)"/><line class="cls-1" x1="497.97" y1="349.77" x2="497.97" y2="626.77"/><line class="cls-1" x1="461.97" y1="349.77" x2="461.97" y2="626.77"/><rect class="cls-6" x="482.97" y="658.43" width="30" height="15.33" rx="7.67" ry="7.67"/><rect class="cls-6" x="445.97" y="658.43" width="30" height="15.33" rx="7.67" ry="7.67"/><line class="cls-3" x1="497.97" y1="626.77" x2="497.97" y2="665.77"/><line class="cls-3" x1="461.97" y1="626.77" x2="461.97" y2="665.77"/><circle class="cls-12" cx="461.97" cy="666.77" r="5"/><circle class="cls-12" cx="497.97" cy="666.77" r="5"/><line class="cls-3" x1="461.97" y1="349.77" x2="461.97" y2="310.77"/><line class="cls-3" x1="497.97" y1="349.77" x2="497.97" y2="310.77"/><rect class="cls-6" x="642.97" y="362.77" width="18.94" height="14" transform="translate(1304.88 739.53) rotate(180)"/><rect class="cls-12" x="661.91" y="362.77" width="4.12" height="14" transform="translate(1327.93 739.53) rotate(180)"/><rect class="cls-6" x="642.97" y="620.77" width="18.94" height="14" transform="translate(1304.88 1255.53) rotate(180)"/><rect class="cls-12" x="661.91" y="620.77" width="4.12" height="14" transform="translate(1327.93 1255.53) rotate(180)"/><rect class="cls-6" x="642.97" y="577.77" width="18.94" height="14" transform="translate(1304.88 1169.53) rotate(180)"/><rect class="cls-12" x="661.91" y="577.77" width="4.12" height="14" transform="translate(1327.93 1169.53) rotate(180)"/><rect class="cls-6" x="642.97" y="534.77" width="18.94" height="14" transform="translate(1304.88 1083.53) rotate(180)"/><rect class="cls-12" x="661.91" y="534.77" width="4.12" height="14" transform="translate(1327.93 1083.53) rotate(180)"/><rect class="cls-6" x="642.97" y="491.77" width="18.94" height="14" transform="translate(1304.88 997.53) rotate(180)"/><rect class="cls-12" x="661.91" y="491.77" width="4.12" height="14" transform="translate(1327.93 997.53) rotate(180)"/><rect class="cls-6" x="642.97" y="448.77" width="18.94" height="14" transform="translate(1304.88 911.53) rotate(180)"/><rect class="cls-12" x="661.91" y="448.77" width="4.12" height="14" transform="translate(1327.93 911.53) rotate(180)"/><rect class="cls-6" x="642.97" y="405.77" width="18.94" height="14" transform="translate(1304.88 825.53) rotate(180)"/><rect class="cls-12" x="661.91" y="405.77" width="4.12" height="14" transform="translate(1327.93 825.53) rotate(180)"/><rect class="cls-6" x="295.09" y="362.77" width="18.94" height="14"/><rect class="cls-12" x="290.97" y="362.77" width="4.12" height="14"/><rect class="cls-6" x="295.09" y="405.77" width="18.94" height="14"/><rect class="cls-12" x="290.97" y="405.77" width="4.12" height="14"/><rect class="cls-6" x="295.09" y="448.77" width="18.94" height="14"/><rect class="cls-12" x="290.97" y="448.77" width="4.12" height="14"/><rect class="cls-6" x="295.09" y="491.77" width="18.94" height="14"/><rect class="cls-12" x="290.97" y="491.77" width="4.12" height="14"/><rect class="cls-6" x="295.09" y="534.77" width="18.94" height="14"/><rect class="cls-12" x="290.97" y="534.77" width="4.12" height="14"/><rect class="cls-6" x="295.09" y="577.77" width="18.94" height="14"/><rect class="cls-12" x="290.97" y="577.77" width="4.12" height="14"/><rect class="cls-6" x="295.09" y="620.77" width="18.94" height="14"/><rect class="cls-12" x="290.97" y="620.77" width="4.12" height="14"/><polygon class="cls-10" points="1.21 1.74 372.21 1.74 664.21 301.74 293.21 301.74 1.21 1.74"/></g></svg>