<svg xmlns="http://www.w3.org/2000/svg" id="Layer_2" viewBox="0 0 1174.1 670.1"><defs><style>.cls-1{fill:#020202}.cls-1,.cls-11,.cls-4,.cls-7,.cls-8{stroke-width:0}.cls-14,.cls-19{stroke-miterlimit:10}.cls-4{fill:#293a30}.cls-14{stroke:#264500}.cls-14,.cls-19{fill:#0f7237}.cls-7{fill:#043020}.cls-8{fill:#262625}.cls-19{stroke:#000}.cls-11{fill:#6b6b6a}</style></defs><g id="Layer_2-2"><g id="Layer_1-2"><path d="M23.3 542.8v113.3h9l9-7.3-2-105-16-1zM1125 400.7v11.8c-.2 4.2-8.6 11.5-12.5 11V489l23.2 1v-94.7l-10.7 5.5Z" class="cls-7"/><path d="m24.7 609.9.3 14.8 107.3 13.1v-13.9l-107.6-14z" class="cls-7"/><g id="green-container"><path d="m211.8 107.5 125-99 44-8 299 42-83 70-2 145-175 22.1v-147l-208-25Z" style="stroke:#2de700;fill:#3c6;stroke-miterlimit:10"/><path d="M212.3 107.1V479L416 505.5l3.6-372.9-207.4-25.5Zm467.5-65.6v369.2l-62 51.8V384l-22-124.5 1-148 83-70z" style="fill:#32b259;stroke:#00a202;stroke-miterlimit:10"/><path d="m417.5 505.4 24 17.7V407.4l-18-128h-3.6l-2.4 226z" style="fill:#136d55;stroke:#005c24;stroke-miterlimit:10"/><path d="m442.8 407.1 175.5-23.5V498l-175.5 24.8V407.1z" style="fill:#3c6;stroke-miterlimit:10;stroke:#148c3f"/><path d="M425.3 280.3 443 407.1l175.3-22.7-22.7-126.3-170.3 22.2z" style="fill:#7ddb9a;stroke:#0062a2;stroke-miterlimit:10"/><path d="m596.8 111.5-176.7 21.2" style="stroke:#2de700;fill:none;stroke-miterlimit:10"/><path d="m472.4 311.9 1.8 8.7 11-1.3-1.7-9-11.1 1.6zm23.8-3.1 1.7 8.7 11-1.2-1.7-9.1-11 1.6zm24-2 1.7 8.7 11-1.2-1.7-9.1-11 1.6zm23-3 1.7 8.7 11-1.2-1.7-9.1-11 1.6zm4 17 1.7 8.7 11-1.2-1.7-9.1-11 1.6zm3 16 1.7 8.7 11-1.2-1.7-9.1-11 1.6zm-26-13 1.7 8.7 11-1.2-1.7-9.1-11 1.6zm3 16 1.7 8.7 11-1.2-1.7-9.1-11 1.6zm-28-14 1.7 8.7 11-1.2-1.7-9.1-11 1.6zm-20 20 1.7 8.7 11-1.2-1.7-9.1-11 1.6zm23-3 1.7 8.7 11-1.2-1.7-9.1-11 1.6zm-26-14 1.7 8.7 11-1.2-1.7-9.1-11 1.6z" style="fill:#fff;stroke-width:0"/></g><g id="rullebånd-Right"><path d="M637.5 255.3 604.3 284l.9 6.6 508.4 78.1 48.3-36-524.3-77.3h-.1Z" class="cls-11"/><path d="m764.1 403 27.7-25.1L774 375l-9.9 8.7V403zm-3.1 27.9v19.4l42.9-39.3-17.9-1-25 20.9z" class="cls-7"/><path d="M784.6 375.9v35.5l17.4.9-18.2 17.2v13l22.6.8v-65.1l-21.8-2.3zm-42.3-10.3v113.8l23.2 2.9V369.8l-23.2-4.2z" class="cls-7"/><path d="m603.8 290.1 10.9 61.3 500.6 73c2.6-1.5 7.5-4.6 10.7-10.5 4.5-9.8 4-27.4-.9-37a25.3 25.3 0 0 0-10.7-9.5l-510.7-77.3Z" class="cls-19"/><path d="m612 244.1-3.8 7.1 550.5 80.1c13.2 13 13.3 41.8-5.6 54.2 3 1.1 17.3-2.4 20.3-10.3-1-6.9 2.2-39-2.3-44.8-182-38.4-373.6-55-559-86.2Z" class="cls-19"/><path d="M1115.3 367.1c13.2 7.1 14.6 23.1 14 37 16.2-14.2 18.8-13.8 30-24 11.5-12.3 12.5-29.5 1-46l-45 33Z" class="cls-11"/><path d="m1067 417.3-1.8 113 22.3 1.8c5-36.2.8-74.6 2.7-111.5l-23.2-3.2Z" class="cls-7"/><path d="m1087.5 472.5 25-19.5v20.4l-25 19.4v-20.3zm2.3-44.2 10.5-6.5 19.7 2.2-30.7 25.2.5-20.9z" class="cls-7"/><path d="M604.4 284c8-11 7.5-24.9 2.5-33l29.5 5.2-32 27.8Z" style="fill:#5e5e5e;stroke-width:0"/></g><path d="m604.3 152 67-54h3.2l-1.2 153.1-69-2v-97Z" class="cls-7"/><path d="m604.3 152 7-5.8V275l-6 5.2-1-128.2zm9-6.9v126.3l7-5-1-126.3-6 5Zm9-7.7v126.8l7-4.8V132.1l-7 5.3Zm11-7.9v126.8l7-4.8v-128l-7 6zm11-9v126.8l7-4.8v-128l-7 6zm10-8v126.8l7-4.8v-128l-7 6zm12-10v126.8l7-4.8 1-126.4a6 6 0 0 0-3 0" class="cls-1"/><g id="right-traffic-color"><path d="m607.6 117.2.5 17.5 58.8-48-.4-15.6-58.9 46.1z" class="cls-4"/><path d="m613.3 117.2.5 9.2 9.6-8-.5-8.6-9.6 7.5Zm19.8-15.2.6 8.5 9.5-7.8-.6-8-9.5 7.3ZM652 87.5l.5 8 8.8-7.2-.5-7.5-8.8 6.7Z" style="fill:#df0;stroke-width:0"/></g><g id="TV"><path d="m463.4 168.3 100.8-11.6 1 62.9-100.8 13.7-1-65z" style="fill:#c4bbbb;stroke:#171300;stroke-miterlimit:10"/><path d="m464.3 168.6-6-5v78l6-4v-69z" class="cls-1"/><path d="m562.9 156.9 6.4-6.8-111.1 13.8 6.4 5.3 98.3-12.3zm6.4 69.7-6-6.5-99 13.2-6 8.3 111-15Z" class="cls-1"/><path d="m563.3 221.7 6 4.9v-76.5l-6 3.9v67.7z" class="cls-1"/></g><g id="left_rullebånd"><path d="M119.3 559.8v110.3h11.1l6.9-6.3 1-118-19 14z" class="cls-7"/><path d="m23.7 573.2 110.6 13.1v15.5L24 587.5l-.3-14.3z" class="cls-7"/><path d="m264.9 301 129.7 16.3-.1 2.7-259.3 200.5-126.9-9L264.9 301z" class="cls-11"/><path d="M287.6 442.2v120.1l-8 5.9h-9.7V455.4l17.7-13.2z" class="cls-7"/><path d="M397.8 314.1v60l-248 198c-18 7.4-19.2-25-18-30 .4-5.5 2-16 10-28l256-200Z" class="cls-14"/><path d="M274.6 489.2 255 488l-13.7 11.1 32.5 2.3.8-12.2Zm-.3 36.8-59-5.9-14 11c24.2 2.6 48.6 5.2 73 8v-13.2Z" class="cls-7"/><path d="M139.8 516.4c-8.6 16.5-13.7 39.4-1.5 54.1L16.8 555.6l-6-8v-39" class="cls-11"/></g><g id="garidner-left"><path d="m229.7 328-.8-163.5L399.3 187l-1 133.1c-6.3-.4-137.4-18.5-139.8-16l-28.8 23.8Z" class="cls-7"/><path d="m242.3 130.4 147 20.2v18.3l-147-19.3v-19.2z" class="cls-4"/><path d="M398.3 373v56.7l-60.5-9.3 60.5-48.4v1z" class="cls-7"/><path d="m264.3 301 109.3-76.4 25.6 6.5c-.6 28-1.2 56-2 84l-133-14Z" style="fill:#444342;stroke-width:0"/><path d="M255.3 137.2v9.5l19 2.5v-9.3l-19-2.7zm47 7v9.5l19 2.5v-9.3l-19-2.7zm47 6v9.5l19 2.5v-9.3l-19-2.7z" style="fill:#d5e53c;stroke-width:0"/><path d="M378.3 184.1c-.4 43.7-.8 87.3-1 131h-16v-133c5.6.6 11.2 1.2 17 2Zm-19.9-2.4-1 131h-16v-133c5.7.6 11.3 1.2 17 2Zm-20-3-1 131h-16v-133c5.7.6 11.3 1.2 17 2Zm-22-3-1 131h-16v-133c5.7.6 11.3 1.2 17 2Zm-21-3-1 131h-16v-133c5.7.6 11.3 1.2 17 2Zm-21-2-1 131h-16v-133c5.7.6 11.3 1.2 17 2Zm125 16-1 131h-16v-133c5.7.6 11.3 1.2 17 2Zm-146.1-19-1 131h-15.9v-133c5.6.6 11.2 1.2 17 2Z" style="fill:#000;stroke-width:0"/></g><path id="green-patch-left" d="M254.8 302.6h8l-252 206v39l6 8c-4.2 6.5-14.4 4.6-16-3 .8-5.4-2.5-46.6 3-50 8.7-9 73-58 251-200Z" class="cls-14"/><path id="stripes-rullebånd" d="m256.6 307.8-2.4 2 125.9 18.1 3.1-2.4-126.6-17.7zm-13 11.7-2.4 2 125.9 18.1 3.1-2.4-126.6-17.7zm-87.2 71-2.3 1.9 120.2 17.7 3-2.4-120.9-17.2zm69.1-58-2.4 2 126 18.2 3.1-2.5-126.7-17.7zm-16 14-2.4 2.1 123.2 18.5 3-2.5-123.8-18.1zm-34.1 27.9-2.3 2 121.2 17.7 3-2.4-121.9-17.3zm15.4-12.9-2.4 2 122.9 18.6 3-2.5-123.5-18.1zm-54.1 45.4-2.3 2 118 18.2 2.9-2.4-118.6-17.8zm-26 20-2.3 2 120 18.2 2.9-2.4-120.6-17.8zm-22.1 20-2.2 1.9 116 17.3 2.9-2.3-116.7-16.9zM63.7 467l-2.2 1.7 116.9 16.4 2.9-2.2L63.7 467zm-26.2 20.1-2.2 1.9 116.1 17.1 2.9-2.3-116.8-16.7zm-23.2 19-4 3.6 126 14.5c.2-.7.5-1.4 1-2-41-5.4-82-10.8-123-16Zm-3 25v3.2L131.7 547l.5-2.5-120.9-13.4z" class="cls-8"/><path id="right-stripes" d="m603.5 289.6 35.7-34 1.4.5a11065 11065 0 0 0-35 34c-.7 0-1.5-.3-2.2-.4h.1Zm21.6 2.4 35.7-34.2 1.5.6a11065 11065 0 0 0-35 34c-.7 0-1.5-.3-2.2-.4Zm20.4 3.2 35.7-34 1.4.5a11065 11065 0 0 0-35 34c-.7 0-1.5-.3-2.2-.4Zm21.6 4.8 35.7-34.2 1.5.6a11065 11065 0 0 0-35 34c-.7 0-1.5-.3-2.2-.4Zm23.7 2.5 35.7-34 1.4.5a11065 11065 0 0 0-35 34c-.7 0-1.5-.3-2.2-.4Zm19.7 2.8 35.7-34 1.4.5a11065 11065 0 0 0-35 34c-.7 0-1.5-.3-2.2-.4Zm24.8 3.8 35.7-34 1.4.5a11065 11065 0 0 0-35 34c-.7 0-1.5-.3-2.2-.4Zm22.2 3.9 35.7-34.2 1.4.6a11065 11065 0 0 0-35 34c-.7 0-1.5-.3-2.2-.4h.1Zm24.8 4.1 36.2-35.6 1.4.6-35.6 35h-2Zm25 3 35.6-34.9 1.4.6-35 34.2h-2v.1Zm23 4 36.3-35.6 1.3.6-35.7 35h-2Zm25 4 36.8-35.7 1.3.6-36.2 35.1h-2Zm24.7 3.2c12-11.8 24.2-23.5 36.3-35.2l1 1-35.1 34.7c-.8 0-1.6-.3-2.3-.4Zm28.3 4.8 36.2-35.7 1.4.6-35.6 35.1h-2Zm29.2 3.7 35.7-34.2 1.4.6a11065 11065 0 0 0-35 34c-.7 0-1.5-.3-2.2-.4h.1Zm27.8 4.3L1001 310l1.4.6a11065 11065 0 0 0-35 34c-.7 0-1.5-.3-2.2-.4Zm31 5 37.4-36 1.4.6-36.8 35.4h-2Zm28 4 37-35.9 1.4.6-36.5 35.3h-2Zm30 5 37-36h2l-37 36h-2Zm34 5 37-36h2l-37 36h-2Zm25 4.3 42-36.3h2l-42 37-2-.7Zm13 14.6 40-35.9v2l-39 35.8-1-2Z" class="cls-8"/></g></g></svg>