<svg xmlns="http://www.w3.org/2000/svg" id="Layer_2" data-name="Layer 2" version="1.1" viewBox="0 0 345 291.9"><defs><style>.cls-1,.cls-10,.cls-11,.cls-2,.cls-3,.cls-4,.cls-5,.cls-6,.cls-7,.cls-8,.cls-9{stroke-miterlimit:10}.cls-1,.cls-10,.cls-11,.cls-2,.cls-3,.cls-5,.cls-6,.cls-8,.cls-9{fill:none}.cls-1,.cls-10,.cls-2,.cls-3,.cls-5{stroke:#33215e}.cls-1,.cls-9{stroke-width:.8px}.cls-16,.cls-17,.cls-19,.cls-23,.cls-24{isolation:isolate}.cls-17,.cls-24,.cls-27{fill:#fff}.cls-17,.cls-24{font-family:Arial-ItalicMT,Arial;font-style:italic}.cls-24{font-size:7.6px}.cls-2{stroke-width:.2px}.cls-28{fill:#1a1e56}.cls-27,.cls-28,.cls-29,.cls-30,.cls-31,.cls-32,.cls-33,.cls-34,.cls-35{stroke-width:0}.cls-3{stroke-width:.9px}.cls-29{fill:#ffb9a4}.cls-16,.cls-23{fill:#000;font-family:BrushScriptMT,&quot;Brush Script MT&quot;}.cls-16{font-size:5.3px}.cls-30{fill:#e26f42}.cls-4{fill:#b1c7c9}.cls-4,.cls-6,.cls-7{stroke-width:.2px}.cls-4,.cls-7{stroke:#000}.cls-17{font-size:6.6px}.cls-5{stroke-width:.1px}.cls-11,.cls-6,.cls-8,.cls-9{stroke:#ffb9a4}.cls-23{font-size:4.7px}.cls-31{fill:#e86321}.cls-32{fill:#aaa}.cls-7{fill:#fcfcfc}.cls-33{fill:#9e9d9d}.cls-34{fill:#a3d3d8}.cls-8{stroke-width:.5px}.cls-10{stroke-width:.6px}.cls-35{fill:#75b2bc}</style></defs><g id="Layer_1-2" data-name="Layer 1-2"><g id="fish-package"><path d="M166.3 26.7c.3-3.9-7.3-26.3-21.6-26.6l-129 46.1C2.5 50.4-2.9 69 1.7 78.8l51 188.6c.7 14.3 16.3 20.5 25.1 14.5l125.5-44.8c1.8-.8 7.2-3.5 10.6-9.9a25.3 25.3 0 0 0 1-20.4L166.2 26.9Z" class="cls-4"/><path d="M160.2 34.4c.5-6.5-8.2-21.5-18.4-22.6L20.4 54.7C12.4 56.4 5.5 65 8.9 73.3l48.6 182.3c0 1 .5 9.8 7.4 14.4 4.3 2.9 8.8 2.6 10.4 2.4l120.4-42.5c7.1-2.9 14.4-17.2 9.3-26.9L160 34.5Z" class="cls-35"/><path d="M149.2 42.7c-1.3-5.1-4-12.4-9.6-14.2C76.6 42.5 50 58 34.3 63.6c-9 2.9-11.2 17-9.4 20.9l42 157.5c.5 1.9 2.4 8.9 8.8 12.9 3 1.9 5.8 2.5 7.8 2.6l96.4-34c1-.4 7.1-2.7 10.3-9.7 3.4-7.3 1-14 .6-15l-41.6-156Z" class="cls-34"/><path d="m25.4 168 21.1 79.1 163.9-57.9-21.1-79.1L25.4 168z" class="cls-7"/><path d="m34.5 202.2 12 44.9 163.9-57.9-11.9-44.9-164 57.9z" class="cls-28"/><g class="cls-19"><text class="cls-19" style="fill:#f96f23;font-size:8px;font-family:ArialMT,Arial;isolation:isolate" transform="rotate(-19.4 735.8 -19.6) skewX(-4.4)"><tspan x="0" y="0">BONELESS STEAK</tspan></text></g><path d="M51.7 177.5c9.2 5.8 14.2 24.7 8.9 33.3 9.4-6.1 11.7-17.7 21.9-19.9 2.5.8 1.9 4.3-.8 4.7l8.4 6.3 6.6-7h13.4l-1.3 7.6 9-8.9c20.6-6.8 39.2-15.1 50.3-33l-8.9 3.6 7.3-9.3c-19 7.4-34.5-8.8-50.9 1.7l-14.8-6.9-2.3 13h3.8c-7.9 5.9-15.1 14.6-25.3 13.8l1.4 4.4-7.6 1.9-19.3-5.4Z" class="cls-33"/><g class="cls-19"><text class="cls-19" style="font-size:10.3px;font-family:ArialMT,Arial;fill:#fff;isolation:isolate" transform="matrix(.8489004 -.29894502 .25341102 .97095495 83.7 190.8)"><tspan x="0" y="0">Norwegian Salmon</tspan></text></g><path d="m163.8 185.6 4.4 16.7 41.4-14.6-4.5-16.7-41.3 14.6z" class="cls-32"/><path d="m164.8 186.2 3.9 14.8 22.6-8-3.9-14.8-22.6 8z" class="cls-27"/><path d="m169.3 199.5-3.4-12.5m4 12.2-3.3-12.4" class="cls-2"/><path d="m171.3 198.8-3.3-12.5" class="cls-1"/><path d="m172.5 198.4-3.3-12.5" class="cls-2"/><path d="m172.9 198.2-3.3-12.5" class="cls-5"/><path d="m174.1 197.8-3.3-12.5" class="cls-10"/><path d="m175.4 197.3-3.3-12.4m3.6 12.3-3.3-12.4m3.7 12.3-3.3-12.5m4.7 12-3.3-12.5m3.7 12.3-3.3-12.4m3.7 12.3-3.3-12.4" class="cls-5"/><path d="m179.7 195.8-3.3-12.4" class="cls-3"/><path d="m176.8 196.8-3.3-12.4m10 10.1-3.3-12.5" class="cls-2"/><path d="m189.7 192.3-3.3-12.5m-2 14.3-3.3-12.4" class="cls-5"/><path d="m185.7 193.7-3.3-12.5" class="cls-3"/><path d="m187.3 193.1-3.3-12.4m4.5 12-3.3-12.4m-3.9 14.9-3.3-12.4m4.4 12.1-3.3-12.5" class="cls-2"/><g class="cls-19"><g class="cls-19"><text class="cls-16" transform="matrix(1.03754492 -.36537725 .26142842 .96813158 190.5 182.4)"><tspan xml:space="preserve" x="0" y="0"> Ready </tspan></text></g><text class="cls-19" style="letter-spacing:0;font-size:5.3px;fill:#000;font-family:BrushScriptMT,&quot;Brush Script MT&quot;;isolation:isolate" transform="matrix(1.03754492 -.36537725 .26142842 .96813158 192.1 188.5)"><tspan x="0" y="0">T</tspan></text><g class="cls-19"><text class="cls-16" transform="matrix(1.03754492 -.36537725 .26142842 .96813158 195.2 187.4)"><tspan x="0" y="0">o Cook</tspan></text></g></g><path d="m34.5 164.7 2.9 10.9 40.5-14.4-2.8-10.8-40.6 14.3z" class="cls-31"/><g class="cls-19"><g class="cls-19"><text class="cls-24" transform="matrix(1.03754492 -.36537725 .25778899 .96941322 40.6 171.1)"><tspan x="0" y="0">W</tspan></text></g><g class="cls-19"><text class="cls-24" transform="matrix(1.03754492 -.36537725 .25778899 .96941322 47.5 168.6)"><tspan x="0" y="0">i</tspan></text></g><g class="cls-19"><text class="cls-24" transform="matrix(1.03754492 -.36537725 .25778899 .96941322 49.3 168)"><tspan x="0" y="0">l</tspan></text></g><text class="cls-19" style="letter-spacing:0;font-size:7.6px;font-family:Arial-ItalicMT,Arial;font-style:italic;fill:#fff;isolation:isolate" transform="matrix(1.03754492 -.36537725 .25778899 .96941322 51.1 167.3)"><tspan x="0" y="0">d</tspan></text><text class="cls-19" style="font-size:7.6px;font-family:Arial-ItalicMT,Arial;font-style:italic;fill:#fff;isolation:isolate;letter-spacing:0" transform="matrix(1.03754492 -.36537725 .25778899 .96941322 57.6 165.1)"><tspan x="0" y="0">F</tspan></text><g class="cls-19"><text class="cls-24" transform="matrix(1.03754492 -.36537725 .25778899 .96941322 61.9 163.6)"><tspan x="0" y="0">i</tspan></text></g><g class="cls-19"><text class="cls-24" transform="matrix(1.03754492 -.36537725 .25778899 .96941322 63.7 162.9)"><tspan x="0" y="0">sh</tspan></text></g></g><path d="M60.3 156.1C20 50 135.4 0 161 120.6L60.3 156.1Z" class="cls-30"/><path d="M96.5 90.4c-13.6 3.6-20.8-.8-31.3 6.4-8.9 6.5-10.9 14.2-5.9 20.9 6.1 4.6 17.8-11.6 41.1-17.7 19.9-5.2 35.1.5 40.6-8.3 5.3-7.1-2.3-15.8-10.4-16.7-11.8-2.2-15.5 10.6-34.1 15.4Z" class="cls-9"/><path d="M93.8 74.7c-7.1 1.9-10.9-.2-16.4 3.5-4.7 3.4-5.8 7-3.2 10.5 3.2 2.3 9.4-6 21.6-9.2 10.5-2.8 18.3 0 21.3-4.5 2.8-3.5-1.2-8-5.3-8.3-6.1-1-8.2 5.4-18 8Z" class="cls-8"/><path d="m103.4 140.9 1.6-6.6c-5.9-5.8 2.3-11.2-1.4-20.1-1.7-8.3-4.1-10.6-6.3-17.9-2.7-9 0-8.8-2.7-17a102 102 0 0 0-14.2-24.2l16.1-5.7c-6.4 28.3 9.5 44.7 11.6 68.9 5.7 3.1 7.3 12 11.3 16.8l-16.1 5.7Z" class="cls-29"/><path d="M80.5 55.1c-26.8 13-30.3 62.3-27.7 73.4l7.3 27.2L161 120.6c-14.2-50-40.4-82.5-80.5-65.5Z" class="cls-8"/><path d="M68.1 67.3c14.3 7 35.2-2.6 41.7-14.1M58.3 83l14 1.2m52.5-26.1-8.7 10.3m-60.7 66.8c2.7-11.9 18-17.5 23.5-16.3 9.6 2.6 16.7 1.8 23.6-4.3m3.6 4.1c2.7-11.9 18-17.5 23.5-16.3 9.6 2.6 16.7 1.8 23.6-4.3m-89.4-26c3.8 14.4 8.1-4.5 17.9 4.2M116 53.7c6.7 10.5-7.8-.2-5.8 11.5M66.5 115c-.6-5.1 6.2-13.6 11.3-13.9 8.7-1.1 11.9 2.1 18.3-7.3m6-1.1c18.8 7.8 18-16.8 37.6-1.3" class="cls-6"/><path d="M104.2 121.2c-13.6 3.6-20.8-.8-31.3 6.4-8.9 6.5-10.9 14.2-5.9 20.9 6.1 4.6 17.8-11.6 41.1-17.7 19.9-5.2 35.1.5 40.7-8.3 5.3-7.1-2.3-15.8-10.4-16.7-11.8-2.2-15.5 10.6-34.1 15.4Z" class="cls-11"/></g><g id="fish-package-2"><path d="M304.7 58.3c.4-4-6.4-23.4-20.8-22.9L146.6 81.5c-11.7 3.2-21.5 19-16.7 29.6l40.9 166.3c.1 14.5 17.8 16.8 25.2 12l133.6-44.9a27 27 0 0 0 11.7-9.2 20 20 0 0 0 2.4-18.3L304.6 58.3Z" class="cls-4"/><path d="M297.9 65.4c.8-6.6-7.6-18.9-17.7-19.4L151 89c-7 1.4-16.4 8.9-13.2 17.1l38.9 160.8c-.8 7 7 16.5 17.5 14.2l128.2-42.6c1.1-.6 8.7-4.5 11.6-12.4 2.1-5.9.4-10.5-.2-11.9l-36-148.6Z" class="cls-35"/><path d="M285.9 73.3c-.9-7.4-7.8-15.4-15.9-11.9-73.3 21.7-83.8 26.5-105.1 35-8.7 2.5-12.9 14.5-11.1 19l33.6 138.9a16.6 16.6 0 0 0 16.2 13.2l102.6-34.1c1.1-.4 7.5-2.7 11.3-9 4-6.7 2-12.6 1.6-13.4L285.8 73.4Z" class="cls-34"/><path d="m148.8 189.9 16.9 69.7 174.5-58-16.9-69.8-174.5 58.1z" class="cls-7"/><path d="m156.1 220.1 9.6 39.5 174.5-58-9.6-39.6-174.5 58.1z" class="cls-28"/><g class="cls-19"><text class="cls-19" style="font-size:7px;fill:#f96f23;font-family:ArialMT,Arial;isolation:isolate" transform="matrix(1.13865121 -.37877884 .23802358 .97469856 167.9 256.1)"><tspan x="0" y="0">BONELESS STEAK</tspan></text></g><path d="M175.6 197.4c9.2 4.6 13.2 22 7.1 29.4 10-5.7 13.7-16.4 24.1-18.6 2.7.7 1.6 3.8-1.1 4.2l8.3 5.3 7.3-6.5 13.9-.6-1.9 6.9 10-8.3c8.6-2.5 15.7-5.3 20.9-7.6a79.2 79.2 0 0 0 33.6-23.8l-9.5 3.6 8.2-8.6c-19.8 7.3-35.9-6.4-53.1 3.5l-14.9-5.6-3.3 11.7 3.9-.2c-8.7 5.6-16.8 13.6-27.3 13.4l1.2 3.9-8 2-19.7-4Z" class="cls-33"/><g class="cls-19"><text class="cls-19" style="font-family:ArialMT,Arial;font-size:9.1px;fill:#fff;isolation:isolate" transform="rotate(-18.4 746.2 -538.4) skewX(-4.7)"><tspan x="0" y="0">Norwegian Salmon</tspan></text></g><path d="m291.8 200.2 3.6 14.7 44-14.6-3.6-14.8-44 14.7z" class="cls-32"/><path d="m292.8 200.7 3.2 13.1 24-8-3.1-13.1-24.1 8z" class="cls-27"/><path d="m296.6 212.4-2.6-11m3.3 10.7-2.6-10.9" class="cls-2"/><path d="m298.8 211.6-2.6-10.9" class="cls-1"/><path d="m300.1 211.2-2.7-10.9" class="cls-2"/><path d="m300.5 211.1-2.6-11" class="cls-5"/><path d="m301.8 210.6-2.6-10.9" class="cls-10"/><path d="m303.2 210.2-2.7-11m3 10.9-2.6-11m3 10.9-2.6-11m4.1 10.4-2.7-10.9m3.1 10.8-2.6-11m3.1 10.9-2.7-11" class="cls-5"/><path d="m307.8 208.7-2.7-11" class="cls-3"/><path d="m304.7 209.7-2.7-11m9.8 8.7-2.7-11" class="cls-2"/><path d="m318.4 205.1-2.6-10.9m-3 12.8-2.7-11" class="cls-5"/><path d="m314.2 206.5-2.7-10.9" class="cls-3"/><path d="m315.8 206-2.6-11m3.9 10.6-2.7-11m-5 13.5-2.6-11m3.8 10.6-2.6-10.9" class="cls-2"/><g class="cls-19"><g class="cls-19"><text class="cls-23" transform="matrix(1.32842642 -.44190865 .234399 .9759043 319.8 196.3)"><tspan xml:space="preserve" x="0" y="0"> Ready </tspan></text></g><text class="cls-19" style="font-size:4.7px;letter-spacing:0;fill:#000;font-family:BrushScriptMT,&quot;Brush Script MT&quot;;isolation:isolate" transform="matrix(1.32842642 -.44190865 .234399 .9759043 321.1 201.7)"><tspan x="0" y="0">T</tspan></text><g class="cls-19"><text class="cls-23" transform="matrix(1.32842642 -.44190865 .234399 .9759043 324.5 200.6)"><tspan x="0" y="0">o Cook</tspan></text></g></g><path d="m158.5 186.6 2.3 9.6 43.2-14.4-2.3-9.5-43.2 14.3z" class="cls-31"/><g class="cls-19"><g class="cls-19"><text class="cls-17" transform="matrix(1.23353882 -.41034375 .23804135 .97469265 164.5 192)"><tspan x="0" y="0">W</tspan></text></g><g class="cls-19"><text class="cls-17" transform="matrix(1.23353882 -.41034375 .23804135 .97469265 171.8 189.6)"><tspan x="0" y="0">i</tspan></text></g><g class="cls-19"><text class="cls-17" transform="matrix(1.23353882 -.41034375 .23804135 .97469265 173.8 188.9)"><tspan x="0" y="0">l</tspan></text></g><text class="cls-19" style="letter-spacing:0;font-size:6.6px;font-family:Arial-ItalicMT,Arial;font-style:italic;fill:#fff;isolation:isolate" transform="matrix(1.23353882 -.41034375 .23804135 .97469265 175.7 188.3)"><tspan x="0" y="0">d</tspan></text><text class="cls-19" style="letter-spacing:0;font-size:6.6px;font-family:Arial-ItalicMT,Arial;font-style:italic;fill:#fff;isolation:isolate" transform="matrix(1.23353882 -.41034375 .23804135 .97469265 182.6 186)"><tspan x="0" y="0">F</tspan></text><g class="cls-19"><text class="cls-17" transform="matrix(1.23353882 -.41034375 .23804135 .97469265 187.1 184.5)"><tspan x="0" y="0">i</tspan></text></g><g class="cls-19"><text class="cls-17" transform="matrix(1.23353882 -.41034375 .23804135 .97469265 189.1 183.8)"><tspan x="0" y="0">sh</tspan></text></g></g><path d="M186 177.9c-35.4-91.6 87.4-143.4 107.2-35.7L186 177.8Z" class="cls-30"/><path d="M227.9 117.8c-14.4 3.7-21.6.1-33 6.9-8.9 5.5-12.6 12.8-7.5 18.8 6 3.9 19.3-11 44-17.4 21.1-5.4 36.5-.9 42.9-9 6-6.8-1.4-13.9-9.8-14.5-12.1-1.5-16.9 10-36.6 15.1Z" class="cls-9"/><path d="M226.1 104c-7.6 2-11.3.2-17.4 3.7-4.8 3-6.6 6.2-4 9.5 3.1 1.9 10.2-5.7 23.1-9.1 11.1-2.9 19.1-.8 22.5-4.9 3.2-3.3-.7-7.1-5-7.2-6.3-.6-8.9 5.2-19.3 7.9Z" class="cls-8"/><path d="m231.9 162.7 2.1-5.9c-5.9-5 3-9.6-.1-17.9-1.2-7.3-3.6-9.3-5.4-15.7-2.2-7.9.7-7.9-1.7-15.1A77.5 77.5 0 0 0 213.6 87l17.1-5.7c-8.5 25.2 6.9 39.2 7.6 61.1 5.6 2.4 6.9 10.4 10.7 14.6l-17.1 5.7Z" class="cls-29"/><path d="M213.6 87c-37.8 21.9-36.9 63.7-27.7 90.6l107.3-35.2c-11.5-47.8-42.4-71.5-79.6-55.3Z" class="cls-8"/><path d="M199.9 98.4c14.1 5.8 37.3-3.9 44.4-14.2m-55.7 28.5 14.5.6m56.3-25.4-9.8 9.6m-67.4 62c3.7-11.1 20.5-16.4 25.6-15.5 9.5 2 18 .7 24.9-4.8m3.4 3.6c3.7-11.1 20.5-16.4 25.6-15.5 9.5 2 18 .7 24.9-4.8M195 102.8c2.9 12.7 9.1-4.4 18.3 3.1m37.3-21.6c6.3 9.1-8.1.1-6.7 10.5M195.1 141c-.4-4.9 8.3-12.8 12.6-12.9 9-1.3 12.2 1.4 19.5-7.3m6.4-1.1c18.2 6.3 20.2-15.6 39.3-2.7" class="cls-6"/><path d="M233.9 145.1c-14.4 3.7-21.6.1-33 6.9-8.9 5.5-12.6 12.8-7.5 18.8 6 3.9 19.3-11 44-17.4 21.1-5.4 36.5-.9 42.9-9 6-6.8-1.4-13.9-9.8-14.5-12.1-1.5-16.9 10-36.6 15.1Z" class="cls-11"/></g></g></svg>