<svg xmlns="http://www.w3.org/2000/svg" id="Layer_2" viewBox="0 0 397.9 83.8"><defs><style>.cls-1{fill:#000}.cls-1,.cls-2{stroke-width:0}.cls-3,.cls-4,.cls-5,.cls-7{stroke:#000;stroke-miterlimit:10}.cls-3{fill:#fff}.cls-4{fill:none}.cls-5{fill:#a6babc}.cls-7{fill:#b1a051}.cls-2{fill:#d3a95e}</style></defs><g id="Layer_2-2"><g id="Layer_1-2"><path d="M151.7 52.7A56.6 56.6 0 0 1 204.9 34c16.6 5.9 21-1 32.6-10.4-1.6 13.8-2.3 10.7 2.6 23.8-21.7-6-27.7 6-47.2 13.7-8.3 1.6-40 3.3-41.2-8.5Z" class="cls-5"/><path d="m226.2 34.3 10.6-7.4m-9.4 8.9 9.2-4.2m-7.9 7.9 7.9-.8" class="cls-4"/><path d="M236.2 35.3c-28.8 10.8-59.6 24.4-84.5 17.4a53.1 53.1 0 0 1 47.6-19.3c11.2-.3 16.4 6.6 26 .1l3 4.2" class="cls-2"/><path d="m228.7 42 9.8 1.1m-10.1.7 11.4 2.8" class="cls-4"/><path d="M157.7 48.8c1.8 0 1.8 3.8 0 3.8s-1.8-3.8 0-3.8Z" class="cls-3"/><path d="M157.7 50.2c.5 0 .5 1 0 1s-.5-1 0-1Z" class="cls-1"/><path d="M163 60.6c3.1-1.5 4.2-11 2.3-13.2M151.6 53l6.2 3.2-.3 1.8-5.8-4.2-.1-.8zm17.6 8.8c6.4-2.2 6.3-14.3 2-16.8a80 80 0 0 1 27.8-5.3c6.6 1.5 16.2 3.5 22 1.3" class="cls-4"/><path d="M169.6 38c.4-3 4.7-10 7.7-11.4 1.8 3.1 5.1 3.5 7.7 6.4l5.6-7.5a45 45 0 0 1 16.6 5.8l-1.3 2.5a69.7 69.7 0 0 0-36.3 4.2Z" class="cls-7"/><path d="m172.4 36.9 5.6-9.3m-2.5 8.3 4-6.8m-.8 5.9 2.6-4.9m.1 4.3 1.4-3.2m.8 2.7.7-1.5m2.9.9 5.1-7.3m-2.5 7 4.7-6.8m-2.1 6.8 4.2-6.3m-1.5 6 3.3-5.4m-.9 5.7 2.9-5m-.6 5.1 2.4-4.3m-.1 4.5 1.8-3.7m.3 3.8 1.4-3M177 51.2c2.4 0 4.3 5.5 2.6 7.9" class="cls-4"/><path d="M177.3 51.4a28.1 28.1 0 0 1 14.5-5.1l-5.6 7.3-6 1.5c-.2-1-1.9-3.3-3-3.7Z" class="cls-7"/><path d="M178.6 52.4c2.7-2.2 8.6-4.6 12-4.7m-11.3 5.7a28 28 0 0 1 10-3.9m-9.4 4.8c1.9-1.2 5.5-2.4 7.6-2.5" class="cls-7"/><path d="M125.2 44.3a36 36 0 0 1 35.5-13.5c10.8 4.4 14.4-1.1 21.7-7.6-1 9.2-1.5 8.6 1.7 17.3-13.8-4.5-19.1 4.7-31.4 10-6.3 1.2-26.3 2.5-27.5-6.2Z" class="cls-5"/><path d="m174.9 30.9 7-5.3m-6.3 6.4 6.2-3m-5.3 5.8 5.3-.6" class="cls-4"/><path d="M181.5 31.7c-19 7.8-39.5 17.7-56.3 12.6a33.7 33.7 0 0 1 31.8-14c7.4-.2 11 4.8 17.3 0l2 3.1" class="cls-2"/><path d="m176.5 36.5 6.6.8m-6.8.6 7.6 2" class="cls-4"/><path d="M129.3 41.5c1.1 0 1.1 2.8 0 2.7-1.2 0-1.2-2.7 0-2.7Z" class="cls-3"/><path d="M129.3 42.5c.3 0 .3.8 0 .8-.4 0-.4-.8 0-.8Z" class="cls-1"/><path d="M132.8 50.1c2-.8 2.7-8.5 1.5-9.6m-9.1 4 4.1 2.4-.2 1.3-3.8-3-.1-.7zM137 51c4.1-1.6 4.1-10.5 1.2-12.3 20-8 19.5-.3 33.2-3" class="cls-4"/><path d="M137.2 33.6c.3-2 3-7.2 5-8.3 1.2 2.3 3.5 2.6 5.2 4.7l3.7-5.5c3.6.4 8.3 2.4 11 4.3l-.8 1.8c-6.2-1.4-17-.5-24.1 3Z" class="cls-7"/><path d="m139 32.8 3.8-6.7m-1.7 6 2.7-5m-.6 4.3 1.7-3.5m.1 3.1.9-2.3m.6 2 .5-1.2m1.9.7 3.4-5.3m-1.6 5 3-4.9m-1.4 5 2.8-4.6m-1 4.4 2.3-4m-.6 4.2 1.9-3.6m-.4 3.7 1.6-3.2m-.1 3.3 1.2-2.7m.2 2.8.9-2.2m-19 15.2c1.7 0 2.8 4 1.7 5.7" class="cls-4"/><path d="M142.3 43.4c2.3-2 7-3.8 9.6-3.8l-3.7 5.4-4 1.1c-.1-.7-1.2-2.4-2-2.7Z" class="cls-7"/><path d="M143.2 44.1a15 15 0 0 1 8-3.4m-7.6 4.1c1.7-1.2 4.7-2.5 6.7-2.8m-6.3 3.5c1.2-.9 3.6-1.8 5.1-1.8" class="cls-7"/><path d="M196.4 58.5c6.8-12.3 22.4-18.3 32.4-15 10.3 5 13.5-2 19.8-8.4l-1 10.2 2.5 9c-13.1-5-17.5 5.4-28.6 11.2-6.4 1.4-24.2 2.3-25-7h-.1Z" class="cls-5"/><path d="m241.7 43.6 6.4-5.9m-5.7 7.1 5.6-3.3m-4.8 6.4 4.8-.7" class="cls-4"/><path d="M247.7 44.5c-17.2 8.5-35.5 19.7-51.3 14 8.4-14.4 21.5-17 29-15.5 6.8-.2 10 5.2 15.7 0l1.8 3.4" class="cls-2"/><path d="m243.2 49.9 6 .9m-6.2.6 6.9 2.2" class="cls-4"/><path d="M200 55.4c1.1 0 1.1 3 0 3-1 0-1-3 0-3Z" class="cls-3"/><path d="M200 56.5c.4 0 .4.9 0 .9-.3 0-.3-1 0-1Z" class="cls-1"/><path d="M203.3 65c1.8-.8 2.5-9.7 1.4-10.8m-8.3 4.6 3.7 2.6-.1 1.5-3.6-3.4v-.7zM207 66c3.9-1.6 3.8-12 1.2-13.7 19-9 17.7-.2 30.3-3.2" class="cls-4"/><path d="M207.3 46.6c.2-2.1 2.7-7.8 4.6-9.2 1 2.4 3.2 3 4.7 5.2l3.4-6c3.4.4 7.6 2.5 10.1 4.6l-.7 2a32.4 32.4 0 0 0-22.1 3.4Z" class="cls-7"/><path d="m209 45.8 3.4-7.5m-1.5 6.6 2.4-5.5m-.5 4.8 1.6-3.9m0 3.4.9-2.5m.5 2.2.4-1.3m1.8.7 3.1-5.9m-1.5 5.7 2.8-5.5m-1.3 5.5 2.6-5.1m-.9 4.9 2-4.4m-.6 4.6 1.8-4m-.4 4.1 1.5-3.5m-.1 3.7 1.1-3.1m.2 3.1.9-2.4m-17.4 16.9c1.7.2 2.5 4.6 1.6 6.3" class="cls-4"/><path d="M212 57.5c2-2.1 6.3-4.2 8.8-4.2l-3.4 6-3.7 1.2c-.1-.7-1-2.6-1.8-3Z" class="cls-7"/><path d="M212.8 58.3a13 13 0 0 1 7.2-3.8m-6.8 4.5c1.5-1.2 4.2-2.7 6-3m-5.7 3.9c1.1-1 3.3-2 4.7-2" class="cls-7"/><path d="M239 65.1a56.6 56.6 0 0 1 53.2-18.5c16.6 5.8 20.9-1 32.6-10.4-1.7 13.7-2.4 10.6 2.5 23.7-21.7-6-27.7 6-47.2 13.8-8.3 1.5-40 3.2-41.2-8.6Z" class="cls-5"/><path d="m313.4 46.7 10.6-7.3m-9.4 8.8 9.3-4.2m-8 8 8-.8" class="cls-4"/><path d="M323.4 47.8C294.7 58.5 264 72 239 65a53.1 53.1 0 0 1 47.7-19.2c11.2-.3 16.4 6.5 26 0l2.9 4.3" class="cls-2"/><path d="m316 54.4 9.8 1.1m-10.2.8 11.5 2.8" class="cls-4"/><path d="M245 61.3c1.7 0 1.7 3.8 0 3.7-1.9 0-1.9-3.8 0-3.7Z" class="cls-3"/><path d="M245 62.6c.4 0 .4 1 0 1-.6 0-.6-1 0-1Z" class="cls-1"/><path d="M250.2 73c3.1-1.5 4.2-11 2.4-13.2m-13.7 5.6 6.1 3.2-.2 1.9-5.9-4.2v-.9zm17.6 8.9c6.3-2.3 6.2-14.3 1.9-16.8 10.4-3.3 19-5.8 27.8-5.4 6.6 1.5 16.3 3.5 22 1.3" class="cls-4"/><path d="M256.9 50.4c.4-2.9 4.7-10 7.6-11.3 1.8 3 5.1 3.5 7.7 6.4l5.6-7.5c5.3.5 12.4 3.1 16.6 5.8l-1.2 2.5c-9.3-2-25.6-.7-36.3 4Z" class="cls-7"/><path d="m259.6 49.4 5.7-9.3m-2.5 8.2 4-6.8m-.9 5.9 2.6-4.8m.1 4.2 1.4-3.1m.8 2.7.8-1.6m2.8.9 5.1-7.2m-2.4 6.9 4.6-6.8m-2.1 6.8 4.2-6.2m-1.5 5.9 3.4-5.3m-.9 5.6 2.9-4.9m-.6 5.1 2.4-4.4m-.2 4.6 1.9-3.8m.2 3.8 1.4-2.9m-28.5 20.8c2.3 0 4.3 5.4 2.5 7.8" class="cls-4"/><path d="M264.5 63.9a28.1 28.1 0 0 1 14.5-5.2l-5.6 7.3-6 1.6c-.2-1-1.8-3.3-2.9-3.7Z" class="cls-7"/><path d="M265.8 64.9a25 25 0 0 1 12-4.8m-11.2 5.7a28 28 0 0 1 9.9-3.8m-9.5 4.8c2-1.3 5.6-2.5 7.8-2.5" class="cls-7"/><path d="M337.9 75.3c7.8-13 24.9-18.8 35.7-15.4 11.3 5 14.6-1.7 21.8-8.7-1 10.2-1.5 9.9 1.7 19.8-14.4-5.2-19.2 5.4-31.6 11.4-6.7 1.4-26.6 2.6-27.6-7.1Z" class="cls-5"/><path d="m387.8 60 7.1-6.1m-6.3 7.3 6.2-3.5m-5.4 6.6 5.4-.6" class="cls-4"/><path d="M394.5 60.9c-19 8.8-39.4 20.2-56.6 14.4a32 32 0 0 1 32-16c7.4-.2 11 5.4 17.3 0l2 3.6" class="cls-2"/><path d="m389.5 66.4 6.6.9m-6.8.6 7.6 2.4" class="cls-4"/><path d="M342 72c1.1 0 1.1 3.3 0 3.2-1.3 0-1.3-3.1 0-3.1Z" class="cls-3"/><path d="M342 73.2c.3 0 .3 1 0 .9-.4 0-.4-1 0-.9Z" class="cls-1"/><path d="M345.5 82c2-1 2.7-10 1.5-11.1m-9.1 4.6 4.1 2.7-.2 1.6-3.9-3.5v-.8zm11.8 7.5c4.2-1.8 4.1-12.2 1.3-14 20.8-9.4 19.4-.3 33.3-3.5" class="cls-4"/><path d="M350 63c.2-2.2 2.9-8 5-9.4 1.1 2.4 3.5 3 5.2 5.3l3.7-6.2a25 25 0 0 1 11.2 4.8l-.9 2.1A38 38 0 0 0 350 63Z" class="cls-7"/><path d="m351.7 62.2 3.8-7.8m-1.6 6.9 2.6-5.7m-.5 5 1.7-4.1m.1 3.5.9-2.6m.6 2.3.5-1.3m1.9.7 3.4-6m-1.7 5.8 3.2-5.7m-1.5 5.7 2.9-5.2m-1 4.9 2.2-4.4m-.6 4.7 2-4.1m-.5 4.2 1.7-3.6m-.2 3.8 1.3-3.2m.1 3.2 1-2.4m-19.1 17.3c1.8.1 2.8 4.8 1.7 6.5" class="cls-4"/><path d="M355 74.2c2.3-2.2 7-4.3 9.8-4.2l-3.8 6-4 1.3c-.1-.7-1.2-2.7-2-3Z" class="cls-7"/><path d="M356 75.1c1.6-1.8 5.6-3.9 8-4m-7.6 4.8c1.7-1.4 4.6-3 6.7-3.2m-6.3 4c1.2-1 3.6-2 5.1-2.1" class="cls-7"/><path d="M283.4 77.1c4.4-8 15-12.3 21.5-10 6.5 3.4 9.3-1.5 13.2-5.7l-.6 6.8 1.6 6.1c-8.2-3.4-12 3.8-19 7.5-4.6.8-15.8 1.7-16.7-4.7Z" class="cls-5"/><path d="m313.5 67.2 4.3-4M314 68l3.7-2.3m-3.2 4.3 3.2-.4" class="cls-4"/><path d="M317.5 67.7c-11.4 5.7-23.6 13.2-34 9.4 13-19.7 24.4-4.9 29.7-10.3l1.1 2.2" class="cls-2"/><path d="m314.5 71.3 4 .6m-4.1.4 4.6 1.5" class="cls-4"/><path d="M285.9 75c.7 0 .7 2.1 0 2-.7.1-.7-2 0-2Z" class="cls-3"/><path d="M285.9 75.8c.2 0 .2.6 0 .5-.2 0-.2-.5 0-.5Z" class="cls-1"/><path d="M288 81.5c1.1-.3 1.7-6.9 1-7.2m-5.6 3 2.5 1.7-.1 1-2.4-2.2v-.5zm7.1 4.8c2.6-1 2.5-8 .8-9.1 12-6 11.8-.3 20-2.2" class="cls-4"/><path d="M290.7 69.1a13 13 0 0 1 3-6.1c.7 1.6 2.2 2 3.2 3.5l2.2-4.1c2.3.3 5.1 1.8 6.7 3.1l-.5 1.4a22 22 0 0 0-14.6 2.2Z" class="cls-7"/><path d="m291.8 68.6 2.3-5.1m-1 4.5 1.6-3.7m-.4 3.2 1.1-2.6m0 2.3.6-1.7m.3 1.5.3-.9m1.2.5 2-3.9m-1 3.7 1.9-3.6m-.8 3.7 1.7-3.5m-.7 3.3 1.4-2.9m-.4 3.1 1.2-2.7m-.2 2.7.9-2.3m0 2.4.7-2m.1 2.1.6-1.6m-11.5 11.2c1 .2 1.6 3.2 1 4.3" class="cls-4"/><path d="M293.8 76.4a9.7 9.7 0 0 1 5.8-2.8l-2.2 4-2.5.9c0-.5-.6-1.8-1.1-2Z" class="cls-7"/><path d="M294.3 77c1-1.2 3.4-2.5 4.8-2.6m-4.5 3.1c1-.9 2.8-1.9 4-2m-3.8 2.5a6 6 0 0 1 3.1-1.3" class="cls-7"/><path d="M307.9 68.3a35.6 35.6 0 0 1 31-13.6c9.1 2.5 13.3-2 19-7.8-.2 7.3-.6 6.8 3 13.2-12.2-2.3-17.2 5.3-27.7 10.6-5.5 1.2-23 4.4-25.3-2.5Z" class="cls-5"/><path d="m351.7 53.5 6-4.7m-5.2 5.5 5.3-2.9m-4.3 5 4.7-1" class="cls-4"/><path d="M357.8 53.5c-16.8 7.8-34.6 17.2-50 14.7 17.5-22.2 35.3-8.6 43.3-15l2 2.2" class="cls-2"/><path d="m353.7 57.7 5.9.1m-6 1 7 .9" class="cls-4"/><path d="M311.3 65.7c1-.1 1.3 2 .2 2.1-1 .1-1.3-2-.2-2Z" style="stroke-miterlimit:10;stroke-width:1px;fill:#fff;stroke:#000"/><path d="M311.4 66.5c.3 0 .3.5 0 .6-.3 0-.3-.6 0-.6Z" class="cls-1"/><path d="M315.1 72c1.7-.7 2-6.5.7-7.5m-7.9 3.9 3.8 1.5v1l-3.8-2v-.5zm11.1 4c3.6-1.7 3-8.4.2-9.6a51 51 0 0 1 16.4-4.6c4 .4 10 1 13.3-.6" class="cls-4"/><path d="M317.9 59c0-1.8 2.3-6 4-7 1.2 1.7 3.2 1.7 5 3.2l2.9-4.5c3.2 0 7.7 1 10.3 2.3l-.6 1.5a43 43 0 0 0-21.6 4.4Z" class="cls-7"/><path d="m319.5 58.2 2.9-5.6m-1.1 4.8 2-4.1m-.2 3.4 1.3-2.9m.3 2.4.7-1.8m.7 1.4.3-.9m1.8.3 2.7-4.3m-1.1 4 2.4-4.1m-.9 4 2.2-3.8m-.6 3.5 1.7-3.3m-.2 3.3 1.5-3m-.1 2.9 1.2-2.6m.1 2.6 1-2.2m.3 2.1.7-1.7M323 66c1.4-.2 3 2.7 2 4.2" class="cls-4"/><path d="M323.2 66a18 18 0 0 1 8.4-3.7l-2.9 4.5-3.5 1.2c-.2-.6-1.3-1.8-2-2Z" class="cls-7"/><path d="M324 66.6c1.6-1.5 5-3.2 7-3.4m-6.4 3.8c1.4-1 4-2.3 5.7-2.7m-5.3 3.2a11 11 0 0 1 4.4-1.8" class="cls-7"/><path d="M.6 30A56.6 56.6 0 0 1 54 11.7c16.5 5.8 20.9-1 32.6-10.4C84.8 14.9 84 11.8 89 24.9c-21.7-6-27.8 6-47.2 13.8C33.5 40.1 1.7 41.9.6 30Z" class="cls-5"/><path d="m75.2 11.7 10.5-7.3m-9.4 8.8L85.5 9m-7.9 8 7.9-.9" class="cls-4"/><path d="M85.1 12.8C56.4 23.5 25.6 37 .6 30a53 53 0 0 1 47.7-19.3c11.2-.2 16.4 6.6 26 .2l2.9 4.1" class="cls-2"/><path d="m77.7 19.4 9.8 1.1m-10.2.8 11.5 2.8" class="cls-4"/><path d="M6.6 26.3c1.8 0 1.8 3.7 0 3.7-1.7 0-1.7-3.8 0-3.7Z" class="cls-3"/><path d="M6.6 27.6c.5 0 .5 1 0 1s-.5-1 0-1Z" class="cls-1"/><path d="M12 38c3-1.5 4-11 2.2-13.2M.6 30.4l6.1 3.2-.2 1.8-5.9-4.2v-.8zm17.6 8.8C24.5 37 24.4 25 20 22.4c10.4-3.2 19-5.7 27.8-5.3 6.6 1.5 16.3 3.5 22 1.3" class="cls-4"/><path d="M18.6 15.4c.4-3 4.6-10 7.6-11.4 1.8 3.1 5.1 3.5 7.7 6.4L39.5 3c5.3.5 12.4 3.2 16.6 5.8L55 11.3c-9.3-2-25.6-.7-36.3 4Z" class="cls-7"/><path d="m21.3 14.3 5.6-9.2m-2.4 8.2 3.9-6.8m-.8 5.9 2.6-4.8m.1 4.2 1.4-3.1m.8 2.7.8-1.6m2.8.9 5.1-7.3m-2.4 7 4.6-6.8m-2.1 6.8 4.2-6.2M44 10.1l3.4-5.4m-.9 5.7 2.9-4.9m-.6 5 2.4-4.3m-.2 4.5L52.9 7m.2 3.8 1.4-3M26 28.7c2.3 0 4.3 5.4 2.5 7.8" class="cls-4"/><path d="M26.2 28.8a28.1 28.1 0 0 1 14.5-5.1L35.2 31l-6 1.5c-.3-1-2-3.3-3-3.7Z" class="cls-7"/><path d="M27.5 29.9a25 25 0 0 1 12-4.8m-11.2 5.7a28 28 0 0 1 9.9-3.9m-9.4 4.8c1.9-1.2 5.5-2.4 7.7-2.5" class="cls-7"/><path d="M36.6 23.3c4.5-9 16-14.4 23.2-11.6 7.2 4 10-1.8 14.2-6.5l-.6 7.8 1.7 7c-9.2-3.9-12.8 4.4-20.5 8.7-5 1-17.2 1.8-18-5.4Z" class="cls-5"/><path d="m69.1 11.8 4.6-4.6m-4.1 5.5 4-2.6m-3.5 5 3.5-.5" class="cls-4"/><path d="M73.4 12.4C61.1 19 48 27.7 36.6 23.3c14.2-22.9 26.7-5.6 32-12l1.3 2.6" class="cls-2"/><path d="m70.2 16.6 4.2.7m-4.4.5 5 1.7" class="cls-4"/><path d="M39.2 20.9c.8 0 .8 2.4 0 2.3-.8 0-.8-2.3 0-2.3Z" class="cls-3"/><path d="M39.2 21.7c.2 0 .2.7 0 .7s-.2-.7 0-.7Z" class="cls-1"/><path d="M41.5 28.3c1.3-.4 1.8-7.8 1-8.3m-5.9 3.5 2.6 2-.1 1.2-2.5-2.7v-.5zm7.6 5.5c2.8-1 2.7-9.3.9-10.5 13.3-7 12.6-.3 21.7-2.5" class="cls-4"/><path d="M44.4 14c.1-1.5 1.9-6 3.3-7 .7 1.8 2.3 2.2 3.4 4l2.4-4.7c2.5.3 5.5 2 7.2 3.6l-.5 1.6a21.8 21.8 0 0 0-15.8 2.6Z" class="cls-7"/><path d="m45.6 13.4 2.5-5.8M47 12.8l1.7-4.3m-.4 3.7 1.2-3m0 2.6.6-1.9m.4 1.7.3-1m1.2.5 2.3-4.5m-1.1 4.3 2-4.2m-.9 4.3 1.8-4m-.6 3.8L57 7.4m-.4 3.6 1.2-3.2m-.2 3.2 1-2.7m-.1 2.9.9-2.4m.1 2.4.6-1.8m-12.5 13c1.3.2 1.8 3.7 1.1 5" class="cls-4"/><path d="M47.7 22.5c1.4-1.6 4.5-3.3 6.4-3.2l-2.5 4.6-2.6 1c0-.6-.7-2-1.3-2.4Z" class="cls-7"/><path d="M48.3 23.2c1.1-1.3 3.6-3 5.3-3m-5 3.5c1-1 3-2.1 4.4-2.4m-4.1 3c.7-.7 2.3-1.5 3.3-1.5" class="cls-7"/><path d="M45.9 36.2A56.6 56.6 0 0 1 99 17.7c16.6 5.8 21-1 32.6-10.4-1.6 13.7-2.3 10.6 2.6 23.7-21.7-6-27.7 6-47.2 13.7-8.3 1.6-40 3.3-41.2-8.5Z" class="cls-5"/><path d="m120.4 17.8 10.6-7.3m-9.4 8.8 9.2-4.2m-8 8 8-.9" class="cls-4"/><path d="M130.4 18.9c-28.8 10.7-59.6 24.3-84.5 17.3a53.1 53.1 0 0 1 47.6-19.3c11.2-.3 16.4 6.6 26 .1l3 4.2" class="cls-2"/><path d="m122.9 25.5 9.8 1.1m-10.1.7 11.4 2.8" class="cls-4"/><path d="M51.9 32.3c1.8 0 1.8 3.8 0 3.8s-1.8-3.8 0-3.8Z" class="cls-3"/><path d="M51.9 33.7c.5 0 .5 1 0 1s-.5-1 0-1Z" class="cls-1"/><path d="M57.2 44.1c3.1-1.5 4.2-11 2.3-13.2m-13.7 5.6 6.2 3.2-.3 1.8-5.8-4.2-.1-.8zm17.6 8.8c6.4-2.2 6.3-14.3 2-16.8 10.3-3.3 19-5.7 27.7-5.3 6.7 1.5 16.3 3.5 22 1.3" class="cls-4"/><path d="M63.8 21.5c.4-3 4.7-10 7.7-11.4 1.8 3.1 5.1 3.5 7.7 6.4L84.8 9a45 45 0 0 1 16.6 5.8l-1.3 2.6c-9.3-2-25.5-.7-36.3 4Z" class="cls-7"/><path d="m66.6 20.4 5.6-9.2m-2.5 8.2 4-6.8m-.8 5.9 2.6-4.8m.1 4.2 1.4-3.2m.8 2.7.7-1.5m2.9.9 5.1-7.3m-2.5 7 4.7-6.8m-2.1 6.8 4.2-6.2m-1.5 5.9 3.3-5.4m-.9 5.7 2.9-5m-.6 5.1 2.4-4.3m-.1 4.5 1.8-3.7m.3 3.8 1.4-3M71.3 34.8c2.3 0 4.2 5.4 2.5 7.8" class="cls-4"/><path d="M71.5 35A28.1 28.1 0 0 1 86 29.7L80.4 37l-6 1.5c-.2-1-1.9-3.3-3-3.7Z" class="cls-7"/><path d="M72.8 36c2.7-2.3 8.6-4.7 12-4.8m-11.3 5.7a28 28 0 0 1 10-3.9M74 37.8c2-1.2 5.6-2.4 7.7-2.5" class="cls-7"/><path d="M86.2 46.5c6.3-9 19.4-12.4 27.2-10.3 7.8 3.4 11.4-1 16.6-5.8l-.8 7 2.1 6.2c-10.2-3.5-15 3.7-24 7.7-5.2.7-19.8 2-21.2-4.8Z" class="cls-5"/><path d="m124.2 36.3 5.4-4.1m-4.8 4.9 4.7-2.3m-4 4.4 4-.4" class="cls-4"/><path d="M129.3 36.9c-14.6 6-30.3 13.5-43.2 9.6 16.5-20.1 30.6-5.1 37.7-10.6l1.5 2.3" class="cls-2"/><path d="m125.5 40.6 5 .6m-5.2.4 5.9 1.5" class="cls-4"/><path d="M89.2 44.4c1 0 1 2 0 2-.9 0-.9-2 0-2Z" class="cls-3"/><path d="M89.2 45.1c.3 0 .3.6 0 .6-.2 0-.2-.6 0-.6Z" class="cls-1"/><path d="M92 51c1.4-.6 2-6.7 1.1-7.4m-7 3.1 3.2 1.8-.2 1-2.9-2.3-.1-.5zm9 4.9c3.3-1 3.1-8.2 1-9.3 14.6-6 15-.4 25.4-2.3" class="cls-4"/><path d="M95.3 38.3c.2-1.5 2.4-5.5 4-6.3.8 1.7 2.6 2 3.9 3.6l2.8-4.2c2.7.3 6.4 1.8 8.5 3.2l-.6 1.4c-4.8-1-13.1-.3-18.6 2.3Z" class="cls-7"/><path d="m96.7 37.7 2.9-5.1m-1.3 4.6 2.1-3.8m-.5 3.3 1.4-2.7m0 2.3.7-1.7m.4 1.5.4-.9m1.5.5 2.6-4m-1.3 3.8 2.4-3.7m-1.1 3.8 2.2-3.5m-.8 3.3 1.7-3m-.4 3.2 1.4-2.8m-.3 2.8 1.3-2.4m-.1 2.6.9-2.1m.2 2.1.7-1.7M99.1 45.7c1.3 0 2.2 3.1 1.3 4.4" class="cls-4"/><path d="M99.2 45.8c1.8-1.5 5.4-3 7.4-2.9l-2.8 4.1-3.1.9c0-.6-1-1.9-1.5-2.1Z" class="cls-7"/><path d="M99.9 46.4a12 12 0 0 1 6.1-2.7m-5.7 3.2c1.3-1 3.5-2 5-2.1m-4.8 2.6c1-.7 2.8-1.3 4-1.4" class="cls-7"/><path d="M111.1 30.8c11.6-13.4 17.2.5 25.5-9.4l-.5 4 1.2 3.7c-5.5-2-9 2.2-14 4.4-3.3.4-11 1.4-12.2-2.7Z" class="cls-5"/><path d="m133.2 24.8 3.1-2.3m-2.8 2.8 2.8-1.3m-2.4 2.5 2.4-.2" class="cls-4"/><path d="M136.2 25.2c-8.5 3.4-17.6 7.8-25 5.6 9.4-11.6 17-3.1 21.7-6.2l.9 1.3" class="cls-2"/><path d="m133.9 27.3 2.9.4m-3 .2 3.4.9" class="cls-4"/><path d="M113 29.5c.5 0 .5 1.3 0 1.3-.6 0-.6-1.3 0-1.3Z" class="cls-3"/><path d="M113 30v.3c-.2 0-.2-.3 0-.3Z" class="cls-1"/><path d="M114.5 33.4c.8-.2 1.2-4 .7-4.3m-4.1 1.8 1.8 1v.6l-1.8-1.3v-.3zm5.2 2.8c2-.6 1.8-4.7.6-5.4 3-1 5.6-1.9 8.2-1.7 2 .4 4.8 1.1 6.5.4" class="cls-4"/><path d="M116.5 26c0-.9 1.3-3.2 2.2-3.6.5 1 1.5 1 2.3 2l1.6-2.4c1.6.2 3.7 1 5 1.9l-.4.8c-2.8-.6-7.6-.2-10.8 1.3Z" class="cls-7"/><path d="m117.3 25.7 1.6-3m-.7 2.6 1.2-2.2m-.3 2 .8-1.6m0 1.4.4-1.1m.3.9.2-.5m.9.3 1.5-2.3m-.8 2.2 1.4-2.2m-.6 2.2 1.2-2m-.4 1.9 1-1.7m-.3 1.8.9-1.6m-.2 1.6.7-1.3m-.1 1.4.6-1.2m.1 1.2.4-.9m-8.4 6.7c.7 0 1.2 1.8.7 2.5" class="cls-4"/><path d="M118.7 30.4a8 8 0 0 1 4.3-1.7l-1.6 2.4-1.8.5c0-.4-.6-1.1-.9-1.2Z" class="cls-7"/><path d="M119.1 30.7a7 7 0 0 1 3.6-1.5m-3.4 1.8a8 8 0 0 1 3-1.3m-2.8 1.6c.5-.4 1.6-.8 2.3-.8" class="cls-7"/></g></g></svg>