<svg xmlns="http://www.w3.org/2000/svg" id="Layer_2" data-name="Layer 2" viewBox="0 0 383.5 124.1"><defs><style>.cls-2,.cls-3{stroke:#000;stroke-miterlimit:10}.cls-2{fill:#b1a051}.cls-3{fill:none}</style></defs><g id="Layer_1-2" data-name="Layer 1"><path d="M.8 92.7c13-10.8 29-22 48.5-32a277.7 277.7 0 0 1 139.8-29.2c17.7-.3 31.9 1 41.7 2.5 17 2.4 24 5.1 38.3 6.3a142 142 0 0 0 39.8-2.5L371.5 1l-6.3 39.8 17.4 35.4-54.8-6.3c-9.6 1-24 3.2-40.7 8.2-21.3 6.4-32.2 13-55.4 22.8a508 508 0 0 1-52.8 19A451.3 451.3 0 0 1 23.6 113c-2.4-.4-15.5-3-20.8-14-.8-1.7-1.6-3.8-2-6.3Z" style="fill:#d5e2e4;stroke:#000;stroke-miterlimit:10"/><path d="m322.6 34.5 45.7-23.3m-40.8 27.9 40-13.2m-34.4 25.2 34.4-2.6" class="cls-3"/><path d="m365.6 37.8-34.2 7.5c-60.1 21-111.8 33.3-150.6 40.8C115.9 98.6 80.4 98.9 59.7 98.3 35.3 97.5 15 95 .8 92.7c44.3-37.7 82-48 100.2-52.8 53.8-14.1 105.6-8.2 105.6-8.2 21.8-.1 36.1 2.5 45.3 5a95 95 0 0 0 39.3 3.5c6.6-.7 16.4-2.7 27.5-8.1l12.7 13.2" style="fill:#c4c1cb;stroke-width:0"/><path d="m333.5 58.9 42.3 3.4m-43.9 2.4 49.4 8.8" class="cls-3"/><circle cx="26.8" cy="86.5" r="5.9" style="stroke:#000;stroke-miterlimit:10;fill:#fff"/><circle cx="26.8" cy="86.5" r="1.7" style="stroke-width:0;fill:#000"/><path d="M49.7 118c2-1.3 10.5-7 13.4-18.6a32 32 0 0 0-3.4-23.5M.6 93.6 27 103.8l-.9 5.8L.8 96.4l-.2-2.8zm76 28.1c14.6-5.1 23.6-18.5 22.4-31.6a31 31 0 0 0-14.1-21.7c25.4-6.5 47-10.2 63-12.5 26-3.8 39.1-5.6 57-4.3 20.5 1.5 26 5.4 46.7 6.8 20.6 1.5 37.5-.8 48.2-2.8" class="cls-3"/><path d="M78.3 46a67.6 67.6 0 0 1 33-35.9 39 39 0 0 0 7.8 6.7c4.8 3 8 3.6 13.4 6.2 3 1.4 7.2 3.7 12 7.4l24.1-23.7A229.8 229.8 0 0 1 240.3 25l-5.3 8A390.4 390.4 0 0 0 78.2 46Zm11.8-3.3 24.4-29.4m-10.7 26.1L121 17.9m-3.7 18.7 11.3-15.3m.4 13.3 6.1-9.9m3.5 8.6 3.1-5m12.4 2.8 22.1-22.9m-10.6 22 20-21.4m-9.1 21.5 18.1-19.8m-6.4 18.9 14.5-17.1m-4 18 12.6-15.7m-2.7 16.1L219.1 17m-.8 14.4 8.1-11.9m1 12 6.2-9.3" class="cls-2"/><path d="M110.4 88.2c.9.1 8 1.2 11.7 7.8a16 16 0 0 1-.8 17" class="cls-3"/><path d="M111.3 88.7A146 146 0 0 1 174 72.4l-24 23.2-26.1 5a24 24 0 0 0-12.6-11.9Z" class="cls-2"/><path d="M117 92a125.8 125.8 0 0 1 52-15.1m-48.9 18a145.5 145.5 0 0 1 43-12.2M122.5 98a90 90 0 0 1 33-8" class="cls-2"/></g></svg>