<?xml version="1.0" encoding="UTF-8"?>
<svg id="Layer_2" data-name="Layer 2" xmlns="http://www.w3.org/2000/svg" viewBox="0 0 494.01 250.5">
  <defs>
    <style>
      .cls-1, .cls-2, .cls-3, .cls-4, .cls-5, .cls-6, .cls-7, .cls-8, .cls-9, .cls-10, .cls-11, .cls-12 {
        stroke-miterlimit: 10;
      }

      .cls-1, .cls-2, .cls-3, .cls-5, .cls-6, .cls-9, .cls-10, .cls-11, .cls-12 {
        fill: none;
      }

      .cls-1, .cls-2, .cls-3, .cls-5, .cls-11 {
        stroke: #33215e;
      }

      .cls-1, .cls-10 {
        stroke-width: .75px;
      }

      .cls-2 {
        stroke-width: .15px;
      }

      .cls-13 {
        fill: #1a1e56;
      }

      .cls-13, .cls-14, .cls-15, .cls-16, .cls-17, .cls-18, .cls-19, .cls-20, .cls-21 {
        stroke-width: 0px;
      }

      .cls-3 {
        stroke-width: .9px;
      }

      .cls-14 {
        fill: #ffb9a4;
      }

      .cls-15 {
        fill: #e26f42;
      }

      .cls-4 {
        fill: #b1c7c9;
      }

      .cls-4, .cls-6, .cls-7, .cls-8 {
        stroke-width: .25px;
      }

      .cls-4, .cls-7, .cls-8 {
        stroke: #000;
      }

      .cls-22, .cls-23, .cls-24, .cls-25, .cls-26, .cls-27 {
        isolation: isolate;
      }

      .cls-5 {
        stroke-width: .1px;
      }

      .cls-6, .cls-9, .cls-10, .cls-12 {
        stroke: #ffb9a4;
      }

      .cls-16 {
        fill: #e86321;
      }

      .cls-23 {
        fill: #f96f23;
        font-family: ArialMT, Arial;
        font-size: 9.47px;
      }

      .cls-7 {
        fill: #bcbbbb;
      }

      .cls-24 {
        font-family: Arial-BoldMT, Arial;
        font-size: 12.21px;
        font-weight: 700;
      }

      .cls-24, .cls-25, .cls-20, .cls-26, .cls-27 {
        fill: #fff;
      }

      .cls-17 {
        fill: #aaa;
      }

      .cls-8 {
        fill: #fcfcfc;
      }

      .cls-18 {
        fill: #9e9d9d;
      }

      .cls-19 {
        fill: #a3d3d8;
      }

      .cls-9 {
        stroke-width: .5px;
      }

      .cls-25 {
        letter-spacing: .02em;
      }

      .cls-25, .cls-26, .cls-27 {
        font-family: Arial-ItalicMT, Arial;
        font-size: 8.94px;
        font-style: italic;
      }

      .cls-11 {
        stroke-width: .6px;
      }

      .cls-21 {
        fill: #75b2bc;
      }

      .cls-26 {
        letter-spacing: -.02em;
      }
    </style>
  </defs>
  <g id="Layer_7" data-name="Layer 7">
    <g>
      <polygon id="bottom" class="cls-7" points="197.95 235.55 209.23 250.38 430.46 246.38 435.46 232.38 197.95 235.55"/>
      <g id="fish-package">
        <path class="cls-4" d="M357.95,30.96c-.69-5.92-25.32-28.2-50.77-30.84C215.27,1.27,123.33,2.43,31.36,3.57c-10.9-.6-43.49,6.27-26.35,25.59,45.71,62.69,91.43,125.39,137.12,188.05,2.39,6.76,12.01,13.48,25.24,17.49,15.73,4.79,29.43,3.54,31.58,3.34,89.49-1.12,178.97-2.24,268.4-3.37,12.45.17,37.33-7.57,21.34-24.29-43.61-59.8-87.25-119.63-130.86-179.43h.12Z"/>
        <path class="cls-21" d="M345.7,36.15c-1.69-10.24-30.22-24.53-43.23-26.21-86.5.94-173.09,1.85-259.6,2.79-7.57-.04-19.57.46-23.62,4.61-2.76,15.3,61.76,87.82,132.06,190.58,1.5,10.98,29.68,20.9,41.35,20.69,85.88-.92,171.7-1.85,257.58-2.77,2.25-.22,17.05-1.83,20.7-9.27,2.66-5.49-2.29-10.85-4-12.56-40.38-55.95-80.81-111.91-121.19-167.86h-.06Z"/>
        <path class="cls-19" d="M322.86,40.5c-3.5-5.08-10.4-12.58-22.97-15.94-146.51-4.38-187.59-3.43-238.77,3.15-10.05,4.55-4.97,12.66-4.34,13.64,37.75,52.28,75.52,104.59,113.27,156.87,1.26,1.87,6.39,8.85,20.88,14.46,6.75,2.62,13.11,4,17.32,4.75,68.75-.74,137.51-1.47,206.26-2.21,6.33.53,34.16-4.04,20.51-19.33-37.41-51.8-74.81-103.6-112.16-155.39Z"/>
        <polygon class="cls-8" points="68.96 118 125.87 196.84 476.59 193.08 419.68 114.24 68.96 118"/>
        <polygon class="cls-13" points="93.64 152.14 125.87 196.84 476.59 193.08 444.3 148.38 93.64 152.14"/>
        <g class="cls-22">
          <text class="cls-23" transform="translate(129.41 193.88) rotate(-.61) scale(1.73 .82) skewX(18.47)"><tspan x="0" y="0">BONELESS STEAK</tspan></text>
        </g>
        <path class="cls-18" d="M127.79,134.66c9.85,2.73,37.77,23.3,23.94,33.18,14.5-2.03,18.8-7.22,30.62-10.53,5.38-1.14,10.9-1.2,14.56-1.12,4.75,1.11,5.57,4.49-1.05,4.06,6.4,2.77,12.83,5.56,19.17,8.32l13.52-4.42,29.24,3.94-1.79,6.67,18.55-5.42c39.69-1.08,73.55,1.14,105.62-15.15-6.31.23-12.55.46-18.88.66,4.92-2.11,9.85-4.22,14.77-6.33-34.93.35-54.57-9.39-84.97-13.55-11.5-1.22-20.46-.76-26.08-.18-11.09-3.6-22.19-7.2-33.28-10.8l-3.33,11.2,8.28,1.11c-17.78,3.83-35.64,8.61-53.56,5.08l3.71,4.48-16.28-.54-42.87-10.69h.12Z"/>
        <g class="cls-22">
          <text class="cls-24" transform="translate(199.58 156.47) rotate(-.61) scale(1.45 .82) skewX(21.62)"><tspan x="0" y="0">Norwegian Salmon</tspan></text>
        </g>
        <polygon class="cls-17" points="374.02 175.7 386.08 192.4 474.44 191.46 462.39 174.76 374.02 175.7"/>
        <polygon class="cls-20" points="376.28 176.61 386.97 191.37 435.31 190.85 424.63 176.09 376.28 176.61"/>
        <line class="cls-2" x1="387.91" y1="190.13" x2="378.93" y2="177.72"/>
        <line class="cls-2" x1="389.34" y1="190.1" x2="380.39" y2="177.72"/>
        <line class="cls-1" x1="392.26" y1="190.06" x2="383.37" y2="177.68"/>
        <line class="cls-2" x1="394.8" y1="190.04" x2="385.85" y2="177.66"/>
        <line class="cls-5" x1="395.77" y1="190.02" x2="386.87" y2="177.64"/>
        <line class="cls-11" x1="398.37" y1="190.01" x2="389.39" y2="177.6"/>
        <line class="cls-5" x1="401.07" y1="189.98" x2="392.11" y2="177.59"/>
        <line class="cls-5" x1="401.76" y1="189.96" x2="392.8" y2="177.58"/>
        <line class="cls-5" x1="402.5" y1="189.95" x2="393.61" y2="177.57"/>
        <line class="cls-5" x1="405.54" y1="189.92" x2="396.59" y2="177.53"/>
        <line class="cls-5" x1="406.41" y1="189.91" x2="397.51" y2="177.53"/>
        <line class="cls-5" x1="407.28" y1="189.91" x2="398.38" y2="177.53"/>
        <line class="cls-3" x1="410.26" y1="189.87" x2="401.3" y2="177.48"/>
        <line class="cls-2" x1="404.05" y1="189.94" x2="395.1" y2="177.55"/>
        <line class="cls-2" x1="418.38" y1="189.8" x2="409.4" y2="177.39"/>
        <line class="cls-5" x1="431.72" y1="189.66" x2="422.74" y2="177.25"/>
        <line class="cls-5" x1="420.34" y1="189.78" x2="411.36" y2="177.37"/>
        <line class="cls-3" x1="423.13" y1="189.73" x2="414.24" y2="177.35"/>
        <line class="cls-2" x1="426.42" y1="189.7" x2="417.52" y2="177.32"/>
        <line class="cls-2" x1="429.06" y1="189.67" x2="420.1" y2="177.29"/>
        <line class="cls-2" x1="413.67" y1="189.85" x2="404.69" y2="177.44"/>
        <line class="cls-2" x1="416.02" y1="189.83" x2="407.04" y2="177.41"/>
        <polygon class="cls-16" points="88.45 117.79 96.27 128.58 183.05 127.63 175.32 116.87 88.45 117.79"/>
        <g class="cls-22">
          <text class="cls-27" transform="translate(102.71 125.43) rotate(-.61) scale(1.85 .82) skewX(17.31)"><tspan x="0" y="0">W</tspan></text>
          <text class="cls-27" transform="translate(117.49 125.27) rotate(-.61) scale(1.85 .82) skewX(17.31)"><tspan x="0" y="0">i</tspan></text>
          <text class="cls-27" transform="translate(121.38 125.23) rotate(-.61) scale(1.85 .82) skewX(17.31)"><tspan x="0" y="0">l</tspan></text>
          <text class="cls-25" transform="translate(125.21 125.19) rotate(-.61) scale(1.85 .82) skewX(17.31)"><tspan x="0" y="0">d</tspan></text>
          <text class="cls-27" transform="translate(134.97 125.08) rotate(-.61) scale(1.85 .82) skewX(17.31)"><tspan x="0" y="0"> </tspan></text>
          <text class="cls-26" transform="translate(139.13 125.04) rotate(-.61) scale(1.85 .82) skewX(17.31)"><tspan x="0" y="0">F</tspan></text>
          <text class="cls-27" transform="translate(148.17 124.94) rotate(-.61) scale(1.85 .82) skewX(17.31)"><tspan x="0" y="0">i</tspan></text>
          <text class="cls-27" transform="translate(152.12 124.9) rotate(-.61) scale(1.85 .82) skewX(17.31)"><tspan x="0" y="0">sh</tspan></text>
        </g>
        <path class="cls-15" d="M143.87,117.69C40.35,4.52,292.32,1.23,359.26,115.37c-71.8.77-143.59,1.55-215.41,2.3l.02.03Z"/>
        <path class="cls-10" d="M214.06,68.31c-32,0-61.25-12.4-83.08,2.56-2.1,3.14-1.17,8.34,5.43,11.2,13.95,6.07,37.36-5.25,87.49-3.82,42.88,1.22,76.75,10.98,87.77,4.59,11.38-8.92-14.07-15.83-25.04-18.44-26.02-5.52-32.57,5.02-72.59,3.88l.02.03Z"/>
        <path class="cls-9" d="M206.03,53.18c-16.79.01-32.1-6.2-43.76,1.3-1.82,13.43,23.4,1.83,48.74,3.68,22.54.61,40.12,5.46,46.07,2.27,5.92-4.64-6.86-7.84-12.77-9.21-13.59-2.75-17.24,2.51-38.28,1.96Z"/>
        <path class="cls-14" d="M236.02,116.7l2.67-5.54c-14.42-7.73,3.68-6.77-5.7-18.83-4.75-8.06-10.53-10.98-16.26-18.28-7.06-9.03-.97-8.06-8.16-16.4-7.65-8.78-24.37-19.99-34.26-26.44l34.44-.36c-5.67,23.3,8.04,28.86,21.09,45.24,7.39,9.08,11.41,16.54,13.61,21.38,10.37,3.1,18.2,13.32,26.99,18.84l-34.44.36.02.03Z"/>
        <path class="cls-9" d="M174.31,31.21c-44.78,3.09-61.68,34.25-50.54,58.93,6.53,9.03,13.06,18.05,19.59,27.08l215.86-1.83c-43.46-60.25-121.62-89.13-184.97-84.19h.06Z"/>
        <path class="cls-6" d="M148.84,38.65c17.17,7.48,74.44,10.81,89.31-.36"/>
        <line class="cls-6" x1="129.5" y1="50.05" x2="160.3" y2="55.39"/>
        <path class="cls-6" d="M271.47,47.24c-4.4,1.69-13.35,5.15-17.71,6.85"/>
        <path class="cls-6" d="M130.24,97.06c10.62-13.54,41.71-8.83,49.24-7.86,16.23,4.34,38.39,7.03,51.07,3.13"/>
        <path class="cls-6" d="M238.88,97.14c10.62-13.54,41.71-8.83,49.24-7.86,16.23,4.34,38.39,7.03,51.07,3.13"/>
        <path class="cls-6" d="M139.97,41.74c9.2,13.93,20.19-1.29,39.63,9.22"/>
        <path class="cls-6" d="M251.73,40.54c16.04,12.02-15.47-3-11.03,8.83"/>
        <path class="cls-6" d="M151.74,81.88c-1.04-8.11,18.78-10.15,22.7-9.37,15.74.67,23.8,6.27,38.94-1.23"/>
        <path class="cls-6" d="M226.5,72.13c38.73,12.41,39.89-9.48,82.1,10.09"/>
        <path class="cls-12" d="M234.95,98.84c-32,0-61.25-12.4-83.08,2.56-2.1,3.14-1.17,8.34,5.43,11.2,13.95,6.07,37.36-5.25,87.49-3.82,42.88,1.22,76.75,10.98,87.77,4.59,11.38-8.92-14.07-15.83-25.04-18.44-26.02-5.52-32.57,5.02-72.59,3.88l.02.03Z"/>
      </g>
    </g>
  </g>
</svg>