<svg xmlns="http://www.w3.org/2000/svg" id="Layer_2" viewBox="0 0 833 744.9"><defs><style>.cls-1{fill:#c98857}.cls-1,.cls-2,.cls-4,.cls-5,.cls-6,.cls-7{stroke-width:0}.cls-2{fill:#99643d}.cls-4{fill:none;stroke:#143d56;stroke-linecap:round;stroke-linejoin:round}.cls-5{fill:#64a2a3}.cls-6{fill:#1e2442}.cls-7{fill:#327576}</style></defs><g id="Layer_4"><path d="m772.1 186.1 17.4-17-17.4 17zM515.3 14 529.5.1 515.3 14zm13.1 2.2.1-.1-.1.1zm78.1 58.9 1-1-1 1z" style="fill:none;stroke-width:0"/><path d="m640.1 339-.6 2.3 45.8-27c-3.5 1.2-7.1 2.3-10.8 3.3-10.4 8.5-22 15.8-34.4 21.4ZM547.5 55.1l-14.7 14.3 14.7-14.3z" class="cls-1"/><rect height="37.1" x="593.2" y="69.5" class="cls-1"/><rect width="4" x="511.9" y="15.3" class="cls-1" transform="rotate(-44.2 513.8 15.4)"/><path d="m775.5 232-.2.2c-9 19.6-22 37-38 51.3l95.7-56.6-46.2-31a154.7 154.7 0 0 1-11.4 36v.2ZM546 55.1l.2-.1-.1.1h1.4c-.1 7.8-.8 15.4-2 22.8l2.2 1.5c3-.2 6.2-.3 9.4-.3l.1-.1-.1.1h1.4v2.2c14.6-4.6 30.3-7.1 46.5-7.2l-76.8-51.4a153 153 0 0 1-5.7 34c7.7-1 15.6-1.6 23.6-1.6Zm9.1 27.3 3.4-3.3-3.4 3.3zm115.6 79.4 2.8-2.7-2.8 2.7zm-597.4 207-24-24 31.2-8.5-23-12.5 49.4-31.5a155.2 155.2 0 0 1 23.2-41.9L0 333.4l83.8 45.8-10.5-10.4Zm569.1-226 16.1-15.7-16.1 15.7zm-311 332.1-1 3.9-12.5-12.4-20.8-11.5-3.7 13.9-20.5-20.5-1.5 5.5-13.8-13.7-1.2 4.7-4.4-4.4-.6 2.4-14.8-14.7-1.2 4.7-19.3-19.3-2.7 10.3-24.1-24-7.5-7.6-4.4 16.6-24.1-24-2.8-2.9-2.1 7.9-9.9-9.9-2.1 7.9-24.1-24-5.6-5.7-7.9 29.3L339 518.9l22.9-13.5-10.6-10.6-19.9-19.9zM624 130.5c10.6-2.3 21.7-3.4 33-3.4l.2-.1-.1.1h1.4a158 158 0 0 1-2.4 25l10.7 7h5.3l.1-.1-.1.1h1.4l-.2 4.5 37.9 25.3a155.4 155.4 0 0 1 41.4-15.9L607.4 75.7c-.3 13.7-2.4 27-6 39.6l22.6 15.2ZM388.5 469.6l-6.3 23.8 72.1-42.7-.6-.5a155 155 0 0 1-65.2 19.4Zm198-117-6.3 23.8 35-20.7-6.2-6.3c-7.3 1.6-14.8 2.7-22.5 3.2ZM253 190.1a150 150 0 0 1 20.4-3.8l18.1-11.6a156 156 0 0 1 72.6-46.2l11.1-7.1c2.8-12.3 7-24 12.6-35L218.8 194a160 160 0 0 1 34.2-3.9ZM546.7 375c-5.8 4-11.8 7.7-18 11l-.3.8-.5-.5c-4.6 2.3-9.2 4.4-14 6.2l-6.5 24.3-6.8-6.8a156.7 156.7 0 0 1-44.4 38.8l-.3 1 104-61.5-10.6-10.5-2.6-2.7Z" class="cls-1"/><path d="m98.8 387.4-1.4 5.4-13.6-13.6L0 333.3v217.6l338 194 1-226L98.8 387.4z" class="cls-2"/><path d="M737.4 283.5c-15 13.4-32.7 24-52.1 30.7l-45.7 27-8.2 30.6-16.2-16.1-35 20.7-6.8 25.4-13.5-13.5-104 61.5-.5 2-1-1-72.2 42.6-6.8 25.4-13.4-13.4-23 13.5-1 226 495-285V227l-95.6 56.6ZM171 346.6l7.3-2 .9-6.2-6.2 1-2 7.2ZM368.2 426c-8 1.8-16.2 3-24.7 3.6l-1.3 5 25.8-7 .2-1.7Zm-61.9 28.8-7.2-7.3-2 7.4 20.8 11.5-11.6-11.6zM106.9 292.3l-49.4 31.5 23 12.6 17.5-4.7c1.3-13.8 4.3-27 8.9-39.4Zm236.4 172.5-7.2-7.3-3.2 11.7 11.7-3.1-1.3-1.3zM230.7 358.2l9-8.8-9 8.8zm143.6-232.4 1-4.4-11.2 7c3.4-1 6.8-1.8 10.2-2.6Zm-100.1 60.4c3.3-1 6.6-1.8 10-2.6 2.3-3 4.8-6 7.3-8.9l-18.1 11.6.8-.1Zm-159.5 141 26.9-26.2-26.9 26.2zm91.3 37.6 8-2.1.8-6.7-6.8 1.4-2 7.4ZM310.9 403l3.4-3.4-3.4 3.4zm-16.5.6c-3.2.5-6.5.8-9.9 1l-1.5 5.9 11-3 .4-3.9Z" style="fill:#6c4a2d;stroke-width:0"/><path d="m376.2 455.8-.5 2 .3-.2.2-1.8Z" class="cls-2"/><rect height="20.6" x="663.3" y="158.7" class="cls-2"/><path d="m624 130.5-22.6-15.1a156 156 0 0 1-5 14.5c-.1 2.8-.2 5.5-.5 8.2l5.3-1c7.3-2.7 15-5 22.7-6.6Zm32 25.6.2-.1-.1.1h1.4l-.1 3.6 9.4-.5L656 152a139 139 0 0 1-.7 4h.7Zm-1.1 2.6 2.6-2.6-2.6 2.6zM545.2 79.5l2.5-.1-2.2-1.5-.3 1.6Z" class="cls-2"/><rect height="4.2" x="640.9" y="142.2" class="cls-2"/><path d="m686.5 184.1-20.1 19.6 20.1-19.6zm88.9 47.9-.1.2.2-.1-.1-.1ZM685 184.1l.2-.1-.1.1h1.4a158 158 0 0 1-1.8 21.5l3.6-1c7.1-5.9 14.8-11.1 22.9-15.7l-37.9-25.3c-.3 7.2-1 14.2-2.3 21 4.7-.3 9.3-.5 14-.5ZM392.7 453.2l19.6-19.1-19.6 19.1z" class="cls-2"/><path d="m376.2 455.8-.2 1.8-.3.1L371 475l21.9-21.9h-.3l19.6-19a155.4 155.4 0 0 1-31.8 5.5l-4.3 16.2Zm-13.9 28-17.7-17.7-11.7 3.1-1.5 5.7 19.9 19.9 11-11zm22.7-60.7-.3.1 3.4-3.4c-6.4 2.5-13 4.5-19.9 6.1l-.2 1.7-25.8 7-6.1 22.9 7.2 7.2 41.7-41.6Zm-71.2 24.2-11.5-11.6 17.7-17.6a160 160 0 0 1-13.5 1.5l-7.4 27.9 7.2 7.2 7.5-7.5Zm33.8-34.1 3.5-3.4c-4 1.6-8.2 3-12.5 4.2l-3 11.5 12.4-12.4-.3.1ZM310.9 403l3.4-3.3c-6.5 1.7-13 3-19.9 4l-.4 3.8-11 3-7.6 28.2L311 403l-.4.1.3-.2Zm-41.4-7.4-4.3 16.3L283 394a160 160 0 0 1-13.5 1.5Zm-26 7 20.9-20.9c-5.2 1-10.5 1.6-15.8 2l-5.1 19Zm-23.9-2.1 29-29c-7.2 1.6-14.6 2.6-22 3.1l-7 25.9Zm-27.3-3.7-9.2-9.3-1.3 4.7 7.5 7.6 3-3zm13.7-32-6.7 25L231 358l-.3.1 9-8.8 2.6-2.5c-8.8 3.9-18 7-27.5 9.1l-.8 6.7-8 2.1Zm-47.7 15-5.7-5.8-2.1 7.9 2.8 2.9 5-5z" class="cls-7"/><path d="m528.4 16.2-62 60.3a155 155 0 0 1 56.2-19.7 156.6 156.6 0 0 0 5.9-40.7Zm-16 .5c4.8-.4 9.7-.6 14.7-.6l.1-.1-.1.1h1.3c.6-5.2 1-10.6 1-16l-14 13.9-2.9 2.8Z" class="cls-5"/><path d="m528.1.1.1-.1" class="cls-4"/><path d="M484.6 21.8a6 6 0 0 0-2-4.5c-5.6-5.7-14.3 2.4-10 8.3 4-1.4 8-2.7 12-3.8Z" class="cls-6"/><path d="m527.2 16-.1.1" class="cls-4"/><path d="M481.6 33.3c-5.9-6-15.2 3.3-9.2 9.2 5.9 6 15.3-3.3 9.2-9.2Z" class="cls-6"/><path d="m547.5 55.1-14.7 14.3L518 83.9c8.9-2.3 18-3.7 27.3-4.4l.3-1.6c1.2-7.4 1.9-15 2-22.8ZM444.5 190c3.9-2.2 7.8-4.4 11.9-6.4l2.6-7.7-14.5 14.2Z" class="cls-5"/><path d="m546.2 55-.1.1" class="cls-4"/><path d="M500.6 72.3c-5.9-6-15.2 3.3-9.2 9.2 5.9 6 15.3-3.3 9.2-9.2Z" class="cls-6"/><path d="m370.2 229 30.8-8.4c.9-9.5 2.6-18.7 5.1-27.7l-36 36ZM555.1 82.4l3.3-1.1v-2.2l-3.3 3.3Z" class="cls-5"/><path d="m557.2 79-.1.1" class="cls-4"/><path d="M502.4 105.5c5.9 6 15.2-3.3 9.2-9.2-5.9-6-15.3 3.3-9.2 9.2Z" class="cls-6"/><path d="m474.3 303.8-1 1 1.7-.4-.7-.6z" class="cls-5"/><path d="m656.2 156-.1.1" class="cls-4"/><path d="m655.4 156.1-.6 2.6 2.7-2.6h-2.1Z" class="cls-7"/><path d="m672.2 159-.1.1" class="cls-4"/><path d="M654.5 160a147 147 0 0 1-8.2 25.6l9.6-9.4 14.8-14.4 2.8-2.7H672a186.2 186.2 0 0 0-17.6 1Z" class="cls-7"/><path d="m666.4 203.7-11 10.6 7-.2c7.2-3.4 14.6-6.2 22.3-8.5 1-7 1.7-14.2 1.8-21.5l-20.1 19.6Z" class="cls-5"/><path d="m685.2 184-.1.1" class="cls-4"/><path d="M639.6 201.3a7 7 0 0 0-.7-.6c-2 3.8-4.3 7.5-6.7 11.1 5.7 3 12.9-5.2 7.4-10.5Z" class="cls-6"/><path d="m572.1 355-3.3 1.4a157.1 157.1 0 0 1-22.1 18.7l2.6 2.7 22.8-22.8Z" class="cls-7"/><path d="m664.2 214-.1.1" class="cls-4"/><path d="m608.5 239.5.9 1c5.9 6 15.2-3.3 9.2-9.2l-1-.9c-3 3.2-6 6.2-9 9.1Z" class="cls-6"/><path d="m461.6 231.3 4-4-3 .3-1 3.7Z" class="cls-7"/><path d="m788.2 169-.1.1" class="cls-4"/><path d="m688.3 204.6-3.6 1a152 152 0 0 0-22.2 8.5l-7 .2 10.9-10.6 20-19.6h-1.3a159.2 159.2 0 0 0-40.4 5c-1.8 4-3.7 7.9-5.8 11.6l.7.6c5.5 5.3-1.7 13.5-7.5 10.5-4.4 6.6-9.3 12.8-14.6 18.6l1 1c6.1 5.8-3.2 15.1-9.1 9.1l-.9-1a156 156 0 0 1-41.3 27.5c4.7 5.9-4.2 14.3-9.8 8.5a6.1 6.1 0 0 1-2-3.7 155.3 155.3 0 0 1-41.9 8.8l-13.2 49.2-24-24L518 264h-.3l108.1-105 13.6-13.2 3-2.9 16-15.7h-1.3a156.5 156.5 0 0 0-56 10 174.6 174.6 0 0 0-8.6 1.7l-1.2 2.4A156.2 156.2 0 0 0 505 245.1c-6 10.2-13.1 19.6-21.2 28.2l-31.5 8.4 10.3 10.3a155.7 155.7 0 0 1-23.7 14.3l7.4 7.4 2-2 9 9 2-2 13.9 13.9c-6 11.2-10.5 23.3-13.6 36l-.3.1.3.3c-1.7 7-2.9 14.3-3.6 21.6l-48.7 13.1 24 24 41.7-41.6-.4.1 2.1-2 138.8-135c-.1 5.6-.5 11.2-1.2 16.6l53.2-51.7c-.1 5-.4 10-1 14.7a155 155 0 0 0-32.5 81.9l-36.9 9.8c-1.7 3.3-3.5 6.4-5.5 9.5l17.7 17.8L649 306l-.4.1 79.6-77.5 17.3-16.7 26.6-26 17.4-16.9H788a156.8 156.8 0 0 0-99.8 35.5Zm-76.7-60.3c6 5.9-3.3 15.3-9.2 9.2-6-5.9 3.3-15.2 9.2-9.2ZM474.3 303.7l.6.7-1.6.4 1-1Zm138-54.7-.2.1.1-.1Zm52-35-.2.1.1-.1Zm78.3-27.7c6 5.9-3.3 15.3-9.2 9.2-6-5.9 3.3-15.2 9.2-9.2Z" class="cls-7"/><path d="M742.6 186.3c-5.9-6-15.2 3.3-9.2 9.2 5.9 6 15.2-3.3 9.2-9.2Z" class="cls-6"/><path d="m579.9 101-31 30.2-4.1 4-78.1 76 .3-.1-41.7 41.6 7 7-3.4 3.4-11.7 11.4-17.3 16.8-14.2 13.9.3-.1-41.7 41.6-24-24 48.7-13a155 155 0 0 1 22-66.7l-14.7 14.7-17.2-17.2-17 16.6c1.5-3.6 2.9-7.2 4.1-10.9A155.7 155.7 0 0 0 410 133.7l3-5.1-2.8 2.8.4-9.3-79.6 77.5a159 159 0 0 1 22.2-1.5l.1-.1-.1.1h1.4l-140.8 137h.3l-41.7 41.6-5.5-5.5-3.2 3.3 1.4-5.1-16.7-16.7 22.8-6.1 2-7.2a155.5 155.5 0 0 0 24.6-5.7 156 156 0 0 1 120-131.7c1-7.2 1.7-14.5 1.8-21.9L306.3 193l-13.5 13a156 156 0 0 0 1.7-20.9l-140.8 137h.3l-41.7 41.6 24 24 2.2-7.8 9.9 9.9 2.1-8 2.1-7.8 5.7 5.7-5 5 24 24 4.5-16.5 1.3-4.7 9.2 9.2-3 3 24 24 2.8-10.2 19.3 19.2 1.2-4.7 14.8 14.7.6-2.3 4.4 4.3 1.3-4.7 13.7 13.7 1.5-5.5 20.5 20.5L297 455l2-7.4 7.4-28c4.6-.2 9-.7 13.5-1.4l-17.7 17.6 11.5 11.5-7.5 7.5 11.6 11.6 12.5 12.5 1-4 1.6-5.6 3-11.7 6.2-23 1.4-5a155.2 155.2 0 0 0 44.5-9.7l-3.4 3.4.3-.1-41.7 41.6 1.4 1.3 17.6 17.7-11 11 10.7 10.6 13.4 13.4 6.8-25.3 6.4-23.8c23.5-1.6 45.6-8.5 65.2-19.5l.5.6 1 1 .6-2 .3-1c17.1-10 32.2-23.2 44.4-38.8l6.8 6.9 6.5-24.3c4.8-1.9 9.4-4 14-6.2l.5.5.2-1a156.6 156.6 0 0 0 40.2-29.5l3.3-1.4-22.8 22.8 10.6 10.6 13.5 13.4 6.8-25.4 6.3-23.7c7.7-.5 15.2-1.6 22.5-3.2l6.2 6.2 16.2 16.1 8.1-30.5.6-2.2a158 158 0 0 0 34.4-21.5 154 154 0 0 0 62.8-34c16-14.3 29-31.7 38-51.3v-.3a155 155 0 0 0 14.2-62.8L772 186l-26.6 25.8-17.3 16.8-79.6 77.5.4-.1-41.7 41.6-17.7-17.7c2-3.1 3.8-6.3 5.5-9.5l37-9.9a155.2 155.2 0 0 1 32.5-81.8c.5-4.8.8-9.7.9-14.7l-53.2 51.7c.7-5.5 1-11 1.2-16.7L474.7 384l-2 2h.3l-41.7 41.6-24-24 48.7-13.1c.7-7.4 2-14.6 3.6-21.7l-.3-.2.4-.1c3-12.7 7.6-24.8 13.5-36l-13.9-13.9-2 2-9-9-2 2-7.4-7.5c8.3-4 16.2-8.8 23.7-14.3l-10.3-10.2 31.5-8.5c8.1-8.5 15.2-18 21.2-28.2a156.1 156.1 0 0 1 86.3-103.8l1.2-2.5 3.4-.7.5-8.1a156 156 0 0 0 11-54.2V74l-1 1-26.5 25.8ZM146.6 349.4l3-10.8 8.7-.8-11.7 11.6Zm265.7 84.7-19.6 19h.3l-22 22 4.7-17.4.5-2 4.3-16c11-.8 21.6-2.7 31.8-5.6Zm-148-52.4-20.8 21 5-19c5.4-.4 10.7-1 15.9-2Zm-15.7-10.2-29 29 7-25.9c7.4-.5 14.8-1.5 22-3Zm-6.3-24.6-2.6 2.5-9 8.8h.3l-31.7 31.6 6.7-25 2-7.4a151.2 151.2 0 0 0 34.2-10.5Zm22.9 65 4.4-16.3c4.5-.3 9-.8 13.4-1.5L265.2 412Zm200.4-184.5-4 4 1-3.8 3-.2ZM275.4 438.6l7.6-28.2 1.6-5.8a153.9 153.9 0 0 0 29.7-5L311 403l-.2.2.3-.1-35.5 35.5Zm60.2-13 3-11.6a131 131 0 0 0 12.5-4.2l-3.5 3.4.4-.1-12.5 12.4Z" class="cls-5"/><path d="m606.2 74-.1.1" class="cls-4"/><path d="M551.4 100.5c5.9 6 15.2-3.3 9.2-9.2-5.9-6-15.2 3.3-9.2 9.2Z" class="cls-6"/><path d="m612.2 249-.1.1" class="cls-4"/><path d="M555.5 271.8a6 6 0 0 0 2 3.7c5.6 5.8 14.4-2.6 9.7-8.5a154 154 0 0 1-11.7 4.8Z" class="cls-6"/><path d="m409.2 122-.1.1" class="cls-4"/><path d="M363.6 139.3c-5.9-6-15.2 3.3-9.2 9.2 5.9 6 15.3-3.3 9.2-9.2Z" class="cls-6"/><path d="m115 327.1-7.5 7.4 29.5-7.9a154 154 0 0 1 4.6-25.6l-27 26.2.4-.1Z" class="cls-5"/><path d="m98 331.6-17.5 4.7-31.2 8.4 24 24 22-22 11.4 11.4 5.6 5.6 41.7-41.6-.4.1 140.9-137c-.1 7-.7 14-1.7 21l13.5-13.2 13.2-12.9c-.1 7.5-.8 14.8-1.9 21.9a156 156 0 0 0-120 131.8c-6 1.9-12.1 3.4-18.4 4.6l-.9 6.3-7.2 2-22.8 6 16.7 16.7-1.4 5 3.2-3.1 5.5 5.5L214 335l-.3.1 140.8-137H353c-7.5 0-15 .4-22.2 1.4l79.6-77.5c0 3.2-.2 6.2-.4 9.3l2.8-2.8-3 5.1c-4 46.4-28.2 86.8-63.7 112.6-1.2 3.6-2.6 7.3-4.1 10.8l17-16.6 17.2 17.3L391 243a155 155 0 0 0-22 66.6l-48.7 13 24 24L386 305l-.3.1 14.2-13.9 17.3-16.8 11.6-11.3 3.5-3.4-7-7L467 211l-.4.1 78.1-76 4-4L580 101l26.6-25.9 1-1H605a155.9 155.9 0 0 0-50 8.3l3.4-3.2H557c-3.2 0-6.3 0-9.4.2l-2.5.1c-9.3.7-18.5 2.2-27.3 4.4s14.9-14.5 14.9-14.5l14.7-14.2H546a156 156 0 0 0-79.6 21.3l62-60.3H527c-5 0-9.9.1-14.7.6l2.9-2.8L529.5.2H528a156 156 0 0 0-153.8 125.7 156.8 156.8 0 0 0-82.8 48.9c-2.5 2.8-5 5.8-7.3 8.9-3.4.7-6.7 1.6-10 2.5l-.8.1c-7 .8-13.8 2.1-20.4 3.9A156 156 0 0 0 98 331.7Zm453.4-231c-6-6 3.3-15.3 9.2-9.3 6 5.9-3.3 15.3-9.2 9.2Zm-95 83c-4 2-8 4.2-11.9 6.5l14.5-14.2c-1 2.6-1.8 5.2-2.6 7.8Zm-50.3 9.3c-2.5 9-4.2 18.2-5 27.7l-31 8.3 36-36Zm105.5-96.6c6 5.9-3.3 15.3-9.2 9.2-6-5.9 3.3-15.2 9.2-9.2Zm-11-24c6 5.9-3.3 15.3-9.2 9.2-6-5.9 3.3-15.2 9.2-9.2Zm-253 130c6 5.9-3.3 15.3-9.2 9.2-6-5.9 3.3-15.2 9.2-9.2Zm-106 98.7a156 156 0 0 0-4.6 25.6l-29.5 8 7.5-7.5-.4.1 27-26.2ZM293 185l.1-.1-.1.1Zm25-5 .1-.1-.1.1Zm45.5-40.8c6 5.9-3.3 15.3-9.2 9.2-6-5.9 3.3-15.2 9.2-9.2Zm118-106c6 5.9-3.3 15.3-9.2 9.2-6-5.9 3.3-15.2 9.2-9.2Zm-174 182c6 5.9-3.3 15.3-9.2 9.2-6-5.9 3.3-15.2 9.2-9.2ZM409.2 122l-.1.1.1-.1Zm73.4-104.7a6 6 0 0 1 2 4.5c-4 1.1-8 2.4-12 3.8-4.3-5.9 4.4-14 10-8.3ZM199 216.1c-5.2-5.9 3.9-14.7 9.6-8.8l1.1 1.4c-3.7 2.4-7.2 4.8-10.7 7.4Z" class="cls-7"/><path d="M199 216c3.5-2.5 7-5 10.7-7.2a7 7 0 0 0-1.1-1.5c-5.7-5.9-14.8 2.9-9.6 8.8Z" class="cls-6"/><path d="m95.3 346.8-22 22 10.5 10.4 13.6 13.6 1.4-5.4 7.9-29.3-11.4-11.3z" class="cls-5"/><path d="m318.2 180-.1.1" class="cls-4"/><path d="m158.3 337.8-8.8.8-2.9 10.8 11.7-11.6Z" class="cls-7"/><path d="m293.2 185-.1.1" class="cls-4"/><path d="M238.4 211.5c5.9 6 15.2-3.3 9.2-9.2-5.9-6-15.2 3.3-9.2 9.2Z" class="cls-6"/><path d="m353.2 198-.1.1" class="cls-4"/><path d="M307.6 215.3c-5.9-6-15.2 3.3-9.2 9.2 5.9 6 15.3-3.3 9.2-9.2Z" class="cls-6"/><path d="M639.4 145.7 625.8 159 517.7 264.2h.3l-41.7 41.6 24 24 13.2-49.2a155.2 155.2 0 0 0 131.2-91.4c8.5-2.2 17.3-3.8 26.3-4.5a157.1 157.1 0 0 0 2.5-25.6l-2.8 2.7-14.8 14.4-9.6 9.4a156 156 0 0 0 8.2-25.6c1 0 2-.2 2.9-.3v-3.6l-2.6 2.6a105.4 105.4 0 0 0 1.3-6.6 148 148 0 0 0 2.4-25l-16.1 15.7-3 3Z" class="cls-5"/><path d="m657.2 127-.1.1" class="cls-4"/><path d="M602.4 153.5c5.9 6 15.2-3.3 9.2-9.2-5.9-6-15.2 3.3-9.2 9.2Z" class="cls-6"/></g></svg>