<?xml version="1.0" encoding="UTF-8"?>
<svg id="Layer_2" data-name="Layer 2" xmlns="http://www.w3.org/2000/svg" viewBox="0 0 193.95 60.05">
  <defs>
    <style>
      .cls-1, .cls-2, .cls-3, .cls-4, .cls-5 {
        stroke: #000;
      }

      .cls-1, .cls-2, .cls-3, .cls-5 {
        stroke-miterlimit: 10;
      }

      .cls-1, .cls-4 {
        fill: #fff;
      }

      .cls-2 {
        fill: #a6babc;
      }

      .cls-3 {
        fill: #b1a051;
      }

      .cls-4 {
        stroke-miterlimit: 10;
        stroke-width: 1px;
      }

      .cls-6 {
        fill: #000;
      }

      .cls-6, .cls-7 {
        stroke-width: 0px;
      }

      .cls-5 {
        fill: none;
      }

      .cls-7 {
        fill: #d3a95e;
      }
    </style>
  </defs>
  <g id="Layer_1-2" data-name="Layer 1">
    <g>
      <g>
        <path class="cls-2" d="M.91,19.28C9.48,8.11,25.72,4.46,35.13,9.22c9.5,6.53,13.67.09,20.83-5.42l-2.38,9.92,1.1,9.31c-12.27-6.87-18.12,2.8-29.99,6.81-6.55.44-24.26-1.19-23.77-10.55h0Z"/>
        <line class="cls-5" x1="47.88" y1="11.25" x2="55.13" y2="6.3"/>
        <line class="cls-5" x1="48.4" y1="12.52" x2="54.45" y2="10.01"/>
        <line class="cls-5" x1="48.72" y1="15.66" x2="53.6" y2="15.73"/>
        <path class="cls-7" d="M53.75,12.97C35.48,18.81,15.67,27.23.91,19.28,11.37,6.25,24.72,5.66,31.84,8.16c6.78.82,9.24,6.71,15.59,2.4l1.27,3.62"/>
        <line class="cls-5" x1="48.47" y1="17.64" x2="54.24" y2="19.38"/>
        <line class="cls-5" x1="48.05" y1="19.08" x2="54.59" y2="22.34"/>
        <g>
          <path class="cls-1" d="M4.98,16.75c1.07.12.61,3.2-.45,3.01-1.07-.12-.61-3.2.45-3.01Z"/>
          <path class="cls-6" d="M4.82,17.81c.31.03.18.93-.13.87-.31-.03-.18-.93.13-.87Z"/>
        </g>
        <path class="cls-5" d="M6.77,26.69c1.94-.55,3.89-9.26,2.98-10.42"/>
        <polygon class="cls-5" points=".85 19.52 4.15 22.63 3.79 24.09 .77 20.21 .85 19.52"/>
        <path class="cls-5" d="M10.37,28.2c4-.91,5.42-11.31,3.15-13.3,20.16-6.18,17.46,2.4,30.39,1.22"/>
        <g>
          <path class="cls-3" d="M13.45,9.1c.54-2.08,3.79-7.36,5.94-8.39.62,2.47,2.71,3.31,3.88,5.8,1.42-1.83,2.83-3.66,4.25-5.5,3.28.93,7.14,3.71,9.29,6.13l-1.04,1.91c-5.4-2.44-15.52-2.79-22.31.04h0Z"/>
          <line class="cls-5" x1="15.22" y1="8.51" x2="19.73" y2="1.59"/>
          <line class="cls-5" x1="17.25" y1="7.96" x2="20.45" y2="2.89"/>
          <line class="cls-5" x1="19.23" y1="7.55" x2="21.38" y2="3.89"/>
          <line class="cls-5" x1="20.94" y1="7.28" x2="22.15" y2="4.9"/>
          <line class="cls-5" x1="22.32" y1="7.14" x2="22.95" y2="5.95"/>
          <line class="cls-5" x1="24.56" y1="6.91" x2="28.5" y2="1.58"/>
          <line class="cls-5" x1="26.19" y1="6.91" x2="29.79" y2="1.92"/>
          <line class="cls-5" x1="27.71" y1="7.17" x2="30.98" y2="2.53"/>
          <line class="cls-5" x1="29.37" y1="7.17" x2="32.03" y2="3.16"/>
          <line class="cls-5" x1="30.8" y1="7.63" x2="33.15" y2="3.92"/>
          <line class="cls-5" x1="32.17" y1="7.94" x2="34.14" y2="4.68"/>
          <line class="cls-5" x1="33.49" y1="8.29" x2="35.06" y2="5.46"/>
          <line class="cls-5" x1="34.75" y1="8.53" x2="35.96" y2="6.31"/>
        </g>
        <g>
          <path class="cls-5" d="M16.33,20.42c1.62.44,1.76,4.98.59,6.51"/>
          <path class="cls-3" d="M16.44,20.57c2.26-1.82,6.89-3.26,9.33-2.83-1.41,1.79-2.81,3.59-4.22,5.38l-3.81.7c0-.74-.63-2.76-1.31-3.25h0Z"/>
          <path class="cls-3" d="M17.11,21.52c1.77-1.48,5.59-2.99,7.79-2.73"/>
          <path class="cls-3" d="M17.44,22.31c1.67-1.09,4.53-2.13,6.43-2.19"/>
          <path class="cls-3" d="M17.65,23.13c1.22-.81,3.52-1.48,4.91-1.31"/>
        </g>
      </g>
      <g>
        <path class="cls-2" d="M36.3,23.71c15.26-14.63,41.08-16.34,55.41-10.46,15.54,8.2,20.82,2.09,33.77-5.5-3.63,13.35-3.92,10.19-.93,23.84-20.58-9.15-28.3,1.87-48.71,6.67-8.47.29-40.16-2.67-39.54-14.55h0Z"/>
        <line class="cls-5" x1="112.73" y1="16.53" x2="124.29" y2="10.82"/>
        <line class="cls-5" x1="113.64" y1="18.14" x2="123.41" y2="15.39"/>
        <line class="cls-5" x1="114.36" y1="22.07" x2="122.36" y2="22.45"/>
        <path class="cls-7" d="M122.44,19.03c-30.02,6.4-62.47,15.28-86.13,4.67,16.83-16.27,40.39-15.16,49.97-11.99,11.1,1.35,15.26,8.91,25.67,3.92l2.3,4.58"/>
        <line class="cls-5" x1="114.09" y1="24.52" x2="123.62" y2="27.03"/>
        <line class="cls-5" x1="113.46" y1="26.29" x2="124.36" y2="30.73"/>
        <g>
          <path class="cls-1" d="M42.81,20.81c1.76.22,1.2,4-.55,3.7-1.76-.22-1.2-4,.55-3.7Z"/>
          <path class="cls-6" d="M42.61,22.12c.51.06.35,1.16-.16,1.07-.51-.06-.35-1.16.16-1.07Z"/>
        </g>
        <path class="cls-5" d="M46.33,33.26c3.28-1.04,5.74-10.36,4.24-12.77"/>
        <polygon class="cls-5" points="36.2 24 41.79 28.06 41.3 29.86 36.14 24.87 36.2 24"/>
        <path class="cls-5" d="M52.32,35.36c6.59-1.3,8.29-13.24,4.38-16.34,10.73-1.71,19.69-2.86,28.27-1.16,6.32,2.45,15.59,5.84,21.56,4.49"/>
        <g>
          <path class="cls-3" d="M56.22,11.8c.83-2.8,6.1-9.14,9.22-10.07,1.34,3.31,4.56,4.22,6.69,7.46,2.21-2.2,4.41-4.39,6.62-6.59,5.15,1.27,11.85,4.96,15.58,8.17-.53.77-1.07,1.54-1.6,2.31-8.91-3.29-25.16-4.45-36.51-1.28h0Z"/>
          <line class="cls-5" x1="59.07" y1="11.18" x2="66.04" y2="2.84"/>
          <line class="cls-5" x1="62.36" y1="10.61" x2="67.31" y2="4.5"/>
          <line class="cls-5" x1="65.59" y1="10.21" x2="68.88" y2="5.79"/>
          <line class="cls-5" x1="68.37" y1="9.98" x2="70.22" y2="7.09"/>
          <line class="cls-5" x1="70.62" y1="9.89" x2="71.58" y2="8.45"/>
          <line class="cls-5" x1="74.28" y1="9.74" x2="80.41" y2="3.35"/>
          <line class="cls-5" x1="76.95" y1="9.84" x2="82.53" y2="3.85"/>
          <line class="cls-5" x1="79.44" y1="10.26" x2="84.52" y2="4.68"/>
          <line class="cls-5" x1="82.17" y1="10.35" x2="86.28" y2="5.52"/>
          <line class="cls-5" x1="84.53" y1="11.02" x2="88.15" y2="6.53"/>
          <line class="cls-5" x1="86.79" y1="11.47" x2="89.83" y2="7.54"/>
          <line class="cls-5" x1="88.97" y1="12" x2="91.38" y2="8.57"/>
          <line class="cls-5" x1="91.06" y1="12.37" x2="92.91" y2="9.67"/>
        </g>
        <g>
          <path class="cls-5" d="M61.62,26.04c2.31.32,3.42,6.03,1.35,8.13"/>
          <path class="cls-3" d="M61.8,26.24c3.88-2.25,11.3-3.62,15.1-2.95-2.19,2.14-4.39,4.29-6.58,6.43l-6.2.63c-.05-1.03-1.33-3.57-2.33-4.11h.01Z"/>
          <path class="cls-3" d="M62.96,27.46c3.01-1.85,9.22-3.36,12.58-2.94"/>
          <path class="cls-3" d="M63.53,28.46c2.78-1.31,7.43-2.38,10.41-2.33"/>
          <path class="cls-3" d="M63.93,29.5c2.06-.98,5.79-1.62,7.95-1.34"/>
        </g>
      </g>
      <g>
        <path class="cls-2" d="M132.7,48.37c9.68-11.74,27.37-14.88,37.55-10,10.52,6.74,14.74.51,22.87-5.36-2.57,9.92-2.9,9.55-1.2,19.81-13.47-7.18-19.8,2.57-32.95,6.69-6.86.39-26.74-1.4-26.26-11.14h0s0,0,0,0Z"/>
        <line class="cls-5" x1="184.33" y1="40.58" x2="192.24" y2="35.56"/>
        <line class="cls-5" x1="184.91" y1="41.9" x2="191.55" y2="39.38"/>
        <line class="cls-5" x1="185.3" y1="45.14" x2="190.68" y2="45.27"/>
        <path class="cls-7" d="M190.8,42.43c-20.14,5.9-41.96,14.24-58.1,5.94,11.45-13.47,26.49-13.74,33.93-11.14,7.46.9,10.2,7.03,17.19,2.65l1.43,3.74"/>
        <line class="cls-5" x1="185.05" y1="47.18" x2="191.41" y2="49.04"/>
        <line class="cls-5" x1="184.59" y1="48.66" x2="191.82" y2="52.09"/>
        <g>
          <path class="cls-1" d="M137.15,45.8c1.18.14.71,3.3-.46,3.09-1.18-.14-.71-3.3.46-3.09Z"/>
          <path class="cls-6" d="M136.99,46.9c.35.04.21.95-.13.89-.35-.04-.21-.95.13-.89Z"/>
        </g>
        <path class="cls-5" d="M139.22,56.06c2.12-.57,4.17-9.41,3.16-10.71"/>
        <polygon class="cls-5" points="132.63 48.6 136.29 51.85 135.92 53.36 132.56 49.33 132.63 48.6"/>
        <path class="cls-5" d="M143.21,57.65c4.44-1.12,5.9-11.35,3.34-13.67,22-6.16,19.24,2.63,33.46,1.58"/>
        <g>
          <path class="cls-3" d="M146.39,38.01c.58-2.18,4.15-7.59,6.45-8.58.74,2.59,2.99,3.44,4.33,6.02,1.53-1.87,3.08-3.75,4.61-5.62,3.56.99,7.9,3.89,10.29,6.42-.38.65-.75,1.3-1.13,1.95-5.95-2.54-17.03-3.06-24.55-.19Z"/>
          <line class="cls-5" x1="148.33" y1="37.42" x2="153.22" y2="30.34"/>
          <line class="cls-5" x1="150.56" y1="36.88" x2="154.04" y2="31.68"/>
          <line class="cls-5" x1="152.74" y1="36.46" x2="155.07" y2="32.73"/>
          <line class="cls-5" x1="154.62" y1="36.21" x2="155.93" y2="33.77"/>
          <line class="cls-5" x1="156.13" y1="36.08" x2="156.82" y2="34.86"/>
          <line class="cls-5" x1="158.6" y1="35.87" x2="162.88" y2="30.41"/>
          <line class="cls-5" x1="160.4" y1="35.89" x2="164.29" y2="30.78"/>
          <line class="cls-5" x1="162.06" y1="36.17" x2="165.62" y2="31.43"/>
          <line class="cls-5" x1="163.9" y1="36.18" x2="166.79" y2="32.09"/>
          <line class="cls-5" x1="165.48" y1="36.68" x2="168.02" y2="32.88"/>
          <line class="cls-5" x1="166.98" y1="37.01" x2="169.13" y2="33.67"/>
          <line class="cls-5" x1="168.44" y1="37.4" x2="170.15" y2="34.49"/>
          <line class="cls-5" x1="169.83" y1="37.64" x2="171.15" y2="35.36"/>
        </g>
        <g>
          <path class="cls-5" d="M149.69,49.7c1.74.41,2.02,5.11.72,6.72"/>
          <path class="cls-3" d="M149.81,49.86c2.52-1.88,7.6-3.29,10.23-2.8-1.53,1.84-3.05,3.66-4.58,5.5l-4.18.67c-.02-.77-.74-2.88-1.47-3.35h0Z"/>
          <path class="cls-3" d="M150.56,50.84c1.97-1.53,6.18-3,8.54-2.73"/>
          <path class="cls-3" d="M150.92,51.66c1.84-1.11,4.99-2.16,7.06-2.18"/>
          <path class="cls-3" d="M151.17,52.52c1.35-.83,3.88-1.49,5.38-1.3"/>
        </g>
      </g>
      <g>
        <path class="cls-2" d="M78.57,42.16c5.52-7.37,16.65-10.03,22.73-6.76,5.93,4.36,9.4-.06,13.84-3.65l-1.59,6.65.72,6.23c-7.66-4.6-12.44,1.94-19.93,4.58-4.64.19-15.82-.58-15.76-7.05h0s0,0,0,0Z"/>
        <line class="cls-5" x1="109.78" y1="36.74" x2="114.59" y2="33.41"/>
        <line class="cls-5" x1="110.12" y1="37.59" x2="114.15" y2="35.9"/>
        <line class="cls-5" x1="110.33" y1="39.69" x2="113.58" y2="39.73"/>
        <path class="cls-7" d="M113.67,37.88c-12.14,3.92-25.29,9.6-35.1,4.28,15.82-17.58,24.92-1.27,30.92-5.89l.84,2.42"/>
        <line class="cls-5" x1="110.17" y1="41.02" x2="113.99" y2="42.18"/>
        <line class="cls-5" x1="109.88" y1="41.98" x2="114.22" y2="44.16"/>
        <g>
          <path class="cls-1" d="M81.27,40.46c.71.08.4,2.15-.3,2.02-.71-.08-.4-2.15.3-2.02Z"/>
          <path class="cls-6" d="M81.16,41.18c.21.02.12.61-.09.57-.21-.02-.12-.61.09-.57Z"/>
        </g>
        <path class="cls-5" d="M82.45,47.11c1.15-.06,2.66-6.53,1.99-6.98"/>
        <polygon class="cls-5" points="78.53 42.31 80.71 44.4 80.48 45.38 78.48 42.79 78.53 42.31"/>
        <path class="cls-5" d="M84.84,48.13c2.66-.62,3.62-7.58,2.11-8.91,12.67-4.11,11.72,1.47,20.19.78"/>
        <g>
          <path class="cls-3" d="M86.91,35.33c.37-1.39,2.52-4.94,3.96-5.63.42,1.66,1.8,2.21,2.57,3.89.94-1.23,1.88-2.46,2.83-3.69,2.18.63,4.74,2.49,6.16,4.1-.24.43-.46.85-.7,1.28-3.6-1.63-10.31-1.86-14.83.05h0Z"/>
          <line class="cls-5" x1="88.08" y1="34.93" x2="91.08" y2="30.29"/>
          <line class="cls-5" x1="89.43" y1="34.55" x2="91.56" y2="31.15"/>
          <line class="cls-5" x1="90.74" y1="34.28" x2="92.18" y2="31.83"/>
          <line class="cls-5" x1="91.88" y1="34.1" x2="92.7" y2="32.5"/>
          <line class="cls-5" x1="92.8" y1="34" x2="93.22" y2="33.21"/>
          <line class="cls-5" x1="94.29" y1="33.85" x2="96.91" y2="30.27"/>
          <line class="cls-5" x1="95.38" y1="33.84" x2="97.77" y2="30.5"/>
          <line class="cls-5" x1="96.38" y1="34.02" x2="98.56" y2="30.91"/>
          <line class="cls-5" x1="97.49" y1="34.02" x2="99.25" y2="31.33"/>
          <line class="cls-5" x1="98.43" y1="34.33" x2="100" y2="31.83"/>
          <line class="cls-5" x1="99.34" y1="34.53" x2="100.66" y2="32.34"/>
          <line class="cls-5" x1="100.22" y1="34.77" x2="101.27" y2="32.87"/>
          <line class="cls-5" x1="101.05" y1="34.92" x2="101.86" y2="33.43"/>
        </g>
        <g>
          <path class="cls-5" d="M88.81,42.9c1.08.29,1.18,3.34.38,4.36"/>
          <path class="cls-3" d="M88.89,43.01c1.5-1.21,4.58-2.21,6.2-1.9-.94,1.2-1.86,2.4-2.8,3.61l-2.54.46c0-.51-.43-1.83-.87-2.17h0s0,0,0,0Z"/>
          <path class="cls-3" d="M89.33,43.64c1.17-1,3.71-2,5.18-1.85"/>
          <path class="cls-3" d="M89.54,44.18c1.11-.74,3.02-1.42,4.28-1.47"/>
          <path class="cls-3" d="M89.68,44.72c.81-.54,2.34-1,3.26-.89"/>
        </g>
      </g>
      <g>
        <path class="cls-2" d="M104.04,36.98c8.56-9.23,23.82-11.33,32.71-8.83,8.66,3.8,13.41-.07,19.98-4.89-1.37,7.16-1.63,6.56.88,13.5-11.69-4.14-17.76,2.68-28.91,6.33-5.56.4-23.41,1.05-24.66-6.13v.02s0,0,0,0Z"/>
        <line class="cls-5" x1="149.59" y1="28.91" x2="156.2" y2="25.07"/>
        <line class="cls-5" x1="150.24" y1="29.76" x2="155.95" y2="27.69"/>
        <line class="cls-5" x1="150.9" y1="31.94" x2="155.74" y2="31.73"/>
        <path class="cls-7" d="M155.57,29.8c-17.72,5.22-36.76,11.9-51.53,7.19,20.49-19.47,36.12-3.38,45.02-8.54l1.66,2.46"/>
        <line class="cls-5" x1="150.89" y1="33.34" x2="156.77" y2="34.24"/>
        <line class="cls-5" x1="150.61" y1="34.37" x2="157.45" y2="36.29"/>
        <g>
          <path class="cls-4" d="M107.8,34.98c1.08.03.97,2.19-.11,2.12-1.08-.03-.96-2.19.11-2.12Z"/>
          <path class="cls-6" d="M107.76,35.73c.31,0,.28.64-.03.62-.31,0-.28-.64.03-.62Z"/>
        </g>
        <path class="cls-5" d="M110.66,41.85c1.8-.56,2.86-6.29,1.79-7.44"/>
        <polygon class="cls-5" points="104 37.16 107.61 39.15 107.42 40.2 104.01 37.65 104 37.16"/>
        <path class="cls-5" d="M114.39,42.71c3.89-1.1,4.2-7.88,1.64-9.45,6.36-1.54,11.69-2.64,16.93-2.14,3.96,1.05,9.73,2.47,13.24,1.39"/>
        <g>
          <path class="cls-3" d="M115.31,29.22c.34-1.66,3.17-5.51,4.94-6.17,1.04,1.82,2.98,2.12,4.47,3.85,1.19-1.36,2.39-2.71,3.59-4.07,3.14.44,7.43,2.16,9.86,3.78-.27.47-.55.92-.82,1.38-5.55-1.39-15.37-1.19-22.04,1.21h0Z"/>
          <line class="cls-5" x1="116.99" y1="28.72" x2="120.67" y2="23.65"/>
          <line class="cls-5" x1="118.93" y1="28.22" x2="121.54" y2="24.52"/>
          <line class="cls-5" x1="120.84" y1="27.82" x2="122.56" y2="25.16"/>
          <line class="cls-5" x1="122.5" y1="27.55" x2="123.45" y2="25.82"/>
          <line class="cls-5" x1="123.85" y1="27.38" x2="124.34" y2="26.52"/>
          <line class="cls-5" x1="126.05" y1="27.11" x2="129.34" y2="23.17"/>
          <line class="cls-5" x1="127.66" y1="27.01" x2="130.65" y2="23.35"/>
          <line class="cls-5" x1="129.19" y1="27.12" x2="131.9" y2="23.7"/>
          <line class="cls-5" x1="130.83" y1="27.03" x2="133.02" y2="24.09"/>
          <line class="cls-5" x1="132.29" y1="27.28" x2="134.2" y2="24.56"/>
          <line class="cls-5" x1="133.68" y1="27.42" x2="135.27" y2="25.04"/>
          <line class="cls-5" x1="135.02" y1="27.61" x2="136.27" y2="25.54"/>
          <line class="cls-5" x1="136.3" y1="27.7" x2="137.25" y2="26.08"/>
        </g>
        <g>
          <path class="cls-5" d="M119.41,36.97c1.34.02,2.46,3.17,1.31,4.51"/>
          <path class="cls-3" d="M119.54,37.07c2.23-1.49,6.6-2.64,8.9-2.46-1.19,1.33-2.38,2.65-3.57,3.98l-3.69.68c-.09-.58-1.03-1.97-1.64-2.2h0Z"/>
          <path class="cls-3" d="M120.3,37.7c1.72-1.22,5.37-2.39,7.39-2.33"/>
          <path class="cls-3" d="M120.72,38.23c1.61-.89,4.34-1.73,6.12-1.86"/>
          <path class="cls-3" d="M121.02,38.81c1.18-.66,3.4-1.23,4.71-1.18"/>
        </g>
      </g>
    </g>
  </g>
</svg>