<svg xmlns="http://www.w3.org/2000/svg" id="Layer_2" data-name="Layer 2" version="1.1" viewBox="0 0 64.4 88.9"><defs><style>.cls-2,.cls-3,.cls-5,.cls-8{stroke-miterlimit:10;fill:none}.cls-2,.cls-3,.cls-5{stroke:#33215e}.cls-14,.cls-17,.cls-18{isolation:isolate}.cls-18{fill:#fff;font-family:Arial-ItalicMT,Arial;font-size:2.5px;font-style:italic}.cls-2{stroke-width:.2px}.cls-3{stroke-width:.9px}.cls-5{stroke-width:.1px}.cls-8{stroke:#ffb9a4}.cls-17{fill:#000;font-family:BrushScriptMT,&quot;Brush Script MT&quot;;font-size:1.8px}.cls-8{stroke-width:.5px}</style></defs><g id="Layer_1-2" data-name="Layer 1-2"><g id="fish-package"><path d="M64.1 10.2c.5-1.3.4-9.1-4.4-10L11.6 7.4c-4.1 0-9 6.6-8.2 9.8l-3.1 65c-.6 2.4.2 4.6 1.9 5.8 2 1.4 4.6.6 5 .5L54 81.4c3.9-.2 8-6.7 7.1-9.2l3-62Z" style="stroke:#000;stroke-width:.2px;fill:#b1c7c9;stroke-miterlimit:10"/><path d="M61.2 12.3c1-1.6-.7-7.9-3.7-8.5l-45.2 6.6c-2.3-.3-6.4 2.8-5.8 5.4L3.2 78.6c0 .3-.9 3.2.9 5.2a4.7 4.7 0 0 0 3.2 1.4l44.8-6.6c2 0 6.9-5 6-8.3l3-58Z" style="fill:#75b2bc;stroke-width:0"/><path d="M56.7 14.4c.5-2.5-.9-6.3-3.9-5.6-25.4 2.8-29.2 3.8-36.8 5.4-2.8 0-5.8 5.2-5.4 6.3L7.8 74.7c0 .7-.2 3.1 1.5 4.8.8.8 1.7 1.2 2.3 1.3l35.9-5.3A7 7 0 0 0 52 73c1.9-2.2 1.8-4.5 1.8-4.9l2.8-53.7Z" style="fill:#a3d3d8;stroke-width:0"/><path d="M1.8 47.9.4 75.2l61-9 1.4-27.3-61 9z" style="fill:#fcfcfc;stroke:#000;stroke-width:.2px;stroke-miterlimit:10"/><path d="M1.2 59.7.4 75.2l61-9 .8-15.5-61 9z" style="stroke-width:0;fill:#1a1e56"/><text class="cls-14" style="fill:#f96f23;font-family:MyriadPro-Regular,&quot;Myriad Pro&quot;;font-size:2.7px;isolation:isolate" transform="matrix(1.08819957 -.16069133 -.05167635 1.0184749 1.4 74)"><tspan x="0" y="0">BONELESS STEAK</tspan></text><path d="M9.6 52.6c2.6 2.7 1.9 9.3-.6 11.5 3.8-1.4 5.7-5.1 9.4-5.2.8.5.1 1.5-.8 1.5l2.1 2.6 3-1.9 4.5.8-1.3 2.4 4-2.4c7.7-1 14.8-2.6 20.4-7.8l-3.3.7 3.5-2.6c-6.9 1.3-10.9-5-17.2-2.5l-4.2-3.2-2.2 4.1 1.3.2c-3.3 1.4-6.4 3.8-10 3v1.5l-2.7.2-5.9-2.9Z" style="fill:#9e9d9d;stroke-width:0"/><text class="cls-14" style="font-family:Arial-BoldMT,Arial;font-size:3.4px;font-weight:700;fill:#fff;isolation:isolate" transform="matrix(.8903451 -.13147473 -.0464164 1.01769817 18.9 59)"><tspan x="0" y="0">Norwegian Salmon</tspan></text><path d="m46.2 62.1-.3 5.8 15.4-2.3.3-5.7-15.4 2.2z" style="fill:#aaa;stroke-width:0"/><path d="m46.5 62.4-.3 5.1 8.4-1.2.3-5.1-8.4 1.2z" style="stroke-width:0;fill:#fff"/><path d="m46.5 67 .3-4.3m0 4.3.2-4.3" class="cls-2"/><path d="m47.3 66.9.2-4.3" style="stroke-width:.8px;stroke:#33215e;fill:none;stroke-miterlimit:10"/><path d="m47.8 66.8.2-4.2" class="cls-2"/><path d="m47.9 66.8.3-4.3" class="cls-5"/><path d="m48.4 66.8.2-4.3" style="stroke-width:.6px;stroke:#33215e;fill:none;stroke-miterlimit:10"/><path d="m48.8 66.7.3-4.3m-.1 4.3.2-4.3m-.1 4.3.2-4.3m.3 4.2.2-4.3m0 4.3.2-4.3m-.1 4.2.3-4.3" class="cls-5"/><path d="m50.4 66.4.3-4.2" class="cls-3"/><path d="m49.4 66.6.2-4.3m2.2 3.9.3-4.2" class="cls-2"/><path d="m54.2 65.9.2-4.3m-2.2 4.6.2-4.3" class="cls-5"/><path d="m52.7 66.1.2-4.3" class="cls-3"/><path d="m53.2 66 .3-4.2m.2 4.2.2-4.3M51 66.4l.2-4.3m.2 4.2.3-4.3" class="cls-2"/><g class="cls-14"><text class="cls-17" transform="matrix(1.1871268 -.17529963 -.04618956 1.01766468 55.5 62.7)"><tspan xml:space="preserve" x="0" y="0"> Ready </tspan></text><text style="fill:#000;font-family:BrushScriptMT,&quot;Brush Script MT&quot;;font-size:1.8px;letter-spacing:0;isolation:isolate" transform="matrix(1.1871268 -.17529963 -.04618956 1.01766468 55.4 64.8)"><tspan x="0" y="0">T</tspan></text><text class="cls-17" transform="matrix(1.1871268 -.17529963 -.04618956 1.01766468 56.5 64.7)"><tspan x="0" y="0">o Cook</tspan></text></g><path d="M5.2 47.4 5 51.1l15.1-2.2.2-3.7-15.1 2.2z" style="fill:#e86321;stroke-width:0"/><g class="cls-14"><text class="cls-18" transform="matrix(1.1871268 -.17529963 -.05470444 1.01892205 6.6 49.9)"><tspan x="0" y="0">W</tspan></text><text class="cls-18" transform="matrix(1.1871268 -.17529963 -.05470444 1.01892205 9.2 49.5)"><tspan x="0" y="0">i</tspan></text><text class="cls-18" transform="matrix(1.1871268 -.17529963 -.05470444 1.01892205 9.8 49.4)"><tspan x="0" y="0">l</tspan></text><text style="font-family:Arial-ItalicMT,Arial;font-size:2.5px;font-style:italic;fill:#fff;isolation:isolate;letter-spacing:0" transform="matrix(1.1871268 -.17529963 -.05470444 1.01892205 10.5 49.3)"><tspan x="0" y="0">d</tspan></text><text class="cls-18" transform="matrix(1.1871268 -.17529963 -.05470444 1.01892205 12.2 49)"><tspan x="0" y="0"> </tspan></text><text class="cls-18" transform="matrix(1.1871268 -.17529963 -.05470444 1.01892205 12.9 48.9)"><tspan x="0" y="0">F</tspan></text><text class="cls-18" transform="matrix(1.1871268 -.17529963 -.05470444 1.01892205 14.5 48.7)"><tspan x="0" y="0">i</tspan></text><text class="cls-18" transform="matrix(1.1871268 -.17529963 -.05470444 1.01892205 15.2 48.6)"><tspan x="0" y="0">sh</tspan></text></g><path d="M14.8 46.2c-3.3-34.6 41.3-48.8 37.5-5.6l-37.5 5.5Z" style="fill:#e26f42;stroke-width:0"/><path d="M33.9 26.8c-4.9.3-6.9-1.5-11.1.2-3.6 1.6-5.1 3.7-4.2 6.5 1.5 1.9 7.2-2.7 15.6-3.3 7.2-.5 11.7 2.3 14.5-.2 2.3-1.7 1.1-5.3-1.7-6.1-3.7-1.4-6.3 2.5-13.1 3Z" style="stroke:#ffb9a4;stroke-width:.8px;fill:none;stroke-miterlimit:10"/><path d="M34.7 21.5c-3-.2-8.8-.7-8.1 3.4.8.9 3.8-1.4 8.2-1.7 3.8-.3 6.1 1.1 7.6-.2 1.2-.8.6-2.7-.9-3-1.9-.7-3.3 1.3-6.9 1.5Z" class="cls-8"/><path d="m30.8 43.8 1.2-2.1c-1.3-2.5 2-3.7 1.7-6.7.3-2.8-.2-3.7-.2-6.2 1.3-5.1.9-9.9-1.2-14.6l6-.9c-5.1 8.7-1.6 15.2-3.5 23.3 1.6 1.4 1.2 4.4 2 6.2l-6 .9Z" style="fill:#ffb9a4;stroke-width:0"/><path d="M32.4 14.2C17.6 20.3 14.7 35.3 14.8 46l37.5-5.3C53.1 23 46.9 11 32.4 14.3Z" class="cls-8"/><path d="M26.9 17.5c3.3 3.3 13.5.7 15.5-2.1M22 22l4.5 1.3m20.3-5.4-4 2.9M15.4 39c6.9-8.8 11.4 0 18-3.9m.7 1.6c6.9-8.8 11.4 0 18-3.9m-27.2-14c-.4 4.8 3.6-.9 5.5 2.5m14-5.4c1.2 3.7-2.8-.4-3.2 3.4M21.2 33c3.5-7.2 7.8-.9 12.1-5.2m2.2.1c4.6 3.6 8.5-4.2 12.7 1.9" style="stroke:#ffb9a4;stroke-width:.2px;stroke-miterlimit:10;fill:none"/><path d="M33.2 37.4c-4.9.3-6.9-1.5-11.1.2-3.6 1.6-5.1 3.7-4.2 6.5 1.5 1.9 7.2-2.7 15.6-3.3 7.2-.5 11.7 2.3 14.5-.2 2.3-1.7 1.1-5.3-1.7-6.1-3.7-1.4-6.3 2.5-13.1 3Z" style="stroke:#ffb9a4;fill:none;stroke-miterlimit:10"/></g></g></svg>