<?xml version="1.0" encoding="UTF-8"?>
<svg id="Layer_2" data-name="Layer 2" xmlns="http://www.w3.org/2000/svg" viewBox="0 0 218.04 268.33">
  <defs>
    <style>
      .cls-1 {
        stroke-width: .1px;
      }

      .cls-1, .cls-2, .cls-3, .cls-4, .cls-5, .cls-6, .cls-7, .cls-8, .cls-9, .cls-10, .cls-11 {
        stroke-miterlimit: 10;
      }

      .cls-1, .cls-2, .cls-3, .cls-4, .cls-5, .cls-6, .cls-7, .cls-8, .cls-11 {
        fill: none;
      }

      .cls-1, .cls-5, .cls-6, .cls-7, .cls-11 {
        stroke: #33215e;
      }

      .cls-12 {
        fill: #aaa;
      }

      .cls-12, .cls-13, .cls-14, .cls-15, .cls-16, .cls-17, .cls-18, .cls-19, .cls-20 {
        stroke-width: 0px;
      }

      .cls-13 {
        fill: #e26f42;
      }

      .cls-14 {
        fill: #9e9d9d;
      }

      .cls-15 {
        fill: #e86321;
      }

      .cls-21 {
        fill: #f96f23;
        font-family: ArialMT, Arial;
        font-size: 7.34px;
      }

      .cls-21, .cls-22, .cls-23, .cls-24, .cls-25, .cls-26, .cls-27, .cls-28 {
        isolation: isolate;
      }

      .cls-22 {
        font-family: Skia-Regular, Skia;
        font-size: 9.47px;
        font-variation-settings: 'wght' 1, 'wdth' 1;
      }

      .cls-22, .cls-26, .cls-20, .cls-27, .cls-28 {
        fill: #fff;
      }

      .cls-2 {
        stroke-width: .5px;
      }

      .cls-2, .cls-3, .cls-4, .cls-8 {
        stroke: #ffb9a4;
      }

      .cls-23 {
        letter-spacing: -.02em;
      }

      .cls-23, .cls-24 {
        fill: #000;
        font-family: BrushScriptMT, 'Brush Script MT';
        font-size: 4.89px;
      }

      .cls-3, .cls-9, .cls-10 {
        stroke-width: .25px;
      }

      .cls-16 {
        fill: #1a1e56;
      }

      .cls-17 {
        fill: #a3d3d8;
      }

      .cls-5 {
        stroke-width: .9px;
      }

      .cls-18 {
        fill: #75b2bc;
      }

      .cls-6 {
        stroke-width: .15px;
      }

      .cls-7 {
        stroke-width: .6px;
      }

      .cls-19 {
        fill: #ffb9a4;
      }

      .cls-26 {
        letter-spacing: -.02em;
      }

      .cls-26, .cls-27, .cls-28 {
        font-family: Arial-ItalicMT, Arial;
        font-size: 6.93px;
        font-style: italic;
      }

      .cls-8, .cls-11 {
        stroke-width: .75px;
      }

      .cls-9 {
        fill: #b1c7c9;
      }

      .cls-9, .cls-10 {
        stroke: #000;
      }

      .cls-10 {
        fill: #fcfcfc;
      }

      .cls-28 {
        letter-spacing: .02em;
      }
    </style>
  </defs>
  <g id="Layer_1-2" data-name="Layer 1">
    <g id="fish-package">
      <path class="cls-9" d="M168.66,23.72c-.5-2.86-3.23-17.55-15.45-22.24-1.64-.65-3.67-1.16-6.14-1.35C103.43,16.66,59.78,33.23,16.12,49.77c-1.76.7-8.62,3.7-12.88,11.16-5.52,9.63-2.11,18.69-1.65,19.86,16.65,57.56,33.31,115.13,49.96,172.66.6,6.63,4.61,12.01,10.56,13.97,7.07,2.36,13.66-1.23,14.7-1.8,42.49-16.11,84.97-32.22,127.43-48.32,1.81-.83,7.29-3.6,10.83-9.77,5.29-9.21,1.65-18.05,1.21-19.05-15.89-54.9-31.79-109.83-47.68-164.74h.06Z"/>
      <path class="cls-18" d="M162.45,31.16c-.22-2.24-1.32-9.89-7.92-15.32-3.91-3.2-8.09-4.31-10.47-4.71-41.06,15.42-82.16,30.83-123.21,46.25-3.58,1.22-9.31,3.74-11.56,8.74-1.76,3.93-.66,7.73-.25,9.17,2.76,9.51,21.56,75.85,47.62,166.96.04.92.45,9.06,7.41,12.97,4.36,2.45,8.89,1.92,10.52,1.65,40.76-15.3,81.5-30.59,122.26-45.89,1.08-.61,8.22-4.74,10.55-13.1,1.7-6.15-.22-10.9-.89-12.39-14.66-51.44-29.36-102.88-44.02-154.32h-.03Z"/>
      <path class="cls-17" d="M151.27,39.5c-1.25-4.7-3.92-11.35-9.61-12.74-2.93-.71-5.57.19-6.57.53-70.06,23.46-80.02,28.54-100.3,37.64-1.6.72-4.27,2.19-6.51,4.98-5.12,6.4-3.37,13.99-3.14,14.9,13.71,48.06,27.43,96.15,41.14,144.21.45,1.74,2.32,8.14,8.74,11.55,2.99,1.6,5.89,1.97,7.83,2.05,32.63-12.25,65.27-24.49,97.9-36.74,1.03-.4,7.18-2.87,10.49-9.52,3.5-7,1.15-13.1.77-14-13.59-47.61-27.17-95.22-40.73-142.84v-.03Z"/>
      <polygon class="cls-10" points="24.8 162.48 45.47 234.96 211.93 172.5 191.26 100.01 24.8 162.48"/>
      <polygon class="cls-16" points="33.76 193.87 45.47 234.96 211.93 172.5 200.2 131.4 33.76 193.87"/>
      <g class="cls-25">
        <text class="cls-21" transform="translate(47.38 231.25) rotate(-20.57) scale(1.13 1) skewX(-4.13)"><tspan x="0" y="0">BONELESS STEAK</tspan></text>
      </g>
      <path class="cls-14" d="M51.34,169.98c1.51.88,4.05,2.63,6.23,5.8,2.37,3.46,3.13,6.91,3.43,8.77.61,1.31,1.3,3.33,1.46,5.93.27,4.8-1.58,8.53-2.43,10.02,3.41-2.46,5.78-4.85,7.28-6.57,3.66-4.12,4.58-6.73,8.06-9.49,2.64-2.09,5.26-3.07,6.99-3.59.81.21,1.45.81,1.59,1.57.2,1.12-.78,2.55-2.41,2.83,2.81,1.81,5.63,3.64,8.42,5.45l6.76-6.85,13.54-.78-1.38,7.24,9.22-8.73c8.28-2.72,15-5.74,19.91-8.2,8.34-4.15,15-7.53,22.07-14.28,4.29-4.09,7.32-8.08,9.27-10.92-3.01,1.29-5.98,2.58-9,3.84,2.5-3.02,5-6.04,7.51-9.05-7.35,2.46-13.16,2.76-17.13,2.6-9.2-.39-13.44-3.57-22.04-2.5-5.35.65-9.63,2.63-12.34,4.16-4.97-1.89-9.94-3.78-14.91-5.68l-2.47,12.2,3.83-.23c-1.63,1.35-3.29,2.69-5.05,4.04-4.52,3.5-8.95,6.57-13.19,9.27-2.51.31-5.03.61-7.54.92l1.4,4.05-7.67,2.16-19.46-3.96h.06Z"/>
      <g class="cls-25">
        <text class="cls-22" transform="translate(83.55 180.64) rotate(-20.57) scale(.95 1) skewX(-4.9)"><tspan x="0" y="0">Norwegian Salmon</tspan></text>
      </g>
      <polygon class="cls-12" points="164.73 171.55 169.1 186.9 211.04 171.17 206.66 155.82 164.73 171.55"/>
      <polygon class="cls-20" points="165.72 172.12 169.61 185.68 192.55 177.07 188.67 163.5 165.72 172.12"/>
      <line class="cls-6" x1="170.15" y1="184.23" x2="166.89" y2="172.82"/>
      <line class="cls-6" x1="170.83" y1="183.97" x2="167.58" y2="172.58"/>
      <line class="cls-11" x1="172.22" y1="183.43" x2="168.99" y2="172.04"/>
      <line class="cls-6" x1="173.43" y1="182.99" x2="170.17" y2="171.61"/>
      <line class="cls-1" x1="173.89" y1="182.81" x2="170.66" y2="171.42"/>
      <line class="cls-7" x1="175.12" y1="182.36" x2="171.85" y2="170.95"/>
      <line class="cls-1" x1="176.4" y1="181.88" x2="173.15" y2="170.5"/>
      <line class="cls-1" x1="176.73" y1="181.75" x2="173.47" y2="170.37"/>
      <line class="cls-1" x1="177.08" y1="181.61" x2="173.85" y2="170.23"/>
      <line class="cls-1" x1="178.52" y1="181.07" x2="175.27" y2="169.68"/>
      <line class="cls-1" x1="178.93" y1="180.92" x2="175.71" y2="169.53"/>
      <line class="cls-1" x1="179.35" y1="180.77" x2="176.12" y2="169.38"/>
      <line class="cls-5" x1="180.76" y1="180.23" x2="177.51" y2="168.85"/>
      <line class="cls-6" x1="177.82" y1="181.34" x2="174.56" y2="169.95"/>
      <line class="cls-6" x1="184.62" y1="178.8" x2="181.35" y2="167.4"/>
      <line class="cls-1" x1="190.95" y1="176.43" x2="187.68" y2="165.02"/>
      <line class="cls-1" x1="185.54" y1="178.46" x2="182.28" y2="167.05"/>
      <line class="cls-5" x1="186.87" y1="177.93" x2="183.65" y2="166.55"/>
      <line class="cls-6" x1="188.43" y1="177.36" x2="185.21" y2="165.97"/>
      <line class="cls-6" x1="189.68" y1="176.88" x2="186.43" y2="165.5"/>
      <line class="cls-6" x1="182.38" y1="179.64" x2="179.11" y2="168.23"/>
      <line class="cls-6" x1="183.5" y1="179.22" x2="180.23" y2="167.81"/>
      <g class="cls-25">
        <text class="cls-24" transform="translate(191.72 167.19) rotate(-20.57) scale(1.27 1) skewX(-3.64)"><tspan x="0" y="0" xml:space="preserve"> Ready </tspan></text>
        <text class="cls-23" transform="translate(193.32 172.82) rotate(-20.57) scale(1.27 1) skewX(-3.64)"><tspan x="0" y="0">T</tspan></text>
        <text class="cls-24" transform="translate(196.52 171.62) rotate(-20.57) scale(1.27 1) skewX(-3.64)"><tspan x="0" y="0">o Cook</tspan></text>
      </g>
      <polygon class="cls-15" points="34.05 159.01 36.89 168.93 78.08 153.45 75.28 143.55 34.05 159.01"/>
      <g class="cls-25">
        <text class="cls-27" transform="translate(40.21 164.56) rotate(-20.57) scale(1.21 1) skewX(-3.8)"><tspan x="0" y="0">W</tspan></text>
        <text class="cls-27" transform="translate(47.22 161.92) rotate(-20.57) scale(1.21 1) skewX(-3.8)"><tspan x="0" y="0">i</tspan></text>
        <text class="cls-27" transform="translate(49.07 161.23) rotate(-20.57) scale(1.21 1) skewX(-3.8)"><tspan x="0" y="0">l</tspan></text>
        <text class="cls-28" transform="translate(50.89 160.55) rotate(-20.57) scale(1.21 1) skewX(-3.8)"><tspan x="0" y="0">d</tspan></text>
        <text class="cls-27" transform="translate(55.52 158.81) rotate(-20.57) scale(1.21 1) skewX(-3.8)"><tspan x="0" y="0"> </tspan></text>
        <text class="cls-26" transform="translate(57.5 158.07) rotate(-20.57) scale(1.21 1) skewX(-3.8)"><tspan x="0" y="0">F</tspan></text>
        <text class="cls-27" transform="translate(61.78 156.46) rotate(-20.57) scale(1.21 1) skewX(-3.8)"><tspan x="0" y="0">i</tspan></text>
        <text class="cls-27" transform="translate(63.66 155.76) rotate(-20.57) scale(1.21 1) skewX(-3.8)"><tspan x="0" y="0">sh</tspan></text>
      </g>
      <path class="cls-13" d="M60.31,149.65c-12.75-29.41-10.84-61.18,6.46-81.66,3.85-4.56,10.09-10.51,19.93-15.3,5.84-2.26,16.97-5.65,29.26-2.84,15.69,3.58,23.94,15.12,31.16,25.25,4.84,6.79,11.92,18.7,15.43,36.17-34.08,12.79-68.15,25.59-102.24,38.35v.03Z"/>
      <path class="cls-8" d="M97.51,86.58c-13.77,4.03-21.08.37-31.75,7.58-5.67,3.84-7.26,7.36-7.82,8.95-1.25,3.62-1.22,8.87,1.68,10.74,6.12,3.98,18.12-11.7,41.76-18.58,20.22-5.89,35.49-1.4,41.22-9.88.28-.43,2.2-3.35,1.74-6.47-.72-5.1-7.26-7.97-12.13-8.53-11.89-1.4-15.83,10.65-34.7,16.16v.03Z"/>
      <path class="cls-2" d="M94.91,72.19c-7.24,2.15-11.03.36-16.68,4.08-3.02,1.97-3.84,3.77-4.15,4.57-.7,1.82-.7,4.48.81,5.39,3.17,1.95,9.57-6.03,21.98-9.7,10.63-3.13,18.57-1.02,21.65-5.33.17-.23,1.17-1.7.97-3.27-.33-2.56-3.74-3.95-6.28-4.17-6.22-.6-8.37,5.48-18.29,8.43Z"/>
      <path class="cls-19" d="M104.05,133.24l1.71-6.21c-.84-.66-1.9-1.75-2.25-3.38-.45-2.28.73-4.21,1.44-6.18.94-2.64.49-4.83-.39-9.08-1.61-7.59-4.11-9.66-6.25-16.29-2.62-8.21.18-8.22-2.56-15.7-1.94-5.25-4.84-9.36-8.12-14.03-2.31-3.3-4.45-5.91-6-7.74l16.34-6.13c-2.79,12.98-1.43,22.1.38,28.03,1.58,5.19,3.41,7.81,6,15.49,2.77,8.21,4.08,15.3,4.74,19.96,1.72,1.06,3.98,2.76,5.66,5.42,1.09,1.74,1.67,3.39,1.99,4.79,1.21,1.63,2.42,3.25,3.63,4.88l-16.34,6.13v.03Z"/>
      <path class="cls-2" d="M81.64,54.64c-9.34,5.16-14.34,12.56-17.14,16.69-14.01,20.74-12.09,46.91-11.51,53.03,2.37,8.3,4.75,16.59,7.12,24.89l102.41-37.94c-9.02-31.46-25.74-52.71-41-58.53-12.04-4.59-23.29-3.27-23.29-3.27-2.99.35-9.43,1.17-16.62,5.14h.03Z"/>
      <path class="cls-3" d="M68.98,66.62c3.01.94,11.22,3.05,21.51-.18,12.14-3.84,18.96-12.57,20.83-15.1"/>
      <line class="cls-3" x1="58.9" y1="81.71" x2="73.07" y2="82.12"/>
      <polyline class="cls-3" points="126.39 55.08 121.53 60.55 117.45 65.16"/>
      <path class="cls-3" d="M55.5,130.47c1.67-4.62,4.15-7.52,5.64-9.01,6.87-6.88,15.89-7.36,18.31-7.39,4.67-.05,5.22,1.27,9.36,1.03,6.07-.36,11.13-3.55,14.59-6.3"/>
      <path class="cls-3" d="M106.97,112.42c1.67-4.62,4.15-7.52,5.64-9.01,6.87-6.88,15.89-7.36,18.31-7.39,4.67-.05,5.22,1.27,9.36,1.03,6.07-.36,11.13-3.55,14.59-6.3"/>
      <path class="cls-3" d="M64.53,71.32c.99,3.94,2.34,4.99,3.47,5.14,2.19.28,3.68-2.91,7.12-3.85,2.82-.77,5.47.39,7.45,1.68"/>
      <path class="cls-3" d="M117.57,51.42c1.88,2.5,1.99,3.71,1.59,4.34-.94,1.37-4.4-.24-6.37,1.56-1.26,1.16-1.37,3.25-1.16,5.12"/>
      <path class="cls-3" d="M66.9,111.1c.11-1.38.6-4.94,3.39-8.31,2.95-3.6,6.72-4.81,8.12-5.23,4.62-1.43,6.19.26,10.04-.91,2.17-.68,5.27-2.33,8.51-6.87"/>
      <path class="cls-3" d="M103.1,88.47c3.66,1.05,8.74,1.73,13.69-.62,4.12-1.99,5.16-4.69,8.73-6.13,3.14-1.26,8.06-1.48,15.67,3.53"/>
      <path class="cls-4" d="M104.97,114.84c-13.77,4.03-21.08.37-31.75,7.58-5.67,3.84-7.26,7.36-7.82,8.95-1.25,3.62-1.22,8.87,1.68,10.74,6.12,3.98,18.12-11.7,41.76-18.58,20.22-5.89,35.49-1.4,41.22-9.88.28-.43,2.2-3.35,1.74-6.47-.72-5.1-7.26-7.97-12.13-8.53-11.89-1.4-15.83,10.65-34.7,16.16v.03Z"/>
    </g>
  </g>
</svg>