<svg xmlns="http://www.w3.org/2000/svg" id="Layer_2" data-name="Layer 2" viewBox="0 0 604.5 339.3"><defs><style>.cls-1,.cls-4{fill:#283037;stroke-width:0}.cls-4{fill:#de4656}</style></defs><g id="Fishingboat"><g id="fishingboat"><path d="M560.5 231.8c-36.6 12.8-71.4 30.1-108.4 41.7-26.4 8.3-53.8 13.2-80.4 20.5-33.1 9.1-40.7 17-89.1 23.7-42.5 5.8-104.8 4.1-140.7 20.5-14.8 0-94.7 1-100.5-.8-8.7-2.7-33.3-48.2-30.8-49.7 142.6 22.5 287.8-1.5 427.3-32.3 43-9.5 85.9-20 127.7-33.9 2.5.5-3 9.1-5.1 10.3Z" class="cls-4"/><path d="M560.5 231.8c-19.3 25-48.8 98.8-80 105.6-16.6 3.6-295.7 1-338.6.8 36-16.4 98.2-14.7 140.7-20.5 48.4-6.6 56-14.6 89-23.7 26.7-7.3 54-12.2 80.5-20.5 37-11.6 71.8-28.9 108.4-41.7Z" style="fill:#a73b44;stroke-width:0"/><path d="M586.5 195.5c-3.5 4.3-11.3 15.4-15.4 17.3-3.6 1.8-67.6 20.4-77.2 22.9-59.1 15.7-180.5 41.3-239.7 48-51.7 6-135.7 9.8-186.8 5.6-6.7-.5-58-7.4-60.7-8.7-2.4-1-8.3-18.5-6.3-18.9 87.9 26 223.9 13 315-2.3 90.8-15.4 180.1-39 268-67l7-1.2a31.8 31.8 0 0 0-4 4.3Z" class="cls-1"/><path d="M571.1 212.8c-115.6 34.7-370 104.4-564.4 67.8 0 0-2.3 5 4 7.1 210.3 37 499-48 554.9-66.2 1.7-.6 5.5-8.7 5.5-8.7Z" style="fill:#fff;stroke-width:0"/><path d="M167.9 69.8c83.7 18.3 166.7 41.8 250.3 61C472 143.4 530.2 157 584 169l-3.5 2c-43.1-10-90.8-21-134-30.7-46.4-10.4-92.3-23.5-138.7-34.7-46.2-11.1-92.8-21.2-139.1-32.3l-4-.8c-10-2.4-31.6-6.4-24-8.7l24 5.6" class="cls-1"/><path d="M166 59c-23-4-11.2-6.9-10.4-7l18.1.8c19.9 1 3.6 6-5.8 5.8v99h-2.4" class="cls-1"/><path d="m586.6 183.7-8-4.7c-1.8-.7 8.5-24.7 14.6-25.3 23 3.5 4.7 21.5-1.6 33.1l-5-3Zm-410-130.9c-3-.1-17.2-.9-18.1-.8-2.4-14.7 7-7.5 8.6-9.8 1.2-1.8-1.7-42.2 1.2-42.2s0 40.5 1.2 42.2c1.5 2.2 9-5 7 10.6Z" class="cls-4"/><path d="M131.6 171.8c1 2.2.8 4.9.8 7.1v97.6c53.1-2 56.9-2.1 104.6-6.3 16.3-1.4 62.2-9.7 78.3-10.8 91-15.4 180.2-39 268-67l7.1-1.2 1.2-4.4c-.4-.2-11-6.9-13-7.9-6.2-3-4.4 2.8-9.9 5.6-4.3 2.1-80.4 23.5-92.2 26.8a2348.7 2348.7 0 0 1-138.3 33.5c-3.2-7.3-6.6-14.7-10.3-21.7l-24-51.3c5.6-.1 23.2.3 26-.8 1.4-.5 1-2.3 1.2-2.3l-263.3-.8-.4 3.1c21.4.3 42.8.7 64.2.8" style="fill:#d6d7cd;stroke-width:0"/><path d="M166 183.7c4.5-.8 34.6-.2 37.8 1.6 6 3.4 3.2 28.7 2.7 35.8-3.2 5.5-47.4 5.4-48-.8 2.4-10.7-6.4-34.2 7.4-36.6Zm82 0c23.5.6 17.7 5.5 16.9 37.4-1.3 5.8-41.6 3.4-43.8 2.8-6.2-1.9-3.2-30.3-2.7-36.7 1.3-3.3 24-3.7 29.5-3.5Zm62.6.4c6 13.2 12.2 25.8 18.9 38.6 0 .6.2 1.5-.4 1.6-2.7.7-52.2 2-53.2-4.3-.5-38-7.4-39 34.7-35.9Z" style="fill:#305e6b;stroke-width:0"/><path d="M165.5 157.7h177c3.3.8-8.2 9.2-11.4 11H220.7c-24 0-142.5 1.2-153-.8-10.2-2-12.5-9.5-10.6-10.2h108.4Z" class="cls-4"/></g></g></svg>