<?xml version="1.0" encoding="UTF-8"?>
<svg id="Layer_2" data-name="Layer 2" xmlns="http://www.w3.org/2000/svg" viewBox="0 0 137.44 58.51">
  <defs>
    <style>
      .cls-1 {
        fill: #fff;
      }

      .cls-1, .cls-2, .cls-3, .cls-4 {
        stroke: #000;
        stroke-miterlimit: 10;
      }

      .cls-2 {
        fill: #a6babc;
      }

      .cls-3 {
        fill: #b1a051;
      }

      .cls-5 {
        fill: #000;
      }

      .cls-5, .cls-6 {
        stroke-width: 0px;
      }

      .cls-4 {
        fill: none;
      }

      .cls-6 {
        fill: #d3a95e;
      }
    </style>
  </defs>
  <g id="Layer_1-2" data-name="Layer 1">
    <g>
      <g>
        <path class="cls-2" d="M.65,23.09C15.67,8.19,41.45,6.04,55.87,11.68c15.68,7.94,20.86,1.73,33.67-6.07-3.4,13.41-3.75,10.25-.52,23.86-20.73-8.79-28.27,2.36-48.59,7.5-8.47.44-40.2-1.99-39.78-13.88,0,0,0,0,0,0Z"/>
        <line class="cls-4" x1="76.95" y1="14.6" x2="88.41" y2="8.69"/>
        <line class="cls-4" x1="77.89" y1="16.2" x2="87.62" y2="13.28"/>
        <line class="cls-4" x1="78.68" y1="20.11" x2="86.69" y2="20.35"/>
        <path class="cls-6" d="M86.7,16.93C56.8,23.85,24.5,33.28.67,23.08,17.22,6.52,40.79,7.23,50.43,10.24c11.12,1.16,15.41,8.65,25.73,3.48l2.38,4.54"/>
        <line class="cls-4" x1="78.45" y1="22.56" x2="88.02" y2="24.91"/>
        <line class="cls-4" x1="77.85" y1="24.33" x2="88.83" y2="28.6"/>
        <g>
          <path class="cls-1" d="M7.11,20.07c1.77.19,1.27,3.98-.49,3.71-1.76-.19-1.27-3.98.49-3.71Z"/>
          <path class="cls-5" d="M6.94,21.39c.52.06.37,1.15-.14,1.07-.52-.06-.37-1.15.14-1.07Z"/>
        </g>
        <path class="cls-4" d="M10.85,32.46c3.26-1.1,5.56-10.45,4.02-12.85"/>
        <polygon class="cls-4" points=".57 23.37 6.23 27.35 5.77 29.15 .51 24.24 .57 23.37"/>
        <path class="cls-4" d="M16.88,34.46c6.57-1.41,8.07-13.38,4.1-16.42,10.7-1.89,19.64-3.2,28.25-1.64,6.36,2.34,15.69,5.57,21.64,4.12"/>
        <g>
          <path class="cls-3" d="M20.37,10.84c.79-2.81,5.95-9.25,9.05-10.23,1.4,3.29,4.63,4.14,6.82,7.34,2.17-2.24,4.34-4.46,6.51-6.7,5.17,1.18,11.93,4.75,15.71,7.91-.52.78-1.04,1.56-1.56,2.34-8.97-3.14-25.24-4.02-36.53-.66h0Z"/>
          <line class="cls-4" x1="23.21" y1="10.17" x2="30.03" y2="1.71"/>
          <line class="cls-4" x1="26.49" y1="9.54" x2="31.33" y2="3.35"/>
          <line class="cls-4" x1="29.71" y1="9.08" x2="32.94" y2="4.62"/>
          <line class="cls-4" x1="32.49" y1="8.81" x2="34.28" y2="5.89"/>
          <line class="cls-4" x1="34.73" y1="8.69" x2="35.67" y2="7.23"/>
          <line class="cls-4" x1="38.39" y1="8.47" x2="44.41" y2="1.97"/>
          <line class="cls-4" x1="41.07" y1="8.52" x2="46.54" y2="2.44"/>
          <line class="cls-4" x1="43.56" y1="8.9" x2="48.54" y2="3.24"/>
          <line class="cls-4" x1="46.29" y1="8.94" x2="50.32" y2="4.05"/>
          <line class="cls-4" x1="48.67" y1="9.56" x2="52.21" y2="5.02"/>
          <line class="cls-4" x1="50.93" y1="9.99" x2="53.91" y2="6"/>
          <line class="cls-4" x1="53.13" y1="10.48" x2="55.48" y2="7.01"/>
          <line class="cls-4" x1="55.21" y1="10.81" x2="57.02" y2="8.08"/>
        </g>
        <g>
          <path class="cls-4" d="M26.01,24.99c2.32.28,3.52,5.97,1.49,8.1"/>
          <path class="cls-3" d="M26.21,25.17c3.85-2.32,11.23-3.82,15.05-3.21-2.15,2.18-4.32,4.36-6.47,6.54l-6.19.74c-.06-1.03-1.39-3.54-2.4-4.07h.01Z"/>
          <path class="cls-3" d="M27.37,26.38c2.97-1.9,9.16-3.51,12.53-3.15"/>
          <path class="cls-3" d="M27.97,27.37c2.75-1.35,7.39-2.5,10.37-2.51"/>
          <path class="cls-3" d="M28.38,28.4c2.04-1.01,5.76-1.72,7.93-1.48"/>
        </g>
      </g>
      <g>
        <path class="cls-2" d="M37.2,21.05c5.65-8.4,17.77-12.17,24.53-8.49,6.64,4.92,10.24-.49,14.94-4.62l-1.66,7.72.83,7.18c-8.66-5.1-13.31,2.67-21.51,5.88-5.14.43-17.26-.41-17.12-7.68,0,0,0,.02,0,.02Z"/>
        <line class="cls-4" x1="70.91" y1="13.87" x2="76.09" y2="9.9"/>
        <line class="cls-4" x1="71.28" y1="14.84" x2="75.62" y2="12.78"/>
        <line class="cls-4" x1="71.53" y1="17.27" x2="75.03" y2="17.22"/>
        <path class="cls-6" d="M75.13,15.08c-13.03,4.82-27.14,11.83-37.93,5.97,17.09-20.83,27.19-2.1,33.37-7.71l.93,2.77"/>
        <line class="cls-4" x1="71.37" y1="18.8" x2="75.51" y2="20.03"/>
        <line class="cls-4" x1="71.06" y1="19.92" x2="75.78" y2="22.31"/>
        <g>
          <path class="cls-1" d="M40.11,19.01c.77.07.46,2.45-.31,2.32-.77-.07-.46-2.45.31-2.32Z"/>
          <path class="cls-5" d="M40,19.84c.22.02.13.71-.09.67-.22-.02-.13-.71.09-.67Z"/>
        </g>
        <path class="cls-4" d="M41.45,26.65c1.3-.23,2.8-7.52,2.09-8.12"/>
        <polygon class="cls-4" points="37.16 21.24 39.54 23.57 39.29 24.72 37.12 21.78 37.16 21.24"/>
        <path class="cls-4" d="M44.05,27.75c2.86-.76,3.85-8.89,2.21-10.35,14.08-5.15,12.57,1.39,21.84.31"/>
        <g>
          <path class="cls-3" d="M46.16,12.92c.36-1.59,2.65-5.73,4.22-6.61.44,1.88,1.94,2.51,2.81,4.41,1.01-1.45,2.01-2.89,3.02-4.34,2.4.68,5.16,2.74,6.7,4.55-.25.5-.49.99-.74,1.5-3.9-1.78-11.22-1.82-16.02.5h0s0,0,0,0Z"/>
          <line class="cls-4" x1="47.42" y1="12.43" x2="50.63" y2="6.98"/>
          <line class="cls-4" x1="48.88" y1="11.96" x2="51.16" y2="7.97"/>
          <line class="cls-4" x1="50.31" y1="11.6" x2="51.83" y2="8.73"/>
          <line class="cls-4" x1="51.53" y1="11.36" x2="52.39" y2="9.49"/>
          <line class="cls-4" x1="52.53" y1="11.22" x2="52.97" y2="10.29"/>
          <line class="cls-4" x1="54.13" y1="11" x2="56.93" y2="6.79"/>
          <line class="cls-4" x1="55.3" y1="10.97" x2="57.86" y2="7.04"/>
          <line class="cls-4" x1="56.39" y1="11.14" x2="58.71" y2="7.48"/>
          <line class="cls-4" x1="57.58" y1="11.1" x2="59.48" y2="7.95"/>
          <line class="cls-4" x1="58.62" y1="11.42" x2="60.28" y2="8.51"/>
          <line class="cls-4" x1="59.6" y1="11.63" x2="61.01" y2="9.07"/>
          <line class="cls-4" x1="60.55" y1="11.89" x2="61.67" y2="9.66"/>
          <line class="cls-4" x1="61.45" y1="12.04" x2="62.32" y2="10.3"/>
        </g>
        <g>
          <path class="cls-4" d="M48.28,21.61c1.2.35,1.28,3.84.46,5.02"/>
          <path class="cls-3" d="M48.37,21.72c1.58-1.42,4.9-2.67,6.69-2.38-1,1.41-2,2.83-3,4.25l-2.73.61c0-.55-.46-2.1-.96-2.48Z"/>
          <path class="cls-3" d="M48.85,22.44c1.25-1.16,3.96-2.41,5.58-2.27"/>
          <path class="cls-3" d="M49.09,23.05c1.17-.86,3.23-1.74,4.62-1.82"/>
          <path class="cls-3" d="M49.24,23.68c.86-.64,2.5-1.22,3.52-1.12"/>
        </g>
      </g>
      <g>
        <path class="cls-2" d="M44.74,35.03c15.01-14.89,40.8-17.04,55.22-11.41,15.68,7.94,20.86,1.73,33.67-6.07-3.4,13.41-3.75,10.25-.52,23.86-20.73-8.79-28.27,2.36-48.59,7.5-8.47.44-40.2-1.99-39.78-13.88h0Z"/>
        <line class="cls-4" x1="121.04" y1="26.54" x2="132.5" y2="20.63"/>
        <line class="cls-4" x1="121.98" y1="28.14" x2="131.71" y2="25.22"/>
        <line class="cls-4" x1="122.77" y1="32.05" x2="130.78" y2="32.29"/>
        <path class="cls-6" d="M130.78,28.87c-29.9,6.91-62.2,16.34-86.04,6.15,16.55-16.56,40.12-15.85,49.76-12.84,11.12,1.16,15.41,8.65,25.73,3.48l2.38,4.54"/>
        <line class="cls-4" x1="122.53" y1="34.5" x2="132.1" y2="36.84"/>
        <line class="cls-4" x1="121.94" y1="36.27" x2="132.92" y2="40.54"/>
        <g>
          <path class="cls-1" d="M51.2,32.01c1.77.19,1.27,3.98-.49,3.71-1.76-.19-1.27-3.98.49-3.71Z"/>
          <path class="cls-5" d="M51.03,33.33c.52.06.37,1.15-.14,1.07-.52-.06-.37-1.15.14-1.07Z"/>
        </g>
        <path class="cls-4" d="M54.94,44.4c3.26-1.1,5.56-10.45,4.02-12.85"/>
        <polygon class="cls-4" points="44.66 35.31 50.31 39.29 49.85 41.09 44.6 36.18 44.66 35.31"/>
        <path class="cls-4" d="M60.96,46.4c6.57-1.41,8.07-13.38,4.1-16.42,10.7-1.89,19.64-3.2,28.25-1.64,6.36,2.34,15.69,5.57,21.64,4.12"/>
        <g>
          <path class="cls-3" d="M64.46,22.78c.79-2.81,5.95-9.25,9.05-10.23,1.4,3.29,4.63,4.14,6.82,7.34,2.17-2.24,4.34-4.46,6.51-6.7,5.17,1.18,11.93,4.75,15.71,7.91-.52.78-1.04,1.56-1.56,2.34-8.97-3.14-25.24-4.02-36.53-.66h0Z"/>
          <line class="cls-4" x1="67.3" y1="22.11" x2="74.12" y2="13.65"/>
          <line class="cls-4" x1="70.58" y1="21.48" x2="75.42" y2="15.29"/>
          <line class="cls-4" x1="73.8" y1="21.02" x2="77.02" y2="16.56"/>
          <line class="cls-4" x1="76.58" y1="20.75" x2="78.37" y2="17.83"/>
          <line class="cls-4" x1="78.82" y1="20.62" x2="79.76" y2="19.17"/>
          <line class="cls-4" x1="82.48" y1="20.41" x2="88.49" y2="13.91"/>
          <line class="cls-4" x1="85.16" y1="20.46" x2="90.63" y2="14.38"/>
          <line class="cls-4" x1="87.65" y1="20.84" x2="92.63" y2="15.18"/>
          <line class="cls-4" x1="90.38" y1="20.88" x2="94.41" y2="15.99"/>
          <line class="cls-4" x1="92.76" y1="21.5" x2="96.3" y2="16.96"/>
          <line class="cls-4" x1="95.02" y1="21.93" x2="97.99" y2="17.94"/>
          <line class="cls-4" x1="97.21" y1="22.42" x2="99.56" y2="18.94"/>
          <line class="cls-4" x1="99.3" y1="22.75" x2="101.1" y2="20.02"/>
        </g>
        <g>
          <path class="cls-4" d="M70.09,36.93c2.32.28,3.52,5.97,1.49,8.1"/>
          <path class="cls-3" d="M70.29,37.11c3.85-2.32,11.23-3.82,15.05-3.21-2.15,2.18-4.32,4.36-6.47,6.54l-6.19.74c-.06-1.03-1.39-3.54-2.4-4.07h.01Z"/>
          <path class="cls-3" d="M71.46,38.32c2.97-1.9,9.16-3.51,12.53-3.15"/>
          <path class="cls-3" d="M72.06,39.31c2.75-1.35,7.39-2.5,10.37-2.51"/>
          <path class="cls-3" d="M72.47,40.35c2.04-1.01,5.76-1.72,7.93-1.48"/>
        </g>
      </g>
      <g>
        <path class="cls-2" d="M83.32,50.52c7.44-8.13,20.87-9.8,28.32-6.64,7.34,4.37,11.44.52,17.25-3.57l-1.65,6.82,1.24,6.43c-9.65-4.8-15.33,1.66-24.9,4.45-5.16.08-19.85-.52-20.27-7.48h.01Z"/>
        <line class="cls-4" x1="122.4" y1="45.36" x2="128.3" y2="42.01"/>
        <line class="cls-4" x1="122.87" y1="46.24" x2="127.86" y2="44.56"/>
        <line class="cls-4" x1="123.25" y1="48.4" x2="127.34" y2="48.5"/>
        <path class="cls-6" d="M127.37,46.6c-15.27,3.98-31.79,9.45-44.05,3.92,18.94-17.81,30.94-1.07,38.68-5.63l1.19,2.51"/>
        <line class="cls-4" x1="123.11" y1="49.77" x2="128" y2="51.02"/>
        <line class="cls-4" x1="122.8" y1="50.76" x2="128.4" y2="53.07"/>
        <g>
          <path class="cls-1" d="M86.65,48.81c.9.1.63,2.2-.27,2.06-.9-.1-.63-2.2.27-2.06Z"/>
          <path class="cls-5" d="M86.55,49.54c.26.03.18.64-.08.59-.26-.03-.18-.64.08-.59Z"/>
        </g>
        <path class="cls-4" d="M88.48,55.66c1.54-.29,2.96-6.27,2.13-7.15"/>
        <polygon class="cls-4" points="83.27 50.67 86.14 52.85 85.9 53.85 83.24 51.16 83.27 50.67"/>
        <path class="cls-4" d="M91.55,56.73c3.34-.63,4.15-7.68,2.18-9.13,15.23-4.02,14.99,1.61,25.5,1.08"/>
        <g>
          <path class="cls-3" d="M93.47,43.6c.4-1.52,3.05-5.14,4.69-5.74.67,1.8,2.36,2.27,3.44,4.04,1.12-1.25,2.25-2.51,3.37-3.75,2.67.64,6.09,2.58,7.99,4.29-.27.44-.54.87-.81,1.31-4.58-1.7-12.93-2.08-18.68-.15h0Z"/>
          <line class="cls-4" x1="94.94" y1="43.21" x2="98.47" y2="38.48"/>
          <line class="cls-4" x1="96.62" y1="42.85" x2="99.13" y2="39.37"/>
          <line class="cls-4" x1="98.27" y1="42.58" x2="99.94" y2="40.07"/>
          <line class="cls-4" x1="99.69" y1="42.41" x2="100.62" y2="40.78"/>
          <line class="cls-4" x1="100.83" y1="42.32" x2="101.32" y2="41.51"/>
          <line class="cls-4" x1="102.71" y1="42.18" x2="105.83" y2="38.54"/>
          <line class="cls-4" x1="104.08" y1="42.19" x2="106.92" y2="38.78"/>
          <line class="cls-4" x1="105.35" y1="42.39" x2="107.94" y2="39.22"/>
          <line class="cls-4" x1="106.75" y1="42.4" x2="108.84" y2="39.66"/>
          <line class="cls-4" x1="107.96" y1="42.73" x2="109.8" y2="40.19"/>
          <line class="cls-4" x1="109.12" y1="42.96" x2="110.66" y2="40.72"/>
          <line class="cls-4" x1="110.24" y1="43.21" x2="111.46" y2="41.27"/>
          <line class="cls-4" x1="111.3" y1="43.38" x2="112.24" y2="41.85"/>
        </g>
        <g>
          <path class="cls-4" d="M96.28,51.42c1.24.19,1.73,3.35.71,4.49"/>
          <path class="cls-3" d="M96.37,51.53c1.94-1.3,5.73-2.19,7.71-1.87-1.12,1.22-2.23,2.45-3.35,3.67l-3.16.44c-.02-.55-.69-1.93-1.21-2.25,0,0,0,0,0,0Z"/>
          <path class="cls-3" d="M96.97,52.19c1.51-1.06,4.68-2.01,6.42-1.83"/>
          <path class="cls-3" d="M97.26,52.73c1.4-.76,3.78-1.43,5.32-1.45"/>
          <path class="cls-3" d="M97.47,53.31c1.03-.57,2.95-1,4.07-.87"/>
        </g>
      </g>
      <g>
        <path class="cls-2" d="M110.15,38.18c13.16-11.71,16.93,2.75,26.42-5.96l-.96,3.97.72,3.74c-5.2-2.76-9.18,1-14.43,2.59-3.33-.08-11.07-.06-11.75-4.33h0s0-.01,0-.01Z"/>
        <line class="cls-4" x1="132.8" y1="35.18" x2="136.22" y2="33.23"/>
        <line class="cls-4" x1="133.07" y1="35.69" x2="135.96" y2="34.71"/>
        <line class="cls-4" x1="133.29" y1="36.95" x2="135.66" y2="37"/>
        <path class="cls-6" d="M135.68,35.89c-8.86,2.31-18.43,5.49-25.55,2.28,10.87-10.27,17.29-.82,22.42-3.28l.69,1.45"/>
        <line class="cls-4" x1="133.22" y1="37.73" x2="136.05" y2="38.46"/>
        <line class="cls-4" x1="133.03" y1="38.31" x2="136.27" y2="39.65"/>
        <g>
          <path class="cls-1" d="M112.08,37.18c.53.06.37,1.29-.16,1.21-.53-.06-.37-1.29.16-1.21Z"/>
          <path class="cls-5" d="M112.02,37.62c.15.02.11.36-.04.34-.15-.02-.11-.36.04-.34Z"/>
        </g>
        <path class="cls-4" d="M113.14,41.17c.81,0,1.76-3.81,1.24-4.16"/>
        <polygon class="cls-4" points="110.12 38.28 111.78 39.53 111.64 40.12 110.1 38.56 110.12 38.28"/>
        <path class="cls-4" d="M114.92,41.79c1.94-.36,2.41-4.47,1.26-5.31,3.17-.65,5.83-1.1,8.38-.63,1.88.73,4.62,1.76,6.4,1.26"/>
        <g>
          <path class="cls-3" d="M116.04,34.15c.23-.89,1.77-2.97,2.72-3.33.39,1.04,1.36,1.32,1.99,2.34.65-.73,1.3-1.45,1.95-2.18,1.55.37,3.53,1.51,4.63,2.51-.15.25-.32.5-.47.75-2.66-.99-7.49-1.21-10.83-.08,0,0,0,0,0,0Z"/>
          <line class="cls-4" x1="116.88" y1="33.93" x2="118.93" y2="31.17"/>
          <line class="cls-4" x1="117.86" y1="33.72" x2="119.31" y2="31.7"/>
          <line class="cls-4" x1="118.81" y1="33.56" x2="119.79" y2="32.1"/>
          <line class="cls-4" x1="119.64" y1="33.46" x2="120.18" y2="32.51"/>
          <line class="cls-4" x1="120.3" y1="33.41" x2="120.58" y2="32.94"/>
          <line class="cls-4" x1="121.39" y1="33.33" x2="123.19" y2="31.21"/>
          <line class="cls-4" x1="122.19" y1="33.34" x2="123.83" y2="31.35"/>
          <line class="cls-4" x1="122.92" y1="33.44" x2="124.42" y2="31.6"/>
          <line class="cls-4" x1="123.73" y1="33.45" x2="124.94" y2="31.86"/>
          <line class="cls-4" x1="124.43" y1="33.64" x2="125.5" y2="32.17"/>
          <line class="cls-4" x1="125.1" y1="33.77" x2="126" y2="32.48"/>
          <line class="cls-4" x1="125.75" y1="33.93" x2="126.46" y2="32.8"/>
          <line class="cls-4" x1="126.37" y1="34.03" x2="126.91" y2="33.13"/>
        </g>
        <g>
          <path class="cls-4" d="M117.66,38.7c.72.11,1.01,1.94.41,2.61"/>
          <path class="cls-3" d="M117.72,38.76c1.13-.75,3.33-1.27,4.47-1.09-.65.71-1.3,1.42-1.94,2.13l-1.84.26c-.02-.32-.39-1.13-.71-1.3h.02s0,0,0,0Z"/>
          <path class="cls-3" d="M118.06,39.15c.88-.61,2.72-1.17,3.73-1.06"/>
          <path class="cls-3" d="M118.23,39.46c.82-.45,2.19-.82,3.09-.84"/>
          <path class="cls-3" d="M118.35,39.8c.6-.33,1.7-.57,2.36-.51"/>
        </g>
      </g>
    </g>
  </g>
</svg>