<svg xmlns="http://www.w3.org/2000/svg" id="Layer_2" data-name="Layer 2" viewBox="0 0 433.2 854.2"><defs><style>.cls-1,.cls-2{fill:#f4d3c1;stroke-width:0}.cls-2{fill:#edc4b2}</style></defs><g id="Hand"><g id="Hand-2" data-name="Hand"><path d="m372.6 440.3-37 63-147 73-102-166c39-150 156-156.7 156-157l64 10 36.5 98.1 29.5 79Z" class="cls-1"/><path d="m242.6 253.3-45-96-13-65v-36c0-45 30-22 30-22l28.3 101.3 63.7 127.7-64-10Zm-156 157s-56.7-84.7-67.2-104.6C1.4 272-2.6 228 1.5 217.1c11-28.3 22-3.8 22-3.8L58.4 276l55.3 68.4-27 66Zm34-77L37.9 189.6 19.6 79.2s-4.2-13.9 14.7-13.9c18.8 0 47.3 106 47.3 106l82 116-43 46Zm51-52c-27.2-39-58.2-89.3-62-135-5-60-.3-102.6-.3-102.6S104.6-6.7 132 .7c24.5 6.7 35.6 139.6 35.6 139.6l63 115-59 26Zm150 23s16-26.4 14-65c-2-38 8-108 8-108 13-44 37-25 37-25l19 113-27 221-51-136ZM187.3 593.4c-12.4-61-16-124.7 69.7-139.5 52-9 55.4-32.7 68.5 15 1.7 6 109 288.9 107.7 298.2-9.8 76.2-127.4 95.1-177.1 84.2-6.1-1.3-68.7-257.2-68.9-258Z" class="cls-1"/><path d="M359.6 213.3c0 9.4-2 11-6 40-2 14.3-24 72-24 72l-8-21s15-37 14-52c-3.5-50 8-121 8-121s4-14 8-18c6-6 8 96 8 100ZM146.8 22s7 117.9 8.8 123.3c3 9 54.6 124.4 57 120 6-11 18-10 18-10s-63-110.5-63-115c0-45-20.8-118.2-20.8-118.2Z" class="cls-2"/><path d="m329.6 325.3-28.1-62-58.6-127.7 63.7 127.7 23 62zm-171-29c3.2 13-82-127-82-127S35.8 56.4 47.2 77.6c21.4 39.7 34.4 93.7 34.4 93.7l82 116s-6 5-5 9ZM30.4 225.7l24 55.6s57.2 75 57.2 73c0-5.4 2-10 2-10l-55-68-28.1-50.6Zm306.2 274.6 63 190.4 33.6 76.4-29.6-87.8-67-179z" class="cls-2"/></g></g></svg>