<svg xmlns="http://www.w3.org/2000/svg" data-name="Layer 2" viewBox="0 0 984.9 534.2"><g data-name="Layer 1"><path d="m99.7 23.4 15.5-5.2-11-10-4.5 15.2zm246.8 326.8 2.3-16.2-13.9 5.3 11.6 10.9zm45.8 81.3-5.1-15.5-10.2 10.9 15.3 4.6zM300.8 267l-6.7-14.9-8.9 11.8 15.6 3.1zm-87.1-41.4-9.9-13-6 13.7 15.9-.7zm-184.2.1-9.2-13.6-6.7 13.3 15.9.3zm-18.3-88.5 14.3-8.1-12.7-7.8-1.6 15.9zm50.7-51.7 16.4-.4-7.5-12.8-8.9 13.2zm63.6 129.3-15.2-5.9 2 14.7 13.2-8.8zm815.1 96.6 2.1 16.2 12-8.8-14.1-7.4zm37.3 94.7-7.9 14.3h14.9l-7-14.3zm-47.1 91-16.3.7 7.7 12.8 8.6-13.5zm-119.2 31.5-13.6-9.2-1.3 14.8 14.9-5.6zm-122.7-25.9-10.1-12.9-5.8 13.7 15.9-.8zm-91.4-42.3-8.7-13.9-7.2 13 15.9.9zm-99.9-30.5-14.3-7.9v14.9l14.3-7z" style="fill:#10110e;stroke-width:0"/><path d="M125.5.4a135.6 135.6 0 0 0-21 18c-21.2 22.3-13.5 44.3-34 62C62.8 87.1 62 84.1 49 94a127.8 127.8 0 0 0-30 31c-7.9 12-23.4 35.6-17 63 1.4 5.8 7.2 26.2 25 37 27 16.3 49.5-8.8 107-11 41.4-1.6 74 9.7 95 17 32 11.2 54.5 19 75 39 16.6 16.1 15 23.6 56 109 18 37.3 27.6 55.3 47 61a57.4 57.4 0 0 0 40-5c13.2-2.8 32.7-5.6 56-4 22.4 1.6 42.8 7 92 28a1412 1412 0 0 1 95 45c26 11.8 87 34.9 161 20 33.8-6.8 93-18.7 117-66 24.7-48.6 4.5-119.3-51-173" style="fill:none;stroke:#000;stroke-miterlimit:10"/></g></svg>