<svg xmlns="http://www.w3.org/2000/svg" data-name="Layer 2" viewBox="0 0 979.4 532.2"><g data-name="Layer 1"><path d="M125.5.4a135.6 135.6 0 0 0-21 18c-21.2 22.3-13.5 44.3-34 62C62.8 87.1 62 84.1 49 94a127.8 127.8 0 0 0-30 31c-7.9 12-23.4 35.6-17 63 1.4 5.8 7.2 26.2 25 37 27 16.3 49.5-8.8 107-11 41.4-1.6 74 9.7 95 17 32 11.2 54.5 19 75 39 16.6 16.1 15 23.6 56 109 18 37.3 27.6 55.3 47 61a57.4 57.4 0 0 0 40-5c13.2-2.8 32.7-5.6 56-4 22.4 1.6 42.8 7 92 28a1412 1412 0 0 1 95 45c26 11.8 87 34.9 161 20 33.8-6.8 93-18.7 117-66 24.7-48.6 4.5-119.3-51-173" style="fill:none;stroke:#000;stroke-miterlimit:10"/><path d="m938.5 308-2.4-16.2-11.8 9.1 14.2 7.1zM876 518.2l16.2 2.7-5-14.1-11.2 11.4zM104.4 17.5l-13.6 9.2 13.3 6.8.3-16zM73.7 77.6l-16.2 2.7L66.7 92l7-14.4zm-58.8 53.3-14.3 8 12.7 7.8 1.6-15.8zM26 224.2l11.4 11.7 4.4-14.2-15.8 2.5zm110.7-10 13.1 9.9 2.1-14.7-15.2 4.8zm98.2 18.2 11.9 11.3 3.8-14.3-15.7 3zm80.4 53 .9 16.3 12.6-7.9-13.5-8.4zm37 78 1 16.3 12.6-7.9-13.6-8.4zm52.4 75.6 12.9 10.2 2.4-14.6-15.3 4.4zm106.1-7.1 12.6 10.4 2.7-14.6-15.3 4.2zm112.7 39.8 9.4 13.4 6.5-13.4h-15.9zM743.7 522l12.9 10.2 2.4-14.6-15.3 4.4zm222.2-60.1 13.5-9.3L966 446l-.1 15.9zm7.4-86 5.7-15.4-14.7 2.2 9 13.2z" style="fill:#10110e;stroke-width:0"/></g></svg>