<?xml version="1.0" encoding="UTF-8"?>
<svg id="Layer_2" data-name="Layer 2" xmlns="http://www.w3.org/2000/svg" viewBox="0 0 1173.6 670.11">
  <defs>
    <style>
      .cls-1 {
        stroke: #264500;
      }

      .cls-1, .cls-2, .cls-3, .cls-4, .cls-5, .cls-6, .cls-7, .cls-8, .cls-9 {
        stroke-miterlimit: 10;
      }

      .cls-1, .cls-5 {
        fill: #0f7237;
      }

      .cls-10 {
        fill: #043020;
      }

      .cls-10, .cls-11, .cls-12, .cls-13, .cls-14, .cls-15, .cls-16, .cls-17, .cls-18, .cls-19, .cls-20 {
        stroke-width: 0px;
      }

      .cls-2 {
        fill: none;
      }

      .cls-2, .cls-3 {
        stroke: #2de700;
      }

      .cls-11 {
        fill: #6b6b6a;
      }

      .cls-3, .cls-4 {
        fill: #3c6;
      }

      .cls-4 {
        stroke: #148c3f;
      }

      .cls-5 {
        stroke: #000;
      }

      .cls-6 {
        fill: #32b259;
        stroke: #00a202;
      }

      .cls-12 {
        fill: #020202;
      }

      .cls-13 {
        fill: #444342;
      }

      .cls-7 {
        fill: #136d55;
        stroke: #005c24;
      }

      .cls-8 {
        fill: #c4bbbb;
        stroke: #171300;
      }

      .cls-14 {
        fill: #000;
      }

      .cls-15 {
        fill: #df0;
      }

      .cls-16 {
        fill: #5e5e5e;
      }

      .cls-17 {
        fill: #293a30;
      }

      .cls-18 {
        fill: #d5e53c;
      }

      .cls-19 {
        fill: #262625;
      }

      .cls-20 {
        fill: #fff;
      }

      .cls-9 {
        fill: #7ddb9a;
        stroke: #0062a2;
      }
    </style>
  </defs>
  <g id="Layer_2-2" data-name="Layer 2">
    <g id="Layer_1-2" data-name="Layer 1-2">
      <g>
        <polygon class="cls-10" points="23 542.81 23 656.11 32 656.11 41 648.81 39 543.81 23 542.81"/>
        <path class="cls-10" d="M1124.8,400.71v11.8c-.4,1.4-1.6,4.5-4.5,7.2-3.2,3-6.7,3.6-8,3.8v65.5l23.2,1v-94.7l-10.7,5.5h0v-.1Z"/>
        <polygon class="cls-10" points="24.4 609.91 24.7 624.71 132 637.81 132 623.91 24.4 609.91"/>
        <g id="green-container">
          <path class="cls-3" d="M211.5,107.51L336.5,8.51,380.5.51l299,42-83,70-2,145c-58.3,7.4-116.7,14.7-175,22.1v-147c-69.3-8.4-138.7-16.7-208-25.1Z"/>
          <path class="cls-6" d="M212,107.11v371.8l203.9,26.6c1.2-124.3,2.4-248.6,3.6-372.9-69.2-8.5-138.3-17-207.5-25.5h0Z"/>
          <polygon class="cls-6" points="679.5 41.51 679.5 410.71 617.5 462.51 617.5 384.01 595.5 259.51 596.5 111.51 679.5 41.51"/>
          <polygon class="cls-7" points="417.2 505.41 441.2 523.11 441.2 407.41 423.2 279.41 419.6 279.41 417.2 505.41"/>
          <polygon class="cls-4" points="442.5 407.11 618 383.61 618 498.01 442.5 522.81 442.5 407.11"/>
          <polygon class="cls-9" points="425 280.31 442.7 407.11 618 384.41 595.3 258.11 425 280.31"/>
          <line class="cls-2" x1="596.5" y1="111.51" x2="419.9" y2="132.71"/>
          <g>
            <polygon class="cls-20" points="472.1 311.91 473.9 320.61 484.9 319.31 483.2 310.31 472.1 311.91"/>
            <polygon class="cls-20" points="495.9 308.81 497.6 317.51 508.6 316.31 506.9 307.21 495.9 308.81"/>
            <polygon class="cls-20" points="519.9 306.81 521.6 315.51 532.6 314.31 530.9 305.21 519.9 306.81"/>
            <polygon class="cls-20" points="542.9 303.81 544.6 312.51 555.6 311.31 553.9 302.21 542.9 303.81"/>
            <polygon class="cls-20" points="546.9 320.81 548.6 329.51 559.6 328.31 557.9 319.21 546.9 320.81"/>
            <polygon class="cls-20" points="549.9 336.81 551.6 345.51 562.6 344.31 560.9 335.21 549.9 336.81"/>
            <polygon class="cls-20" points="523.9 323.81 525.6 332.51 536.6 331.31 534.9 322.21 523.9 323.81"/>
            <polygon class="cls-20" points="526.9 339.81 528.6 348.51 539.6 347.31 537.9 338.21 526.9 339.81"/>
            <polygon class="cls-20" points="498.9 325.81 500.6 334.51 511.6 333.31 509.9 324.21 498.9 325.81"/>
            <polygon class="cls-20" points="478.9 345.81 480.6 354.51 491.6 353.31 489.9 344.21 478.9 345.81"/>
            <polygon class="cls-20" points="501.9 342.81 503.6 351.51 514.6 350.31 512.9 341.21 501.9 342.81"/>
            <polygon class="cls-20" points="475.9 328.81 477.6 337.51 488.6 336.31 486.9 327.21 475.9 328.81"/>
          </g>
        </g>
        <g id="rulleb책nd-Right">
          <path class="cls-11" d="M637.2,255.31c-11.1,9.5-22.2,19.1-33.2,28.7.3,2.2.6,4.4.9,6.6,169.5,26,339,52.1,508.5,78.1l48.2-36-524.3-77.3h0l-.1-.1Z"/>
          <polygon class="cls-10" points="763.8 403.01 791.5 377.91 773.7 375.01 763.8 383.71 763.8 403.01"/>
          <polygon class="cls-10" points="760.7 430.91 760.7 450.31 803.6 411.01 785.7 410.01 760.7 430.91"/>
          <polygon class="cls-10" points="784.3 375.91 784.3 411.41 801.7 412.31 783.5 429.51 783.5 442.51 806.1 443.31 806.1 378.21 784.3 375.91"/>
          <polygon class="cls-10" points="742 365.61 742 479.41 765.2 482.31 765.2 369.81 742 365.61"/>
          <path class="cls-5" d="M603.5,290.11l10.9,61.3,500.7,72.9c2.6-1.4,7.5-4.5,10.7-10.4,3.1-5.8,2.9-11.2,2.7-19-.2-7.5-.4-12.7-3.6-18-3.3-5.5-8.1-8.2-10.7-9.5-170.2-25.8-340.5-51.5-510.7-77.3h0Z"/>
          <path class="cls-5" d="M611.8,244.11c-1.3,2.4-2.5,4.7-3.8,7.1,183.5,26.7,367,53.4,550.5,80.1,1.5,1.7,11.1,12.8,9.4,28.6-1.3,11.5-7.9,19-9.4,20.7-2.1,2.3-4.1,3.9-5.6,4.9,2.4.1,10.8.3,16.9-5.9,1.4-1.5,2.5-3,3.3-4.4v-36.7c0-1.2,0-4.8-2.3-8.1-3.2-4.6-8.1-5.3-8.9-5.4-183.3-26.9-366.6-53.9-550-80.8h0l-.1-.1Z"/>
          <path class="cls-11" d="M1115,367.11c2.1,1.2,5.2,3.4,8,7,3.3,4.4,4.4,8.8,5.1,11.9.7,3.2.8,5.9.9,11.4v6.7c11.3-9.5,18.3-14.8,23-18,1.5-1,4.1-3,7-6,2.4-2.5,3.8-5.1,6-9,1-1.9,1.5-2.8,2-4,.3-.8,1.5-4,1.3-9.6,0-1.2-.3-7.1-3.3-14.4-1-2.4-2.6-5.5-5-9l-45,33h0Z"/>
          <path class="cls-10" d="M1066.7,417.31l-1.8,112.9,22.3,1.9c.6-1.5,1.2-2.9,1.8-4.3.3-35.7.6-71.5.9-107.2-7.7-1.1-15.5-2.2-23.2-3.2h0v-.1Z"/>
          <polygon class="cls-10" points="1087.2 472.51 1112.2 453.01 1112.2 473.41 1087.2 492.81 1087.2 472.51"/>
          <polygon class="cls-10" points="1089.5 428.31 1100 421.81 1119.7 424.01 1089 449.21 1089.5 428.31"/>
          <path class="cls-16" d="M604.1,284.01c.9-1.1,1.8-2.4,2.5-3.9,4.9-9.2,3.6-19,2.7-23.7l-2.7-5.4,29.5,5.2-32,27.8h0Z"/>
        </g>
        <g>
          <path class="cls-10" d="M604,152.01l67-54h3.2c-.4,51-.8,102.1-1.2,153.1-23-.7-46-1.3-69-2v-97.1h0Z"/>
          <polygon class="cls-12" points="604 152.01 611 146.21 611 275.01 605 280.21 604 152.01"/>
          <path class="cls-12" d="M613,145.11v126.3l7-5c-.3-42.1-.7-84.2-1-126.3-2,1.7-4,3.3-6,5Z"/>
          <path class="cls-12" d="M622,137.41v126.8l7-4.8v-127.3c-2.3,1.8-4.7,3.5-7,5.3Z"/>
          <polygon class="cls-12" points="633 129.51 633 256.31 640 251.51 640 123.51 633 129.51"/>
          <polygon class="cls-12" points="644 120.51 644 247.31 651 242.51 651 114.51 644 120.51"/>
          <polygon class="cls-12" points="654 112.51 654 239.31 661 234.51 661 106.51 654 112.51"/>
          <path class="cls-12" d="M666,102.51v126.8l7-4.8c.3-42.1.7-84.3,1-126.4-.7-.2-1.8-.3-3,0"/>
          <g id="right-traffic-color">
            <polygon class="cls-17" points="607.3 117.21 607.8 134.71 666.6 86.71 666.2 71.11 607.3 117.21"/>
            <path class="cls-15" d="M613,117.21l.5,9.2,9.6-8.1-.5-8.5c-3.2,2.5-6.4,5-9.6,7.5h0v-.1Z"/>
            <path class="cls-15" d="M632.9,101.91c.2,2.9.4,5.7.6,8.6l9.5-7.8-.6-8c-3.2,2.4-6.3,4.8-9.5,7.3h0v-.1Z"/>
            <path class="cls-15" d="M651.8,87.51c.2,2.7.3,5.3.5,8l8.8-7.2-.5-7.5c-2.9,2.2-5.9,4.5-8.8,6.7h0Z"/>
          </g>
        </g>
        <g id="TV">
          <polygon class="cls-8" points="463.1 168.31 563.9 156.71 564.9 219.61 464.1 233.31 463.1 168.31"/>
          <polygon class="cls-12" points="464 168.61 458 163.61 458 241.61 464 237.61 464 168.61"/>
          <polygon class="cls-12" points="562.6 156.91 569 150.11 457.9 163.91 464.3 169.21 562.6 156.91"/>
          <path class="cls-12" d="M569,226.61l-6-6.5c-33,4.4-65.9,8.8-98.9,13.2l-6.1,8.3,111-15Z"/>
          <polygon class="cls-12" points="563 221.71 569 226.61 569 150.11 563 154.01 563 221.71"/>
        </g>
        <g id="left_rulleb책nd" data-name="left rulleb책nd">
          <polygon class="cls-10" points="119 559.81 119 670.11 130.1 670.11 137 663.81 138 545.81 119 559.81"/>
          <polygon class="cls-10" points="23.4 573.21 134 586.31 134 601.81 23.7 587.51 23.4 573.21"/>
          <polygon class="cls-11" points="264.6 301.01 394.3 317.31 394.2 320.01 134.9 520.51 8 511.51 264.6 301.01"/>
          <polygon class="cls-10" points="287.3 442.21 287.3 562.31 279.3 568.21 269.6 568.21 269.6 455.41 287.3 442.21"/>
          <path class="cls-1" d="M397.5,314.11v60c.1,0-247.9,198-247.9,198-2.4.8-5.8,1.4-9,0-10.8-4.6-9.2-27.2-9-30,.4-5.5,2-16.1,10-28l255.9-200Z"/>
          <path class="cls-10" d="M274.3,489.21l-19.5-1.2c-4.6,3.7-9.2,7.4-13.8,11.1,10.9.8,21.7,1.5,32.6,2.3l.7-12.2h0Z"/>
          <path class="cls-10" d="M274,525.91c-19.7-1.9-39.3-3.9-59-5.8-4.7,3.7-9.3,7.3-14,11,24.3,2.6,48.7,5.2,73,7.9v-13.1h0Z"/>
          <path class="cls-11" d="M139.5,516.41c-3,5.1-4.6,9.6-5.5,12.7-.9,3.3-1.4,6-2,10-.7,4.2-1,6.6-1,10,0,4.1.6,7.2,1,9,.7,3.2,1.5,6.6,4,10,.8,1,1.5,1.8,2.1,2.4-40.5-5-81-9.9-121.6-14.9l-6-8v-39"/>
        </g>
        <g id="garidner-left">
          <polygon class="cls-10" points="229.4 327.91 228.6 164.51 399.1 187.01 398.1 320.11 270.1 304.01 258.3 304.01 229.4 327.91"/>
          <polygon class="cls-17" points="242 130.41 389 150.61 389 168.91 242 149.61 242 130.41"/>
          <polygon class="cls-10" points="398 373.01 398 429.71 337.5 420.41 398 372.01 398 373.01"/>
          <path class="cls-13" d="M264,301.01l109.4-76.4,25.6,6.5c-.7,28-1.3,56-2,84-44.3-4.7-88.7-9.4-133-14.1Z"/>
          <polygon class="cls-18" points="255 137.21 255 146.71 274 149.21 274 139.91 255 137.21"/>
          <polygon class="cls-18" points="302 144.21 302 153.71 321 156.21 321 146.91 302 144.21"/>
          <polygon class="cls-18" points="349 150.21 349 159.71 368 162.21 368 152.91 349 150.21"/>
          <path class="cls-14" d="M378,184.11c-.3,43.7-.7,87.3-1,131h-15.9c0-44.4,0-88.7-.1-133.1,5.7.7,11.3,1.3,17,2h0v.1Z"/>
          <path class="cls-14" d="M358.1,181.71c-.3,43.7-.7,87.3-1,131h-15.9c0-44.4,0-88.7-.1-133.1,5.7.7,11.3,1.3,17,2v.1Z"/>
          <path class="cls-14" d="M338.1,178.71c-.3,43.7-.7,87.3-1,131h-15.9c0-44.4,0-88.7-.1-133.1,5.7.7,11.3,1.3,17,2v.1Z"/>
          <path class="cls-14" d="M316.1,175.71c-.3,43.7-.7,87.3-1,131h-15.9c0-44.4,0-88.7-.1-133.1,5.7.7,11.3,1.3,17,2v.1Z"/>
          <path class="cls-14" d="M295.1,172.71c-.3,43.7-.7,87.3-1,131h-15.9c0-44.4,0-88.7-.1-133.1,5.7.7,11.3,1.3,17,2v.1Z"/>
          <path class="cls-14" d="M274.1,170.71c-.3,43.7-.7,87.3-1,131h-15.9c0-44.4,0-88.7-.1-133.1,5.7.7,11.3,1.3,17,2v.1Z"/>
          <path class="cls-14" d="M399.1,186.71c-.3,43.7-.7,87.3-1,131h-15.9c0-44.4,0-88.7-.1-133.1,5.7.7,11.3,1.3,17,2v.1Z"/>
          <path class="cls-14" d="M253.1,167.71c-.3,43.7-.7,87.3-1,131h-15.9c0-44.4,0-88.7-.1-133.1,5.7.7,11.3,1.3,17,2v.1Z"/>
        </g>
        <path id="green-patch-left" class="cls-1" d="M254.5,302.61h8c-84,68.7-168,137.3-252,206v39c2,2.7,4,5.3,6,8-1.8,2.7-4.9,4.2-8,4-3.8-.3-7-3.1-8-7v-43.5c.4-1.5,1.2-4,3-6.5,1.4-1.9,2.8-3.1,3.6-3.7.2-.2.4-.3.4-.3,1.5-1,74.9-59.4,247-196Z"/>
        <g id="stripes-rulleb책nd">
          <polygon class="cls-19" points="256.3 307.81 253.9 309.81 379.8 327.91 382.9 325.51 256.3 307.81"/>
          <polygon class="cls-19" points="243.3 319.51 240.9 321.51 366.8 339.61 369.9 337.21 243.3 319.51"/>
          <polygon class="cls-19" points="156.1 390.51 153.8 392.41 274 410.11 277 407.71 156.1 390.51"/>
          <polygon class="cls-19" points="225.2 332.51 222.8 334.51 348.8 352.71 351.9 350.21 225.2 332.51"/>
          <polygon class="cls-19" points="209.2 346.51 206.8 348.61 330 367.11 333 364.61 209.2 346.51"/>
          <polygon class="cls-19" points="175.1 374.41 172.8 376.41 294 394.11 297 391.71 175.1 374.41"/>
          <polygon class="cls-19" points="190.5 361.51 188.1 363.51 311 382.11 314 379.61 190.5 361.51"/>
          <polygon class="cls-19" points="136.4 406.91 134.1 408.91 252.1 427.11 255 424.71 136.4 406.91"/>
          <polygon class="cls-19" points="110.4 426.91 108.1 428.91 228.1 447.11 231 444.71 110.4 426.91"/>
          <polygon class="cls-19" points="88.3 446.91 86.1 448.81 202.1 466.11 205 463.81 88.3 446.91"/>
          <polygon class="cls-19" points="63.4 467.01 61.2 468.71 178.1 485.11 181 482.91 63.4 467.01"/>
          <polygon class="cls-19" points="37.2 487.11 35 489.01 151.1 506.11 154 503.81 37.2 487.11"/>
          <path class="cls-19" d="M14,506.11c-1.3,1.2-2.6,2.4-4,3.6l126,14.5c.3-.7.6-1.4,1-2.1-41-5.3-82-10.7-123-16h0Z"/>
          <polygon class="cls-19" points="11 531.11 11 534.31 131.4 547.01 131.9 544.51 11 531.11"/>
        </g>
        <g id="right-stripes">
          <path class="cls-19" d="M603.3,289.61c11.9-11.4,23.8-22.8,35.7-34.1l1.4.6c-11.7,11.3-23.3,22.6-35,34-.7-.1-1.5-.3-2.2-.4l.1-.1Z"/>
          <path class="cls-19" d="M624.9,291.91c11.9-11.4,23.8-22.8,35.7-34.1l1.4.6c-11.7,11.3-23.3,22.6-35,34-.7-.1-1.5-.3-2.2-.4l.1-.1Z"/>
          <path class="cls-19" d="M645.2,295.21c11.9-11.4,23.8-22.8,35.7-34.1l1.4.6c-11.7,11.3-23.3,22.6-35,34-.7-.1-1.5-.3-2.2-.4l.1-.1Z"/>
          <path class="cls-19" d="M666.9,299.91c11.9-11.4,23.8-22.8,35.7-34.1l1.4.6c-11.7,11.3-23.3,22.6-35,34-.7-.1-1.5-.3-2.2-.4l.1-.1Z"/>
          <path class="cls-19" d="M690.5,302.51c11.9-11.4,23.8-22.8,35.7-34.1l1.4.6c-11.7,11.3-23.3,22.6-35,34-.7-.1-1.5-.3-2.2-.4h0l.1-.1Z"/>
          <path class="cls-19" d="M710.2,305.31c11.9-11.4,23.8-22.8,35.7-34.1l1.4.6c-11.7,11.3-23.3,22.6-35,34-.7-.1-1.5-.3-2.2-.4h0l.1-.1Z"/>
          <path class="cls-19" d="M735,309.11c11.9-11.4,23.8-22.8,35.7-34.1l1.4.6c-11.7,11.3-23.3,22.6-35,34-.7-.1-1.5-.3-2.2-.4h0l.1-.1Z"/>
          <path class="cls-19" d="M757.3,312.91c11.9-11.4,23.8-22.8,35.7-34.1l1.4.6c-11.7,11.3-23.3,22.6-35,34-.7-.1-1.5-.3-2.2-.4h0l.1-.1Z"/>
          <path class="cls-19" d="M782,317.11l36.2-35.6c.5.2.9.4,1.4.6-11.9,11.7-23.7,23.4-35.6,35h-2Z"/>
          <path class="cls-19" d="M807,320.11c11.9-11.6,23.7-23.2,35.6-34.9.5.2.9.4,1.4.6-11.7,11.4-23.3,22.8-35,34.2h-2v.1Z"/>
          <path class="cls-19" d="M830,324.11c12.1-11.9,24.2-23.7,36.3-35.6.5.2.9.4,1.4.6-11.9,11.7-23.8,23.3-35.7,35h-2Z"/>
          <path class="cls-19" d="M855,328.11c12.3-11.9,24.5-23.8,36.8-35.7.5.2.9.4,1.4.6-12.1,11.7-24.2,23.4-36.2,35.1h-2Z"/>
          <path class="cls-19" d="M879.7,331.31c12.1-11.8,24.2-23.5,36.3-35.2l1,1c-11.7,11.5-23.4,23.1-35.1,34.7-.7-.1-1.5-.3-2.2-.4h0v-.1Z"/>
          <path class="cls-19" d="M908,336.11c12.1-11.9,24.1-23.8,36.2-35.7.5.2.9.4,1.4.6-11.9,11.7-23.7,23.4-35.6,35.1h-2Z"/>
          <path class="cls-19" d="M937.3,339.81c11.9-11.4,23.8-22.8,35.7-34.2l1.4.6c-11.7,11.3-23.3,22.6-35,34-.7-.1-1.5-.3-2.2-.4h.1Z"/>
          <path class="cls-19" d="M965,344.11c11.9-11.4,23.8-22.8,35.7-34.2l1.4.6c-11.7,11.3-23.3,22.6-35,34-.7-.1-1.5-.3-2.2-.4h.1Z"/>
          <path class="cls-19" d="M996,349.11c12.5-12,24.9-24,37.4-36,.5.2.9.4,1.4.6-12.3,11.8-24.5,23.6-36.8,35.4h-2Z"/>
          <path class="cls-19" d="M1024,353.11c12.4-12,24.7-24,37.1-35.9.5.2.9.4,1.4.6-12.2,11.8-24.3,23.5-36.5,35.3h-2Z"/>
          <path class="cls-19" d="M1054,358.11c12.3-12,24.7-24,37-36h2c-12.3,12-24.7,24-37,36h-2Z"/>
          <path class="cls-19" d="M1088,363.11c12.3-12,24.7-24,37-36h2c-12.3,12-24.7,24-37,36h-2Z"/>
          <path class="cls-19" d="M1113.1,367.41c13.9-12.1,27.9-24.2,41.9-36.3h2c-14,12.3-28,24.7-42,37-.6-.2-1.2-.5-1.9-.7Z"/>
          <path class="cls-19" d="M1126.1,381.91c13.3-11.9,26.6-23.9,39.9-35.8v2l-38.9,35.8-1-2h0Z"/>
        </g>
      </g>
    </g>
  </g>
</svg>