<svg xmlns="http://www.w3.org/2000/svg" id="Layer_2" viewBox="0 0 814.2 659.5"><defs><style>.cls-1{fill:#777677}.cls-1,.cls-10,.cls-11,.cls-12,.cls-13,.cls-14,.cls-15,.cls-16,.cls-17,.cls-18,.cls-2,.cls-20,.cls-21,.cls-22,.cls-23,.cls-24,.cls-25,.cls-27,.cls-3,.cls-4,.cls-6,.cls-7,.cls-8,.cls-9{stroke-width:0}.cls-2{fill:#06ccd5}.cls-3{fill:#f77b25}.cls-4{fill:#5e5955}.cls-6{fill:#b81f19}.cls-7{fill:#1b5c78}.cls-8{fill:#a5a5a5}.cls-9{fill:#261825}.cls-10{fill:#fdfdfd}.cls-11{fill:#fccd57}.cls-12{fill:#ffa526}.cls-13{fill:#ffad49}.cls-14{fill:#383838}.cls-15{fill:#ff5151}.cls-16{fill:#23b6ac}.cls-17{fill:#bab9b9}.cls-18{fill:#e53537}.cls-20{fill:#fff}.cls-21{fill:#ced7de}.cls-22{fill:#1d7ba1}.cls-23{fill:#dbdee5}.cls-24{fill:#0b8882}.cls-25{fill:#1b949c}.cls-27{fill:#f66021}</style></defs><g id="Layer_3"><path d="M813.7 266.6 797 277 333 570l-.3.2-.2-.3-25.7-4h-.6l-21.2-3.3a404 404 0 0 1-16.7 9.8v.1c-10.5 5.5-21 10.6-31.4 15.2-43.3 20.3-86 31.7-123 33.7h-2a194 194 0 0 1-28-.6c47.3 19.5 111.3 33.1 183.5 37.5 66.3 21.5 430.2-233.2 491.8-259l55-131.9-.5-.7ZM0 539a49.3 49.3 0 0 0 .2 0H0Z" style="fill:#123650;stroke-width:0"/><path d="m370 655.6.3-.2h-.5l.2.2zm.3-.2h.1-.1z" style="fill:#d32484;stroke-width:0"/><path d="m150.3 347-.3.1h.4l-.1-.1ZM5.9 570.7c41 46.7 146.7 39.3 250-17.4h-.1.2l15-8.8-81.4-131.6-40.4-65.2C60.8 403.9 1.8 478.7.2 538.9v3.7a78 78 0 0 0 15.7 47c14.7 17.8 38.5 28.1 68 31.1 4.6.5 9.4.7 14.2.8-41.9-1-75-16.5-92.2-50.8ZM221.5 541 151 584l-23-34v-11.8l7.3 11.5-7-11.4h-.2l71.6-44.3 22.3 36.1-.6.4V541Zm-67.7-150.5-.1-.3-.4-.7.6 1Zm-95.7 39.7 7.3 11.5-7-11.4h-.2l71.6-44.3 22.3 36.1-.6.4V433L81 476l-23-34v-11.8Zm54.4 191.1h-.6.6ZM237 587.6c-43.8 19.5-86.3 31.6-123.2 33.7 37-2 79.8-13.4 123.1-33.7Z" style="fill:#8d8b8c;stroke-width:0"/><path d="m231.6 405.8 101.5 164L796.9 277l16.9-10.4.3-.2-35-56.5-3.7 7.4.2.3h-.4l-.3.7 1-.6-17.1 33.7-73.4 43.2-86-142.2 15.9-31.1-.4-.6 17-33.7.2.2 4.1-8-105.5 66.5 6.4 10.4-.6.4v18.6l.6 1-.6.4V195l.6 1.1-.6.4v3.3l14.3-8.8 22.2 36-.6.4V246l.6 1.1-.6.4V266l.2.4 20-12.4 22.4 36-.6.5V309l.6 1-.6.4v17.7l.6 1-.6.3V348L544 391.9 521 356v-18.8l7.4 11.5-2.8-4.5-4.5-7.2v-18.8l7.3 11.5-7-11.5h-.2l.5-.3-.2-.2-15.5 9.7 12.1 19.7-.6.3V366l.6 1-.6.4V386l.6 1-.6.4V406L447 450l-22.9-36v-18.8l7.3 11.5-7-11.4h-.1l.4-.3-.6-1v-18l-18.4 11.5 13.4 21.6-.6.4V428l.6 1.1-.6.4V448l.6 1.1-.6.4V468L348 512l-22.9-36v-18.8l7.4 11.5-7.1-11.5h-.1l.4-.3-.6-.9v-18.8l7.4 11.5-7.1-11.5h-.1l.4-.3-.5-.9v-.8L308 445.8 285.2 410v-18.8l7.3 11.5-7-11.5h-.2l.4-.3-.5-.9v-18.8l7.3 11.5-2.8-4.5-4.5-7.2v-.5l-15.1 9.4-23-35.9v-18.8l7.4 11.5-7-11.5h-.2l.5-.3-.4-.5-47.9 30.2.7.2 31.5 50.9Z" class="cls-8"/><path d="M437.5 217.5v18.6l.6 1-.6.4V256l.6 1.1-.6.4v1.6l16.3-10.1 22.2 36-.6.4V304l.6 1.1-.6.4v18l16-10L479 294v-18.8l7.3 11.5-7-11.5h-.2l.5-.3-.6-.9v-18.8l7.3 11.5-7-11.5h-.1l.4-.3-.6-.9v-3.3l-13 8.2-23-35.9v-18.8l7.4 11.5-7.1-11.5h-.1l.4-.3-.6-.9v-2l-10.7 6.8 5.7 9.4-.6.3Zm-97 60V296l.6 1.1-.6.4V316l.6 1.1-.6.4v.5l16.3-10 22.2 36-.6.4V362l.6 1-.6.4V382l.6 1.1-.6.4v.8l17.3-10.8L382 352v-18.8l7.3 11.5-7-11.5h-.2l.5-.3-.6-.9v-18.8l7.3 11.5-7-11.5h-.1l.4-.3-.6-.9v-1.5l-15 9.4-23-35.9v-18.8l7.4 11.5-7.1-11.5h-.1l.4-.3-.6-.9v-.7l-8.2 5.2 5.2 8.6-.6.3Zm90.9 109.2-6.8-11-.1.1 7 11Zm54.8-140.3.2.3-.2-.3ZM332.7 570.1l.3-.2-.5-.1.2.3z" class="cls-8"/><path d="M271 544.5c-5 3-10 6-15 8.8h-.2C152.6 610 46.8 617.4 6 570.7c17.2 34.3 50.3 49.9 92.2 50.9a188.2 188.2 0 0 0 14.4-.2l1.3-.1c37-2.1 79.4-14.2 123.1-33.7a577 577 0 0 0 31.4-15.2c5.6-3.2 11.2-6.5 16.7-10l21.2 3.4h.6l25.7 4h.5l-101.4-164-31.5-51h-.6l-49.1-7.6h-.4l-1.3-.3.5.8 40.3 65.2L271 544.5Z" class="cls-1"/><path d="M153.8 390.5h.1l-.7-1 .5.7.1.3z" class="cls-1"/><path d="m443.7 204-.5.2h.1l7.1 11.5 15.6 24.4 70.5-44v.4l.6-.4-.7-1L466 239l-22.4-35Z" class="cls-13"/><path d="m466 240.1-15.6-24.4-7.3-11.5v18.9L466 259v-18.9z" class="cls-3"/><path d="M466 240.1V259l13.1-8.2v-15.6l7.1 11.2c-3-5-5.6-9.2-6.9-11.1s57.2-35.5 57.2-35.5v-3.6L466 240Z" class="cls-27"/><path d="M437.5 257.2v.3l.6-.4-.7-1L367 300l-22.3-35-.5.2h.1l7.1 11.5 15.6 24.4 70.5-44Z" class="cls-13"/><path d="m367 301.1-15.6-24.4-7.3-11.5v18.9L367 320v-18.9z" class="cls-16"/><path d="m389.4 304.7-7-11.4h-.1l55.2-34.2v-2l-70.5 44V320l15.1-9.5v-17.3l7.4 11.5Z" class="cls-24"/><path d="M340.5 317.2v.3l.6-.4-.7-1L270 360l-22.3-35-.5.2h.1l7.1 11.5 15.6 24.4 70.5-44Z" class="cls-13"/><path d="m270 361.1-15.6-24.4-7.3-11.5v18.9L270 380v-18.9z" class="cls-23"/><path d="m292.4 363.7-7-11.4h-.1l55.2-34.2v-1l-70.5 44V380l15.1-9.5v-18.3l7.4 11.5Z" class="cls-21"/><path d="m308 427.1 70.5-44v.4l.6-.4-.7-1L308 426l-22.3-35-.5.2h.1l7.1 11.5 15.6 24.4Z" class="cls-13"/><path d="m308 427.1-15.6-24.4-7.3-11.5v18.9L308 446v-18.9z" class="cls-3"/><path d="m332.4 428.7-7-11.4h-.1l53.2-33v-1.1L308 427v19l17.1-10.7v-18l7.4 11.4Z" class="cls-27"/><path d="m81 466.1 70.5-44v.4l.6-.4-22.3-36-71.6 44.1h.1l7.1 11.5L81 466.1Z" class="cls-20"/><path d="M81 476v-9.9l-15.6-24.4-7.3-11.5V442L81 476z" class="cls-17"/><path d="M81 466.1v9.9l70.5-43v-10.8L81 466.1z" class="cls-8"/><path d="m199.8 494-71.6 44.2h.1l7.1 11.5 15.6 24.4 70.5-43.9v.3l.6-.3-22.3-36.2Z" class="cls-20"/><path d="m151 574.1-15.6-24.4-7.3-11.5V550l22.9 34v-9.9z" class="cls-17"/><path d="M151 574.1v9.9l70.5-43v-10.8L151 574.1z" class="cls-8"/><path d="m325.7 457-.5.2h.1l7.1 11.5 15.6 24.4 70.5-44v.4l.6-.4-.7-1L348 492l-22.4-35Z" class="cls-13"/><path d="m348 493.1-15.6-24.4-7.3-11.5v18.9L348 512v-18.9z" class="cls-16"/><path d="M348 493.1V512l70.5-43.9v-18.9L348 493.1z" class="cls-24"/><path d="m348 472-22.3-35-.5.2h.1l7.1 11.5 15.6 24.4 70.5-44v.4l.6-.4-.7-1L348 472Z" class="cls-13"/><path d="m348 473.1-15.6-24.4-7.3-11.5v18.9l.6.9 22.3 35v-18.9z" class="cls-11"/><path d="M348 473.1V492l70.4-43.9h.1v-18.9L348 473.1z" class="cls-12"/><path d="m395.8 373.6-17.3 10.7-53.3 33h.1l7.1 11.4 15.6 24.4 70.5-43.9v.3l.6-.3-13.4-21.7-.7.5-9.2-14.4Z" class="cls-13"/><path d="M348 472v-18.9l-15.6-24.4-7.3-11.5v18.9l.6.9 22.3 35z" class="cls-3"/><path d="M348 453.1V472l70.4-43.9h.1v-18.9L348 453.1z" class="cls-27"/><path d="m308 407.1 70.5-44v.4l.6-.4-.6-1v1L308 407l-18.3-28.8 2.7 4.5 15.6 24.4Z" class="cls-13"/><path d="M308 426v-18.9l-15.6-24.4-7.3-11.5v18.9l.6.9 22.3 35z" class="cls-22"/><path d="M308 407.1V426l70.4-43.9h.1v-18.9L308 407.1z" class="cls-7"/><path d="m270 341.1 70.5-44v.4l.6-.4-.7-1L270 340l-22.3-35-.5.2h.1l7.1 11.5 15.6 24.4Z" class="cls-13"/><path d="M270 360v-18.9l-15.6-24.4-7.3-11.5v18.9l.2.4.4.5 22.3 35z" class="cls-11"/><path d="M340.5 316.1v-18.9L270 341.1V360l70.4-43.9h.1z" class="cls-12"/><path d="m424.7 395-.5.2h.1l7.1 11.5 15.6 24.4 70.5-44v.4l.6-.4-.7-1L447 430l-22.4-35Z" class="cls-13"/><path d="m447 431.1-15.6-24.4-7.3-11.5v18.9L447 450v-18.9z" class="cls-18"/><path d="M447 431.1V450l70.5-43.9v-18.9L447 431.1z" class="cls-6"/><path d="m544 373-18.3-28.8 2.7 4.5 15.6 24.4 70.5-44v.4l.6-.4-.6-1v1L544 373Z" class="cls-13"/><path d="m544 373.1-15.6-24.4-7.3-11.5v18.9L544 392v-18.9z" class="cls-22"/><path d="M544 373.1V392l70.5-43.9v-18.9L544 373.1z" class="cls-7"/><path d="M424.1 357.2V356L405 368l-22.3-35-.5.2h.1l7.1 11.5 15.6 24.4 19-12Zm.9-.6h.1l-.5-.9-.1.1.5.8Z" class="cls-13"/><path d="M405 388v-18.9l-15.6-24.4-7.3-11.5v18.9l13.7 21.5L405 388z" class="cls-2"/><path d="M424.5 375.8h.1c0-.2-.2-.4-.3-.5s.4-.3.4-.3l-.6-1v-16.8L405 369v19l.7-.5 18.4-11.5v-.8l.4.6Zm6.9-9.1-6.3-10.2-.1.1 6.4 10.1Z" class="cls-25"/><path d="m479.7 275-.5.2h.1l7.1 11.5 15.6 24.4 19-12v-.9l.5.7h.2l6.7 10.8 15.6 24.4 70.5-44v.4l.6-.4-22.4-36-20 12.3-.3-.3L502 310l-22.4-35Z" class="cls-13"/><path d="M502 321.1v-10l-15.6-24.4-7.3-11.5v18.9l12.5 19.5 4.2-2.6 6.2 10.1z" class="cls-3"/><path d="M521.1 299.2 502 311.1v10l4 6.4 15.5-9.7-.4-.7v-17.9zm7.3 10.5-6.7-10.9-.2.1 7 10.8Z" class="cls-27"/><path d="m447 410-22.3-35-.5.2h.1l.3.5 6.8 11 15.6 24.4 70.5-44v.4l.6-.4-.7-1L447 410Z" class="cls-13"/><path d="m447 411.1-15.6-24.4-6.9-10.9-.4-.6v18.9l.6.9 22.3 35v-18.9z" class="cls-3"/><path d="M447 411.1V430l70.4-43.9h.1v-18.9L447 411.1z" class="cls-27"/><path d="m405 349.1 70.5-44v.4l.6-.4-.7-1L405 348l-22.3-35-.5.2h.1l7.1 11.5 15.6 24.4Z" class="cls-13"/><path d="m405 349.1-15.6-24.4-7.3-11.5v18.9l.6.9 22.3 35v-18.9z" class="cls-11"/><path d="M405 349.1V368l19.1-12v-.8l.4.6h.1c0-.2-.2-.4-.3-.5s51.2-31.8 51.2-31.8v-18.3L405 349Z" class="cls-12"/><path d="m367 281.1 70.5-44v.4l.6-.4-.7-1L367 280l-22.3-35-.5.2h.1l7.1 11.5 15.6 24.4Z" class="cls-13"/><path d="m344.7 265 22.3 35v-18.9l-15.6-24.4-7.3-11.5v18.9l.6.9z" class="cls-22"/><path d="M437.5 256.1v-18.9L367 281.1V300l70.4-43.9h.1z" class="cls-7"/><path d="m544 353-22.3-35-.5.2h.1l7.1 11.5 15.6 24.4 70.5-44v.4l.6-.4-.7-1L544 353Z" class="cls-13"/><path d="m544 354.1-15.6-24.4-7.3-11.5v18.9l4.6 7.1L544 373v-18.9z" class="cls-2"/><path d="M544 354.1V373l70.5-43.9v-18.9L544 354.1z" class="cls-25"/><path d="m502 290-22.3-35-.5.2h.1l7.1 11.5 15.6 24.4 70.5-44v.4l.6-.4-.7-1L502 290Z" class="cls-13"/><path d="m502 291.1-15.6-24.4-7.3-11.5v18.9l.6.9 22.3 35v-18.9z" class="cls-2"/><path d="M502 291.1V310l70.4-43.9h.1v-18.9L502 291.1z" class="cls-25"/><path d="m466 220.1 70.5-44v.4l.6-.4-.7-1L466 219l-22.3-35-.5.2h.1l7.1 11.5 15.6 24.4Z" class="cls-13"/><path d="m443.7 204 22.3 35v-18.9l-15.6-24.4-7.3-11.5v18.9l.6.9z" class="cls-11"/><path d="M466 220.1V239l70.4-43.9h.1v-18.9L466 220.1z" class="cls-12"/><path d="M285.2 352.2h.1l7.1 11.5 15.6 24.4 70.5-44v.4l.6-.4-22.3-36-16.3 10-55.3 34.1Z" class="cls-2"/><path d="M308 407v-18.9l-15.6-24.4-7.3-11.5v18.9l4.6 7.1L308 407z" class="cls-16"/><path d="M308 388.1V407l70.5-43.9v-18.9L308 388.1z" class="cls-24"/><path d="m270 321.1 70.5-44v.4l.6-.4-5.3-8.5-17-27.6-71.6 44.2h.1l7.1 11.5 15.6 24.4Z" class="cls-15"/><path d="M270 340v-18.9l-15.6-24.4-7.3-11.5v18.9l.6.9 22.3 35z" class="cls-18"/><path d="M340.5 277.5v-.3L270 321.1V340l70.4-43.9h.1v-18.6z" class="cls-6"/><path d="m495.8 311-4.3 2.6-16 10-51.3 31.6h.1l.3.5.5.8 6.3 10.2 15.6 24.4 70.5-43.9v.3l.6-.4-12.2-19.6-4-6.4-6.2-10Z" class="cls-10"/><path d="m425 356.6-.5-.8-.4-.6v18.9l.6.9 22.3 35v-18.9l-15.6-24.4-6.4-10.1z" class="cls-23"/><path d="M447 391.1V410l70.4-43.9h.1v-18.9L447 391.1z" class="cls-21"/><path d="M544 353v-18.9l-15.6-24.4-6.9-10.8-.4-.7v18.9l.4.7.2.2 22.3 35z" class="cls-3"/><path d="M544 334.1V353l70.4-43.9h.1v-18.9L544 334.1z" class="cls-27"/><path d="M479.2 235.2h.1l7 11.2.1.3 15.6 24.4 70.5-44v.4l.6-.4-22.3-36-14.3 8.7-57.3 35.4Z" class="cls-10"/><path d="M502 290v-18.9l-15.6-24.4-.2-.3-7.1-11.2v18.9l.6.9 22.3 35z" class="cls-23"/><path d="M502 271.1V290l70.4-43.9h.1v-18.9L502 271.1z" class="cls-21"/><path d="m466 200.1 70.5-44v.4l.6-.4-6.4-10.4-16-25.7-71.5 44.2h.1l7.1 11.5 15.6 24.4Z" class="cls-15"/><path d="M466 219v-18.9l-15.6-24.4-7.3-11.5v18.9l.6.9 22.3 35z" class="cls-18"/><path d="M466 200.1V219l70.4-43.9h.1v-18.9L466 200.1z" class="cls-6"/><path d="M382.2 293.2h.1l7.1 11.5 15.6 24.4 70.5-44v.4l.6-.4-22.3-36-16.3 10-55.3 34.1Z" class="cls-13"/><path d="M405 348v-18.9l-15.6-24.4-7.3-11.5v18.9l.6.9 22.3 35z" class="cls-3"/><path d="M405 329.1V348l70.4-43.9h.1v-18.9L405 329.1z" class="cls-27"/><path d="m367 261.1 70.5-44v.4l.6-.4-5.8-9.3-16.5-26.8-71.6 44.2h.1l7.1 11.5 15.6 24.4Z" class="cls-13"/><path d="M367 280v-18.9l-15.6-24.4-7.3-11.5v18.9l.6.9 22.3 35z" class="cls-3"/><path d="M437.5 217.5v-.3L367 261.1V280l70.4-43.9h.1v-18.6z" class="cls-27"/><path d="m775.4 217.5.2.1-.2-.4-.2.4h.2Z" class="cls-10"/><path d="m632 87-17.1 33.7.4.6-15.8 31.1 86 142.2 16.4-32.3-1 .6 16.9-33.2.1.2 17.1-33.7L649 54l-.3.6-12.5 24.5-4.1 8.1-.1-.2z" class="cls-21"/><path d="m746 55.8-5 2.8 5-2.8Zm45.6 71.4-7.6 4.4 7.6-4.4Z" class="cls-10"/><path d="m735 196.2 49.8-29.4 23-14h.2l-13.4-21-1.7 3.3h-.2l-5.6 11.2-.2.3.3-.2-6.2 12.3-26.9 15.9-31.4-52 5.8-11.5-.2-.2 6.3-12.3 6.1-11.9-.3-.4 19-9.5L750 62v.1l-.2.1-5.6 11.2-.2.3.3-.2-6.2 12.3-26.9 15.9-31.4-52 5.8-11.5-.2-.2 2.2-4.2L648 53.3l.7 1.3.3-.6 86 142.2Z" class="cls-10"/><path d="m735 196.2-17.1 33.7-.1-.2-16.9 33.2 1-.6-16.4 32.3 73.3-43.2 17.1-33.7-1 .6.3-.6.2-.4 3.7-7.4 11.8-23.1.3-.2 17.1-33.6-23.5 13.8-49.8 29.4z" class="cls-23"/><path d="m760.1 162.8-.3.2 6.2-12.2v.1l6.3-12.3-31.5-52-.1.2-6 11.9h-.1l-6.3 12.2.1.3-5.7 11.4 31.4 52 6-11.8Z" class="cls-14"/><path d="M740.7 86.8v-.3l31.6 52.1 11.8-7a2682.5 2682.5 0 0 0 14.8-8.9h.1L767.2 73l-7.8 3.8-19 9.5.3.4Z" class="cls-4"/><path d="m772.3 138.6-6.3 12.3-6.2 12.1.4-.2-6 11.8 26.8-15.8 6.2-12.3-.3.2.2-.4 5.6-11.1.2-.1 1.7-3.4 4.5-9-7.5 4.5-7.5 4.5c-4.7 2.7-9.3 5.4-11.8 7Z" class="cls-9"/><path d="m685.5 38.2-5.8 11.4 31.4 52 6-11.8-.3.2 6.2-12.2v.1l6.3-12.3-31.5-52-.1.2c-.8 1.6-6 11.6-6 11.9h-.1l-4.1 8-2.2 4.2.2.2Z" class="cls-14"/><path d="m697.8 13.6 31.5 52 11.8-7 4.8-2.8 10-6h.1L724.2 0l-26.8 13.3.3.5v-.3Z" class="cls-4"/><path d="M729.3 65.6 723 77.9 716.8 90l.4-.2-6 11.8L738 85.8l6.2-12.3-.3.2.2-.4 5.6-11.1.2-.1V62l6.2-12.2-10.2 6-4.8 2.9c-4.7 2.7-9.3 5.4-11.8 7Z" class="cls-9"/></g></svg>