<svg xmlns="http://www.w3.org/2000/svg" id="Layer_2" viewBox="0 0 1280 1024"><defs><style>.cls-1{fill:#bfd8e2}.cls-1,.cls-2{stroke:#000;stroke-miterlimit:10}.cls-4{font-size:56.21px}.cls-4,.cls-5,.cls-6{isolation:isolate}.cls-4,.cls-6{fill:#30c;font-family:MyriadPro-Regular,&quot;Myriad Pro&quot;}.cls-2{fill:none}.cls-6{font-size:67.45px}</style></defs><g id="Layer_2-2"><g id="Layer_1-2"><g id="building"><path d="m984 186-262.2 53.6-499.7-36.4L9.5 276v308.3l216.6 143.5 499.6-117.3L992 747l220.5-87.9V221.4L984 186z" style="fill:#d38231;stroke:#000;stroke-miterlimit:10"/><path d="m220.6 202.2 4 524.6m499.6-117.3V237.8M990.5 746V186.2M724.2 294.8l-501.6-7.6m501.6 288.9-500.1 95.4" class="cls-2"/><path id="stripes-wall" d="M21.8 271.6v321.1m18-327.3v339.3m21.9-346.8v361.3m25.2-369.9v386.6m26.4-395.6v413.1m29.6-423.3V673m26.6-452.4V690m26.3-478v496" class="cls-2"/></g><g id="doors"><path d="M1057 721V454.9l110.5-9.4V676L1057 721z" class="cls-1"/><path d="M1112.3 453.7v244.8m-17.8-180-20.3 52.4m20.3-21.7-20.3 53.8m78.3-106.5-31 97m31-48.8-9.7 31.4" class="cls-2"/></g><g class="cls-5"><text class="cls-6" transform="matrix(.60985715 .01320064 -.0216404 .99976582 1016.6 317.9)"><tspan x="0" y="0">R</tspan></text></g><g class="cls-5"><text class="cls-6" transform="matrix(.60985715 .01320064 -.0216404 .99976582 1038.8 318.4)"><tspan x="0" y="0">e</tspan></text></g><g class="cls-5"><text class="cls-6" transform="matrix(.60985715 .01320064 -.0216404 .99976582 1059.4 318.8)"><tspan x="0" y="0">m</tspan></text></g><g class="cls-5"><text class="cls-6" transform="matrix(.60985715 .01320064 -.0216404 .99976582 1093.6 319.6)"><tspan x="0" y="0">a</tspan></text></g><g class="cls-5"><text class="cls-4" transform="matrix(.60985715 .01320064 -.0216404 .99976582 1122 320.2)"><tspan x="0" y="0">2</tspan></text></g><g class="cls-5"><text class="cls-4" transform="matrix(.60985715 .01320064 -.0216404 .99976582 1139.6 320.6)"><tspan x="0" y="0">0</tspan></text></g><g class="cls-5"><text class="cls-4" transform="matrix(.60985715 .01320064 -.0216404 .99976582 1157.2 321)"><tspan x="0" y="0">0</tspan></text></g><g class="cls-5"><text class="cls-4" transform="matrix(.60985715 .01320064 -.0216404 .99976582 1174.7 321.3)"><tspan x="0" y="0">0</tspan></text></g><g id="windows"><path d="M286.6 325.4V624l125.6-22.7V325.4H286.6zm301.5.6v241l90.6-14.6V326h-90.6zm-139.5-.4v266.3l103.5-17.4V325.6H448.6z" class="cls-1"/><path d="m375.5 375.5-66.7 99.2m51.8-32.1-45 69.4m184.8 13.4 30.1-37.9m-65.1 37.9 72.2-86.8m-53.1 27.5 46-53.7M645 375l-35.7 47.9m48-37.1-59.8 83.1" class="cls-2"/></g><path d="M1212 549.2h68V1024H0V549.2h9v35.1l215.6 142.5 499.6-117.3L991.5 747l220.5-87.9V549.2z" style="stroke-width:0;fill:#423d3d"/><path d="M0 0v549.2h9V276l212.6-72.8 499.7 36.4L983.5 186l228.5 35.4v327.8h68V0H0z" style="fill:#73cad8;stroke-width:0"/><path id="stripes-road" d="m588 642.2 255 145 10-3.1 10.8 8-35.7 13.4-9.8-9.7 11.5-4.8-250.9-146.8 9.1-2zM413.6 681l254 146.6 10.1-2.9 10.7 8-35.7 13.2-9.8-9.7 11.5-4.8-249.9-148.5 9.1-1.9zm-180.3 42.7 255.2 156.8 10.1-3.1 10.8 8.5-36 14.3-9.8-10.5 11.5-5.1-251-158.9 9.2-2z" style="fill:#f9f7f7;stroke-width:0"/></g></g></svg>