<?xml version="1.0" encoding="UTF-8"?>
<svg id="Layer_2" data-name="Layer 2" xmlns="http://www.w3.org/2000/svg" viewBox="0 0 697.62 420.37">
  <defs>
    <style>
      .cls-1 {
        fill: #c5e8e8;
      }

      .cls-1, .cls-2 {
        stroke-width: 0px;
      }

      .cls-2 {
        fill: #d9f3f4;
      }
    </style>
  </defs>
  <g id="Store-top">
    <g>
      <g>
        <path class="cls-1" d="M189.84,419.59c5.43-32.73,3.2-183.35-44.79-277.88L26.66,0H0l117.32,147.98s51.19,101.93,49.06,271.74c0,.13,23.46-.13,23.46-.13Z"/>
        <path class="cls-2" d="M117.32,147.98c27.53,34.6,40.27,99.32,45.88,157.05,1.97,20.22,8.53,60.67,3.38,113.16-.08.84-.15,1.52-.2,1.98v-.44L5.33,220.37,0,0l117.32,147.98Z"/>
      </g>
      <g>
        <path class="cls-1" d="M695.55,419.8c5.43-32.73,3.2-183.35-44.79-277.88L532.37.21h-26.66l117.32,147.98s51.19,101.93,49.06,271.74c0,.13,23.46-.13,23.46-.13Z"/>
        <path class="cls-2" d="M623.03,148.19c27.53,34.6,40.27,99.32,45.88,157.05,1.97,20.22,8.53,60.67,3.38,113.16-.08.84-.15,1.52-.2,1.98v-.44l-161.05-199.36L505.71.21l117.32,147.98Z"/>
      </g>
    </g>
  </g>
</svg>