<svg xmlns="http://www.w3.org/2000/svg" id="Layer_2" data-name="Layer 2" viewBox="0 0 1921 1080.3"><defs><style>.cls-1{fill:#c5e8e8}.cls-1,.cls-2,.cls-3,.cls-5,.cls-7{stroke-width:0}.cls-2{fill:#d2f2f7}.cls-3{fill:#e1eaea}.cls-5{fill:#d9f3f4}.cls-7{fill:#f2f7f7}</style></defs><g id="Store"><path d="M1 26h1333v463H1zM0 729h1338v351H0z" style="fill:#d6d6d6;stroke-width:0"/><path d="M1 690h1315v38.7H1z" class="cls-3"/><path d="M1596.6 489.2H1V690h1673l-77.4-200.8z" class="cls-7"/><path d="M1 0h1333v26H1z" class="cls-3"/><path d="m1321.8 0-9.8 1080h22.3l3.9-1080h-16.4z" class="cls-2"/><path d="M1334.3 1080H1921V0h-582.8l-3.9 1080z" style="fill:#e1f7f9;stroke-width:0"/><ellipse cx="1547.3" cy="560" class="cls-7" rx="78.3" ry="86"/><path d="M1621 592c-2.1 5.7-18.3 46.6-59 54-39.3 7.1-74-22-72-28 0 0 48 46 103-1 42.5-36.3 17-107 17-107 9 0 24.7 45.6 11 82Z" class="cls-2"/><path d="M802.5 689.6c5.5-32.7 3.2-183.3-44.7-277.8L639.4 270h-26.7L730 418s51.2 102 49 271.8l23.5-.2Z" class="cls-1"/><path d="M730 418c27.6 34.6 40.3 99.3 46 157 1.9 20.3 8.4 60.7 3.3 113.2l-.2 2v-.4L618 490.4 612.6 270 730 418Z" class="cls-5"/><path d="M1265.5 689.6c5.5-32.7 3.2-183.3-44.7-277.8L1102.4 270h-26.7L1193 418s51.2 102 49 271.8l23.5-.2Z" class="cls-1"/><path d="M1193 418c27.6 34.6 40.3 99.3 46 157 1.9 20.3 8.4 60.7 3.3 113.2l-.2 2v-.4l-161-199.4-5.4-220.4L1193 418Z" class="cls-5"/><path d="m1233 1066-117.8-148.1h26.6L1267 1080h-25l-9-14z" class="cls-1"/><path d="M1242 1080s-9-13.7-9-14l-116.8-148 8.8 162" class="cls-5"/><path d="m730.6 1065.7-117.8-148h26.7l125.1 162h-25l-9-14z" class="cls-1"/><path d="M739.6 1079.7s-9-13.7-9-14l-116.8-148 8.8 162" class="cls-5"/><path d="M224.5 1066.3 106.7 918.2h26.6l125.2 162.1h-25l-9-14z" class="cls-1"/><path d="M233.5 1080.3s-9-13.7-9-14L107.7 918.2l8.8 162" class="cls-5"/></g></svg>