<svg xmlns="http://www.w3.org/2000/svg" id="Layer_2" data-name="Layer 2" version="1.1" viewBox="0 0 1209.2 916.1"><defs><style>.cls-1,.cls-11{fill:#a00023;stroke-width:0}.cls-11{fill:#0aa200}</style></defs><path d="M142.8 182.2h.1c.1-.4 0-.3-.1 0Zm213.6 65.7c2.9 1.7 6 3.2 9.1 4.5-.6-1.4-2.8-2.3-9.1-4.5Zm248.7-49c-.5-.2-1.1-.3-1.6-.3l14.5 12.2a123 123 0 0 0-12.9-11.8Zm-461-47.9 2-.3 1 .6.8 1.5.2-1.4 1.3-1c.6-.2 2.1-.7 2.6-1.1l-1.4-.5-.5-.8c.2-.4.5-1.2.5-1.7-.8.7-1.1 2.1-1 3.1l-.6.6a10 10 0 0 1-4.8-.9 3.8 3.8 0 0 1-3.5 1.7h-1.1c.8.1 1.6.5 2.2 1.2l2.2-1.2Zm-6.2 0h1.8-1.8Zm-1.7 7.7.6-.8-.6.8Zm829.6 68.8c-2.2-2.8-5-5.8-8.8-9.1 4 4.1 6.1 6.9 8.8 9.1Zm-608.2 60.6.2-1c.2-2.7-2.4-3.8-2-6.4v-.2l-1 .4c-.4 3.5.9 5.7 2.7 7.2Zm203.3-99.7c-1.5-.9-3-1.3-4.6-1.3.5.3 1.2.7 1.9.9l2.8.4ZM346 291.2c-3.2-3.4-11.2-1.1.2-6.9l-12.6-8.2-15.1 10.5-5.4 17.5.9-.2c13.1.2 39 16.1 53.8 7.3-5.7-1.9-15.6-8.2-17.8-13.3a9 9 0 0 1-3.1-1.1c-1.4-1.6.4-3.7-1-5.6Zm111.2 24.5 13.8-3-15.9-8.6c-1.1-12.2-18.4-21.7-18-29 .5-11.4 10.7-1.8 15-4 2.7-2.2.8-11.9-5-15-2.4-1.3-4.5-.9-11 0-11.6 1.6-17.3 2.4-19 2-2.2-.6-4.4-1.8-6.3-3.5a6 6 0 0 1-.2 1.5c3.7 4.1 18.5 20.7 22.4 24.1l-2.7.3 5 4.9-9.9 6-4.5 11.5 1.9 3.2.8-.5 13.9 13.9-3.8 5.2.4.6-1.6 1.1-3.4 4.6c10 39 75.4 30 28.1-15.3Zm-84.7-8.4-1.1-1.6-.7.4c-.4.7 0 1.7.4 2.7l1.3-1.5ZM256.1 38.4l2.6.6.4-.5h-3Zm-31.4 5.7 3.4-1.2-2.4-.5-1 1.7zm22.4-12.9-2.6.4-.8 3.1c-1.4-.1-4 .1-5.6.6 2.4 1.6 5.3 3.3 7.2 4.1 4.9-1.8 6-2.1 8.7-1.6-2.8-1.2-4.1-4.3-6.9-6.7Z" style="fill:none;stroke-width:0"/><path d="M204.9 214.8c.9.4 2 .7 3.3.8-2.6-1.4-2.3-5.6-1-7.6l-.9-.5 1.2-.8-.3-3.7 2.6-2.8-4.2.2-4.1-9.4-3.8 7.6c-3.2 1.1-8.5 6.9-3.5 7.3.6.3.9-6.3 3-5 3.1 2.8-1.3 3.3-3 6-.4 1.3-.6 2.5-.4 3.6l1.9-.1c4.2.1 6 2.8 9.3 4.4Z" style="fill:#297300;stroke-width:0"/><path d="M269.7 351c-3-1.4-.8-7.3-3.1-14-2.8-7.8-8.9-8.8-8.2-12.1 1.3-8.3 38.2-5 22.8-12.9.2-1.2 7.2.3 14.9-.9 9.3-1.5 10.3-5.5 17.1-6.8l5.4-17.5 15.1-10.5 12.6 8.2c-11.4 5.8-3.4 3.5-.2 6.9 1.3 2-.4 4.1 1 5.6 1.2.7 2.2 1 3.1 1.1-.4-.9-.5-1.7-.3-2.5.7-3.3 6.5-4 7.7-7.5-1.8-1.4-3-3.7-2.7-7.2l1-.4c.8-3.8 7.1-5.7 6.9-6.2-1.5-.1-10.3 4.5-6-2.1 3.3-4.7 9.3-3.5 10-6.4.4-1.6-1.5-2.1-2-5.3.2-4.6 1.4-6.6.7-8.1a48.2 48.2 0 0 1-9.7-4.7c-10-3.3-15-5-18-4.2-1.5.4-3.5 1.1-5 0-1.6-1.2-.6-3.1-2-5.3-2.4-3.9-8.5-2.7-9-5.3-.2-1.2 1.1-1.7 1-3.2-.2-2.5-4.1-5.1-8-5.3-5-.3-7.4 3.6-10 2.1-1.6-.9-2.5-3.4-2-5.3.8-3.2 5.1-2.8 6-5.3 1.4-4.2-10.8-7.1-14-19.1-2.3-10.7-1.3-13.8-14-13.8-5.8 0-8.6-2-9.9-5.2-.2 3.5-.9 7.3-3.7 8.2-3.1.8-5.2-6-8.8-5.6-4.2.4-8.2 9.9-5.9 16.9 1.5 9.1 13.2 2.8 11.8 12.2l-5.2-.3-21.1 1.2-8.1-4.6c-10.8 8.1-17.6 10.2-21.9 9.8a8 8 0 0 1-3.3-.8c-3.2-1.6-5-4.2-9.3-4.4l-1.9.1c-3 .5-4.7 2.5-7.9 2.7-6.7.5-10.5-8.6-12.8-7.5-2 1 1.2 7.8-2 10.3-2.1 1.7-5.6.4-7.9 0-5.1-.9-13.1 1.4-25.6 16l1.5 3.2c-.6 1.2-1.6 3-3.6 3.8-3.1 1.3-5.5-1.1-8.7-.4-8.1 4.5-5.5 12.4-21.6 16l-9-3.4 2.7 9.1-23 .7 19.6 12.1 7.1 19.2-8.1 14H54.4c-7.1-6.5-7.8 3.6-15.4 5.6l3.8 4.1c3.2 16.3-17 37-4.8 30.7L36.6 364c3.9-.7 19.5-2.4 19.9 1.2.3.9-.8 1.5-.8 3.1 0 2.5 2.5 5 3.9 4.7 2.5-3.2 6.9-2.8 9.8-6.6h17.7l6-7.8c6.6 1 4.4-4.9 7.8-8.2 1.7-1.3 3.3-.9 3.6-1.9.3-1.2-1.9-2-2.6-4.7-.3-5.2 1-8.2 8.8-14.1 9.1-5.4 14.9-3.2 17.7-13.2.6-3.5-1.2-5.4 0-7.5 3.1-5.9 15.6.4 20.3 1.2 9.8-2.2 14.7-9.9 21.6-11.7 6.3-1 12.5 7.9 11.2 12.3l19 15.5 5.6-.3 8.2 8.9c5.3 3.2 11.8 5.9 9.4 12.6-1.7 1.6-4.3 4.7-3 7.4l4.6-3 1.5-4.2c12.8-2.8-10.6-7.6 3.8-15.2l8.5 5.5 1-2.5c-7.3-5.5-44.5-27.1-43.9-35.9 0-1.1-2.8-11.8-2-11.3 1.5-3.9 8.6-4 9.8 0l1.8 6.3 3.5-5 7.9 10.1c.2 1.4.9 3.3 2.5 4.5 1.7 1.3 3.3 1.1 5.9 1.9a72 72 0 0 1 22.1 16.7l-.6 11.3c9.1 7.9 17.8 24.4 24 34.7l4.5.5c-1.2-5.9-2.2-12.2-2.9-18.6-1.2.1-2.4.3-3.6.2Z" style="fill:#238c4d;stroke-width:0"/><path d="M1006.2 328.4c1.4 1.9 2.2 3.8 2 5.6a4 4 0 0 1-.7 1.9l.6-.9c.9-2.2-.4-4.6-2-6.6Zm3.9 98.6c.2.3.5.4.8.5-1.3-2.8 0-4.1.9-5.7-1.1 1.6-2.3 3.6-1.6 5.2Zm-4-89.1c-.1.3-.2.7 0 1 .2.5.6.8 1.3 1l-1.2-1v-1.1Zm26-64c.6.3 1.1.4 1.4.1 1.2-1.4-.9-6.5-2.6-11.7.8 4.3 1.3 8.8 1.2 11.6Zm-11 69.1c-1.9-1.9-4-2.1-6.1-2.1a14.3 14.3 0 0 1 7.2 3.2l-1.1-1.1Zm-44.3-11.5-1.3 1.3v.3c.6.6 10-11.7 20-10.8 1.6.1 3.2.6 4.7 1.3-7.9-4.5-17 2.2-23.3 7.9Zm-42 181.6c.8-1.2.9-2.4.6-3.6 0 .8 0 1.6-.2 2.5.2 1.3-3.4 4.4-6.1 6.9 2.6-2 6-4.6 5.8-5.8Zm87.7-161.8c-.1 0-.2 0-.3.2v.5l.3-.6Zm-79.1 165.2-.2-.5-.9-.9.8 1 .2.5ZM901.2 497c-.2-2 .7-3 0-4-.4-1.2-5.9-1-7-1-3.3-.5-4-4.2-6-4-1.5.2-1.2 2.3-4 4-1.7 1-2.6.7-4 2-1.1 1.1-1.4 2.1-2 2-1 0-1.4-3.1-2-3-.4 0-.3 1.8-1 2-.7.2-1.4-1.2-2-1-.6.2-.3 1.6-1 2-1.9.9-4.1-2.6-5-3-1.8.2-2.2 3.5-3 4-.6.2-1-.8-2-1-1.2-.2-2.7.8-3 2 .2 2.4 5.5 8 3 11-.9.9-2.9.9-4 0-1.8-1.4-.7-4.4-2-5-1.2-.5-2.3 2-5 2-3.2.1-4.5-2.6-5-5-1.5-2-4.8-.4-6-2-1.4-1.8 2.1-4.7 1-8-1-3-4.5-2.5-6-6-1.2-2.8.3-5.1-1-6-1-1.6-9.7 3.7-10 3 2.5-5-.5-4.1-1-8 .1-1.2 1-1.5 1-3-.4-2.9 0-1.9 2-2 .8-.6-.8-3.3 0-4 2.1.2 3.1-.2 4-2 1.8-4.4-.6-21.8-6-17-1.2-.1-1.5-2.3-3-5-1.6-2.8-4-5.4-5-5-.8.3 0 2.5-1 3s-2.2-1.6-5-2c-2.2-.3-3.5.7-4 0-.6-1.5 3.4-5.8-1-6-1.1 0-1.9 1.1-2 1 3.6-2.7 1.8-5.4-3-4-1.7.9-1.5 2.7-3 3-2.2-.3-6.6-3.5-9-1-1.9 1.3-1.5 2.6-3 4-1.8 1.7-3.2.5-5 2-2.1 1.7-.9 3.8-3 6-3.1 2.8-7.4 3.5-8.5.2-4.2-4.2-4 3.5-12.6-3.7-3.4-.5-6.6 10.1-8.7 9.6-1.2-.3 0-3.9-2.3-6.9-4-5.3-15.8-4.4-17.7-.9-1.3 3.2-2.4.5-3.7 0-.7 3.9-1.1.2-4.5-1.3-4.4-1-3.9.1-5-4-1.6-2.5-6.4-.6-8-3-.9-3.8-.8-3.6-5-3-5.5.2-12.8-13.2-19-11-4.8 3.4-2.2 2.1-7-1-1.8-.8-2.3 0-4-1-1.7-.9-1.3-1.8-3-3-2.1-1.5-3.2-.5-5-2-2.9-2.8-1.7-3.9-5-2-1.2-.7-1.1-3-1-4 0-2.3-5-5.6-4-9 .9-.8 3.9 1.9 5 1 2.3-3.8-5-10.3-5-13-.1-1.6.5-2.3 0-4-1.2-3.8-4.6-4.4-7-6-3-2.4-1.4-5.3-4-7-2.1-1.4-3.4.4-7-1-2.4-.9-2.1-1.8-5-3-13.1-3.1 4.3-7.7-19-13 6.6-3 4-1.6 1-9-.9-2.4-.2-2.8-1-4-1.1-1.5-3.4-2.6-5-2-1.4.9-2.8 1.6-4 0-.6-.9.1-1.6 0-3-.3-2.6-3.4-3.6-3-5 .3-1 1.9-1 2-2 .1-.9-1.1-1.2-1-2 1-2.4 7.1-1.3 6-6 .5-.4 1.7 1.3 3 1 1.2-.3 1.3-2 2-2 .8 0 .7 2 2 3s3.6 1 5 0c2.7-3.2.7-7.1 7-7 5.6.2 5.3.8 8-4 3-3.5 6.5-2.3 9-6 3.8-5.1-4.4-5.4 1.3-7.6-1.7-2.1-1.9-1.5.4-3.2 2.1-2.2-.9-11.8-7.7-15.2-7.4-2.9-3.5-1.8 4-5 1.8-.8 2.8-1.4 4-1 1.4.5 2.1 2.2 3 2 1.5-2.5 2.6.4 4 0 2.6-2 0-2.8-2-4-1.4.8-1.5-17.4 0-16 1.1 0 4.8 1.9 7 2 2.1.2 2.3-.3 4 0 3.5 2 7.7.4 7-4-.6-3.5-2.9-4.3-3-7-.4-5.6 5.4-1.4 6-6 .3-1.6-.5-2.2 0-3v-.1a35.7 35.7 0 0 0-8.2-3.1c-12-2.4-13.8 3.7-21.9 0-3.9-1.3-13.2-11.3-22-20.1l-14.5-12.2c-5.6-.4-9.5 8.2-17.4 6.7-1.9-.4-1-.5-14-6.4-2.9-.6-7.9-6-9-8.5-.8-.8-1.5-1.5-2.4-2l-2.8-.4-1.9-.9c-7.8-.1-17.2 8.4-26.9 10.7a83 83 0 0 1-28.4 3.7l8.4 10-10.6 10.9 11.5 6.3-10.2 5.6c-10.1-.4-31.3-2.3-41-4.4l-14-5.3h-10.8l-11.8 10.6v7.5l-8.5-5.5c-.9 4-2.4 12.3-3 17.2 1.9 1.7 4 2.9 6.3 3.5 1.7.4 7.4-.4 19-2 6.5-.9 8.6-1.3 11 0 5.8 3.1 7.7 12.8 5 15-4.3 2.2-14.5-7.4-15 4-.4 7.3 16.9 16.8 18 29l15.9 8.6-13.8 3c47.3 45.4-18.1 54.3-28.1 15.3l3.4-4.6-4.5 3.1c-10-4.6-49.2-26.9-56.6-23.8l1.1 1.6-1.3 1.5c.5 1.1 1 2.1.6 2.7-.5.6-1.9.5-3.8-.1-14.8 8.8-40.7-7.1-53.8-7.3l-.9.2c-6.7 1.3-7.8 5.3-17.1 6.8-7.7 1.2-14.7-.3-14.9.9 15.3 7.9-21.5 4.6-22.8 12.9-.7 3.3 5.4 4.3 8.2 12.1 2.4 6.8.2 12.6 3.1 14 1.2.1 2.4 0 3.6-.2 2.6-.2 5.3-.2 8.5 2.9 1.6 3.8 7 6.9 10.4 4.3 6.6-14 7.1.2 19 2 6.2.2 11.8-6.7 17-6 .5 0 1.6.3 3 0 2.7-.5 3.7-2.3 4.5-1.9 1.3.5.3 5.1 0 9.5-.4 6 .8 8.9 1.1 12.5 1.1 12.7-8.9 15.7-10.2 31.5-.4 11.1.8 19.2 10.1 20.7 0 .9-3.7.9-5.5 3.6-2.5 4.5.5 9.7 5 10 2.3.6 4.7 3 7.2 6.6l4.4-.2 4.4 12.5-.6 3c4.2 8.9 8.4 19 12.7 27.2 1.3 2.6 13.4 25.8 27 42a44.1 44.1 0 0 1 11 31c1.7 34.7 6.4 24.6 44 12 31.6-12 23.9-11.9 36-27 5.4-4 10-1.5 16-3 6.9-1.7 8.3-6.8 22-28 11.3-17.4 14.7-20.7 13-25-1.7-4.2-5.8-3.1-20-13-6.1-4.3-8.5-6.6-10-10-2.5-5.7-.9-10.6-2.3-11-2.3-.6-4.7 13.3-14.4 18.5-29.2 7.9-38.2-12.5-51.5-42.5-5.3-9.7-4-20.1 8-18.8 11.4 2.8 15.9 19.2 20.9 25.2 7 9 19.3 15.9 25.4 12.7 2.8-1.5 3.3-4.7 7.8-6.1 12-3.8 8.6 7.2 15 14 2.1 1.8 4.1 2.1 12 3 12.5 1.3 18.7 2 21 2 29.9-.3 32.7-12.4 44 6 5.2 4.8 20.1 17.3 22 16 3.8.1 6.5-1.9 7-1 .5.9-1.4 3.5-4 5-3.5 2-6.2.6-7 2-1.3 3.4 11.6 15.3 14 15 5.9-.3 7.9-14.3 12-14 8.2 5 12.1 50.3 13 50 1.4 7.8 2.5 7.5 12 31 17.6 43.5 17.9 54.6 24 55 9 .6 22.6-22.9 22-45-.4-15.1-7.2-19.9-3-29 4.3-9.5 13.3-7.8 29-23 3.5-3.4 8.2-7.9 13-15 10.9-16 11.1-29.8 23-19 3.1-2.5-18-33.5-6-34 1.5-7.4-16.8-20.6 7-8 14.3 7 23 7.7 23 11s-7.7 3.5-9 9c-1 4.2 2.3 9.2 4 9 1.8-.2 1.7-5.9 3-6 1.8-.1 2 11 7 22 5.5 12.2 10.8 10.7 15 21 5.9 14.4-.6 27 4 29 8.9.6 19-21.4 27 0 26.3 55.1 2.3 57.6 12 77 1.6 1.7 2.7 1.7 6 5 5.8 5.8 5.6 8.9 10 11 2.9 1.3 5.1 1.1 6 3 .9 2-.9 3.8 0 5 1.4 1.8 8 .8 9-2 1.2-3.5-7.7-6.2-15-16-1.1-1.4-11.4-15.6-9-31 1-6.2 3.4-8.2 4-17 .3-4.1 0-8.3 2-9 1.2-.5 3.1.7 4 2 1.3 1.9.2 3.3 1 5 1.5 3.2 7 1.2 12 4 5.2 2.9 3 7.3 9 13 5.5 5.3 9.3 3.5 12 8 3.7 6.2-1 14 1 15 1.6.8 4.3-4.3 11-10 10.7-7.5 20.1-11.5 24-23 6.4-19.8-41.6-39.4-39-68 .6-6.7 4.1-14.1 9-19-4.1-1-8.6-3.9-9.1-8Zm125.4-147.3c.2.6.4 1.1.4 1.5 0-.4-.1-.9-.4-1.5Zm-2.3-3.7 1 1.2v-.2l-.9-1Z" class="cls-11"/><path d="m423.7 305.5-.9.6 11 18.6 3.8-5.3-13.9-13.9zM975 369.6v-.9.9ZM688.1 243l2.3.2-8.5-3.9-1.7-.8c.7 2 3.7 3.7 7.9 4.5Zm21 14c5.7 6-.3 10.5 6 14 6.9 3.1 19.9 1.3 27 7 4.2 3.9 5.2 2.5 9.9 2.9 1.4.4 5.1 6.5 5.1 6.1 2.3 3.7 8.3 8.3 9 8.9 10.2 7.8 26.1-5.4 40 2.1a44.4 44.4 0 0 0 25 6c6.6 2.3 6.2 3.5 11-2 .8-3 29.6-3.3 29-6 1.8-1.8 1.5-2.9 4-5 2.1-1.7 5.4-3.2 5-6-.3-1.1-1.8-1.3-3-2-3.3-2-4.3-7.7-1-10 2.5-.8 11.2 5.2 15 2 2-1.5.9-3.6 3-5 18.6-1.9 4-9.4 13-10 4.3.9.7-2.8 5-2 5-3.8 11.3.7 14-1-.2-6.2-16.9-15.5-21-12.9-3.3 4-2.6 3-7.4 1.3-2.9-.4-3.8 1.8-6.5 1.2-2.6-.6-5.4-3.1-2.7-4.9.3-.7 1.1-1.3 2.5-1.7s.4-.7.4-.7c-2.5-.3-5.2-.4-8.1-.1-13.6.4-15.2 9.3-25.9 8.5-8.2-.6-8.6-5.9-19-9.6-12-4.3-19 .1-29.9 0-9.2 0-22.5-3.5-38.9-19.1l-5.3 7.3 3.3 12.9-42.9-9.6c-10.6 14.3-18.8 17-24.2 17 .6.7 1.1 1.6 1.5 2.3 2.7 4.4 3.8 3.1 7 8Zm250.7 68.8c1-2.5 2.2-5.9 3.8-8.4-1.6 2-2.2 4.4-3.5 6.5l-.4 1.9ZM926.2 522Zm51.9-193 .1-.6c-.3 1.3-2 3.3-2.6 4.2l1.2-1.1c.5-.7 1.1-1.5 1.3-2.5Zm27.9 74.3c-2.6-3.8-8.8-7.8-15-12.4 4.3 3.8 8.3 6.8 10.2 8.1 2.3 1.7 3.9 3.1 4.8 4.3Zm1.8 13.7c-2.3-.2-5-.2-6.6-.7 1.6 1.2 4.1.7 6.6.7Zm-5-4.9c1.8-1.1 3.7-2.5 4.2-4.5v-1.4c-.1 2-2.1 3.6-4.3 5.8ZM964.1 229l3.7 1.2-2-2.7c-2.7-2.2-4.7-5-8.8-9.1l-1.8-1.5c-.9-1.1-3.6-3-7.3-5 5.2 5.9 9.8 12.2 16.2 17.1Zm8.7 85.8c2.3 1.1 4.2 3.2 4.4 5.2v.5c.3-2.6-1.8-4.6-4.4-5.7Zm77 50.5c1.2-3.3.6-6.3-1.2-9a17 17 0 0 1 1.2 9ZM937.1 508a22 22 0 0 0 2.4 3.5c-6.2-9 1.3-11.4 13.6-13.5l6.2-1.4c-3.9.8-10.6 2.1-16.3 3.5-2.8.6-7 2.9-6 8Zm65-51.8Zm24.9-98.4c1 1.4 1.9 3 2.5 4.9l.2.7-.6-2.4c-.4-1-1.2-2.1-2.2-3.2Zm-24.9 91.2c.1.3.4.6.7.9l-.2-.6c-.5-.8-.4-1.9.2-3.2-.5 1-.8 2.1-.6 2.9Zm.1 17v-4.2 4.5-.3Zm9.6-48.1.4.3-.4-.3Zm21.7-41.4c.2.4.5.6.8.6.8 0 .9-1.6 1.9-3.1-.8.8-1.4 1.7-2.1 2.9l-.6-.5Zm-85.7-41.3.7 1.1-.7-1.1Zm55.2 110.5-.2.4.2-.4Zm28-104.5c-4.3-3.4-8-7.1-9.6-11.4 1.3 4.5 5.2 8.1 9.6 11.4Zm-.2-28.5c.5-1.9 0-3.9-.7-5.9v.2c.8 2.6.9 4.4.7 5.7Zm-83.7 17.4.2-.2-.2.2Zm84.5-56.4-.9-.5.9.5Zm-93.1 256.9-1.8 1c.6-.2 1.2-.6 1.8-1Zm84.6-242.6c3.7 5.3 5.3 4.6 4.8 7.7 1.6-1.1 3.9-.1 4.6-1.4 1.4-2.8-9.3-8.9-11.6-14.8 0 2.8.7 5.9 2.2 8.6Zm-48.5 39.3h-.1.1Z" class="cls-11"/><path d="m211.5 50-.3-1.1-1.2-.4-.6.7 1.8 3 .3-2.3Zm983.2 44.7c1.7-2.2 11.9 5.6 14 3.2 1.7-2-2.9-10.9-9-17-10.5-10.6-22.7-10.2-44.9-12.8-35.2-4-57.8-11.1-58.8-7.4-.7 2.4 8.7 6.5 8 8.5-1 2.7-19.6-1.9-28.9-4.2-13.4-3.3-20.8-5.9-23.9-2.1-2.6 3.1.2 7.7-2 9.6-3.8 3.2-13.6-9.8-28.9-15.9-13.6-5.4-17.4.3-41.9-2.1-14.8.8-81.2-24-82.8-18.1-1.5 2.9 5.8 8.2 4 11.7-6.4 8.6-38.8-7.6-43.9-2.1-2.5 2.7 0 7-2 8.5-3.4 2.7-12.8-9-28.9-18.1-4-2.3-32.2-17.8-35.9-1.1-4.6 4.4-12.7-.3-28.9-4.3-7.7-1.9-21.8-5.3-23.9-1.1-1.4 2.8 3.1 7.3 2 8.5-1.7 1.9-10.6-9.6-22.9-10.6-12-1-21.5 8.4-21.9 7.4-.4-.7 5.6-6.4 14-10.6 6.3-3.2 9.6-3.3 10-5.3-6.7-13.7-39.1-20.1-60.8-17l3.1-2.3L638 1.4l7 5.9-11.9-.6c5.4 2.9 6.4 4.3 6.2 5-.6 2.4-14.3-3.6-32 .2-10 2.2-11.9 5.5-22.9 6.4-13.1 1.4-10.1.7-2 9.6 2 2.6 3.5 5.9 3 6.4-.6.6-3.2-3.4-8-5.3-2.6-1-4.4-1-14 0-32.2 2.5 5.2 3.1 17 26.5l-39-15v4.7l-8.8.5 19.9 7 4.9 23.1-15.4-4.7-9.4 21.1-25.5-54.8-17.6-1.2-5 14.8 3.1 11.1 14.8 8.4c-9.1 13.1-34.7-15.6-46.7-7.4-4.1 3.2-1.9 9.3-6 11.7-4 2.3-7-2.9-15-3.2-9.7-.3-15.8 7.2-19 4.2-1.9-1.7-.1-4.5-2-6.4-2.7-2.6-8.9.4-19 5.3-6.8 3.3-10.2 4.9-13 7.4-4.7 4.2-5.8 7.4-9 7.4s-7.8-5-7-7.4c.8-2.4 5.7-1.6 6-3.2.5-2.8-13.7-9.5-16-6.4-.6.9 0 2.1 2 7.4 4.9 13.1 4.3 14.4 4 14.9-2.1 3-9.2-2.7-15 1.1-4.5 3-2.8 8.3-7 10.6-6.1 3.5-16.3-4.4-17-3.2-.4.8 4.1 3.1 4 6.4-.1 2.3-2.5 4.7-5 5.3-4.8 1.1-8-5-20-15.9-8-7.4-11.5-9.1-11-10.6 1-2.9 15.2-2.4 27.9 2.1 9.8 3.4 17.6 8.7 21.9-2.1.7-3.7-1.6-8-6-10.6l-53.7-15.3-6.9-6.1.3-11.7 1 1.6.2-3.8-8.5-5.2c-.7-.1-1.5-.2-2.4 0a11.3 11.3 0 0 1-5.9 1.3l-.4.5-2.6-.6c-.8 0-1.5-.2-2.1-.4-2.7-.5-3.8-.2-8.7 1.6-1.9-.8-4.7-2.5-7.2-4.1-.2 0-.4 0-.5.2l1.3 2.2c0 1.3-1.2 3.4-1.9 4.4l1.6.6-4 1.5-6.6-1.3-3.4 1.3-.9 1.6-1.2 4.6-4.1-1.2a32 32 0 0 0-6.8 8.7c1.6 5.5 1.2 6-2.4 10.2l-4 7.3-2.6 1.6H200l.6 7.4-1.1 5.5-1.8 4c-.4.7-2.3 3.1-2.3 3.9.4 1.2 2.2 3 3.1 3.8 0 .1-.2 4.4-.1 4.5-2.6-1-15.5 2.6-14.6 10.7.4 2.1 2 2.5 2.2 4.7-.6 3.8-2 5 0 9.5 1.5 5.4-.5 6.8 1.1 9.5 1.6 2.6 4.1 2.4 4.5 4.7.5 2.4-1.5 4.2-3.4 4.7-1.5 1.7 2.9 5.9 2.2 10.7-.6 4.6-5.2 4.6-5.6 9.5-.2 2.1 1.1 6.6-.5 9.7l.2 1.1c.5.6 1.3.6 5 0 6.1-1 6.8-1.5 7-2.1.6-1.5-1.5-2.8-1-4.2-1-1.6 13.7-2.3 15-3.2 6.5-3.8 6-18.9 6-26.6l2-.5-5-1.4 18.9-7.8c-3.9-.2-4.8-.5-4.8-.7.1-.1 8.2-3.1 8-5.5-2.2-9.1-20.4-6.9-16-21.2h2.4l-.9-9.1 4.3-.9-.4-3.6c3.5.7 23.1-13.1 26.2-14.8 2 1.8 6.4 5.8 8.6 7.3l.6 6.3c-7.9 2.3-8.6 18.3-16.9 19-3 2.5.8 8.5 0 18.1-.6 6.5-2.8 9.5-1 11.7 1.7 2 4.3.6 7 3.2 2.3 2.3 1.3 4.5 3 5.3 2.2 1.6 11.5-8.5 19-6.4 7.6 1 13.6 6.9 13 8.5-8.1.4-12.2-2.6-14 11.7a31.3 31.3 0 0 0 0 14c1.3 3.1 4.1 5.2 9.9 5.2 12.7 0 11.6 3.1 14 13.8 3.2 12 15.4 14.9 14 19.1-.9 2.5-5.2 2.1-6 5.3-.5 1.9.4 4.4 2 5.3 2.6 1.5 4.9-2.4 10-2.1 3.9.2 7.8 2.8 8 5.3 0 1.5-1.2 2-1 3.2.5 2.6 6.6 1.4 9 5.3 1.4 2.2.4 4.1 2 5.3 1.5 1.1 3.5.4 5 0 3-.7 8 .9 18 4.2l.6.2c6.3 2.2 8.5 3.1 9.1 4.5.6 1.5-.5 3.5-.7 8.1.5 3.2 2.4 3.7 2 5.3-.7 2.8-6.7 1.6-10 6.4-4.3 6.6 4.5 2 6 2.1.2.4-6.1 2.3-6.9 6.2v.2c-.4 2.6 2.2 3.7 2 6.4l-.2 1c-1.2 3.4-7.1 4.2-7.7 7.5-.2.8 0 1.6.3 2.5 2.1 5.1 12.1 11.5 17.8 13.3 1.9.6 3.4.7 3.8.1.5-.6 0-1.6-.6-2.7-.4-1-.8-1.9-.4-2.7l.7-.4c7.4-3.1 46.6 19.2 56.6 23.8l4.5-3.1 1.6-1.1-.4-.6-10.9-18.6-1.9-3.2 4.5-11.5 9.9-6-5-4.9 2.7-.3c-3.8-3.4-18.6-20-22.4-24.1 0-.5 0-1 .2-1.5.6-4.9 2.1-13.2 3-17.2l8.5 5.5V236l11.8-10.6h10.8l14 5.3c9.8 2.1 31 3.9 41 4.4l10.2-5.6-11.5-6.3 10.6-10.9-8.4-10c6.8.3 16.9 0 28.4-3.7 9.7-2.3 19.1-10.9 26.9-10.7 1.6 0 3.2.4 4.6 1.3.8.5 1.6 1.1 2.4 2 1.1 2.5 6.1 7.9 9 8.5 12.9 5.8 12.1 6 14 6.4 7.9 1.5 11.8-7.1 17.4-6.7l1.6.3c3.5 2.5 8.1 7 12.9 11.8 8.8 8.8 18.1 18.7 22 20.1 8.1 3.7 10-2.4 21.9 0 1.5.3 2.6.6 8.2 3.1.2-.3.9-.5 3.9-.9 2.4-.3 2.7-.3 3 0 .9.8 0 2.2 1 3 .7.6 1.7.3 2 1l.1 1.5 1.7.8 8.5 3.9c1.5 0 2.6 0 3.7.8.4.7 3.1 1.4 4 1 1 0 1.8.8 2.5 1.7 5.3 0 13.6-2.7 24.2-17l42.9 9.6-3.3-12.9 5.3-7.3c16.4 15.7 29.7 19 38.9 19.1 10.9.1 17.9-4.3 29.9 0 10.3 3.7 10.8 9 19 9.6 10.8.8 12.3-8.1 25.9-8.5 2.9-.3 5.6-.2 8.1.1l5.6-9.3a9.4 9.4 0 0 0 13-11c-1-4.3-2.3-5.2-5-10-1.6-3.5-2.8-3.1-5-5-3.8-3.9 3.5-8.2 6-8 22.9-2.4 33.1 6 41.8 15.9 3.7 2 6.4 4 7.3 5l1.8 1.5a72.7 72.7 0 0 1 10.8 11.8c7.7 2.1 14.1 2 24.3 9.8 8.6 6.8 16.9 12.7 27 7 3.2-1.4 2.8-2.7 5-4 5.1 0 6.6 6.7 5 11 .5 1.8 1 4.3 1.5 6.9 3.1-2.4 5.3-5.5 8.4-4.7 5.7 1.4 6.6 14 8 31.9.2 3 .5 7.9-2 9.6-2.7 1.9-6.5-1.6-8 0-1.8 1.9 1.3 9.5 5.8 14.6 16.9 20.8 32.6-7.4 35-30.5 1.8-16.5-3.6-28.5-13-48.9-9.5-20.8-16.1-23.7-19.9-24.4-4.7-.9-5.6 1.5-13 2.1-14.3 1.2-29-6.1-28.9-11.7 0-1.8 1.5-2 4-5.3 4.6-6.2 2.4-9.7 6-19.1 3-8.4 13.5-24.1 28.9-18.1 4.5 1 4.2 0 16 0 22.2 0 40.9 5.4 41.9 2.1.7-2.3-8.9-5-10-12.8 2-28.9 25.9 1.4 33.9-3.2 4.2-3.3-1.3-15.1 2-17 3.2-1.8 13.7 6 15 15.9 1.6 12-11.7 15.8-13 29.7-4.9 12 42.7 66.6 50.9 62.7 2.7-2.2-3-14.3 1-17 1.5-1 3.4 0 4-1.1 1.1-2.2-7.1-7.8-6-10.6.9-2.3 6.8 0 8-2.1 2-3.5-11.9-15.4-27.9-36.1-1.9-2.4-10.1-13.2-8-15.9 1.8-2.3 9.8 2.1 12-1.1 1-1.5 0-3.7 1-4.2 1.2-.7 2.9 2.5 6 3.2 3.9.8 5.3-3.5 10-4.2 6.2-.9 9.3 5.9 13 4.2 3.1-1.4 1.4-6.6 5-12.8 4.2-7.3 10-5.8 12-10.6 4.2-10-16.4-27.6-14-30.8ZM207.1 57.9c-.5-.3-1.8-.7-2.7-1l.5 1.5 1.5.6.7-1.1Zm8.5-13.6-.3.8 3.9-.8h-3.6zm-19.9 32c.4-1.9-.2-1.1-1.3-.4l.5 1.1.8-.6Zm8.4-20.1h.1-.1zm1.6 5.9-.3-.6-.6-.1-.2.7h1.1Z" style="fill:#14840b;stroke-width:0"/><path d="m976.8 331.5-1.2 1.1-.5.4.4-.3 1.3-1.3ZM891.1 240h.1-.1z" class="cls-1"/><path d="M1029.1 254c1.6-4.3 0-11-5-11-2.2 1.3-1.8 2.6-5 4-10.1 5.7-18.4-.2-27-7-10.2-7.8-16.6-7.7-24.3-9.8l-3.7-1.2c-6.4-4.9-11-11.3-16.2-17.1-8.7-9.9-18.9-18.3-41.8-15.9-2.5-.2-9.8 4.1-6 8 2.2 1.9 3.4 1.5 5 5 2.7 4.8 4 5.7 5 10a9.4 9.4 0 0 1-13 11l-5.6 9.3-.4.7c-1.5.4-2.2 1-2.5 1.7-2.6 1.7.1 4.3 2.7 4.9 2.7.6 3.5-1.6 6.5-1.2 4.7 1.7 4.1 2.8 7.4-1.3 4.1-2.6 20.8 6.7 21 12.9-2.7 1.7-9-2.8-14 1-4.3-.8-.7 2.9-5 2-9 .6 5.6 8.1-13 10-2.1 1.4-1 3.5-3 5-3.8 3.2-12.5-2.8-15-2-3.3 2.3-2.3 8 1 10 1.2.7 2.7.9 3 2 .4 2.8-2.9 4.3-5 6-2.6 2.1-2.2 3.2-4 5 .6 2.7-28.2 3-29 6-4.8 5.5-4.4 4.3-11 2-7.3.8-20.6-2.3-25-6-13.9-7.5-29.8 5.6-40-2.1-.7-.5-6.6-5.2-9-8.9 0 .4-3.7-5.7-5.1-6.1-4.7-.4-5.7.9-9.9-2.9-7.1-5.7-20.1-3.9-27-7-6.3-3.5-.3-8-6-14-3.2-4.9-4.3-3.6-7-8l-1.5-2.3c-.7-.9-1.5-1.7-2.5-1.7-.9.4-3.6-.3-4-1-1.1-.8-2.2-.8-3.7-.8-.7 0-1.4 0-2.3-.2-4.2-.8-7.1-2.5-7.9-4.5-.2-.5-.2-1-.1-1.5-.3-.7-1.3-.4-2-1-1-.8-.1-2.2-1-3-.3-.3-.6-.3-3 0-3.1.4-3.7.6-3.9.9v.1c-.5.8.3 1.4 0 3-.6 4.6-6.4.4-6 6 0 2.7 2.4 3.4 3 7 .7 4.4-3.5 6-7 4-1.7-.3-1.9.2-4 0-2.2-.1-5.9-1.9-7-2-1.5-1.4-1.4 16.8 0 16 2.1 1.2 4.6 2 2 4-1.4.4-2.5-2.5-4 0-.9.2-1.6-1.5-3-2-1.2-.4-2.2.2-4 1-7.5 3.2-11.4 2.1-4 5 6.8 3.5 9.8 13 7.7 15.2-2.3 1.7-2.1 1.1-.4 3.2-5.8 2.1 2.5 2.5-1.3 7.6-2.5 3.7-6 2.5-9 6-2.7 4.8-2.4 4.2-8 4-6.3-.1-4.3 3.8-7 7-1.4 1-3.7 1-5 0-1.3-1-1.2-3-2-3-.7 0-.8 1.7-2 2-1.3.3-2.5-1.4-3-1 1.1 4.7-5 3.6-6 6 0 .8 1.1 1.1 1 2-.1 1-1.7 1-2 2-.4 1.4 2.7 2.4 3 5 .1 1.4-.6 2.1 0 3 1.2 1.6 2.6.9 4 0 1.6-.6 3.9.5 5 2 .8 1.2.1 1.6 1 4 3 7.4 5.6 6-1 9 23.3 5.3 5.9 9.9 19 13 2.9 1.2 2.6 2.1 5 3 3.6 1.4 4.9-.4 7 1 2.6 1.7 1 4.6 4 7 2.4 1.6 5.8 2.2 7 6 .5 1.7-.1 2.4 0 4 0 2.7 7.3 9.2 5 13-1.1.9-4.1-1.9-5-1-1 3.4 4 6.7 4 9-.1 1-.2 3.3 1 4 3.4-1.9 2.1-.8 5 2 1.8 1.5 2.9.5 5 2 1.7 1.2 1.3 2.1 3 3 1.7.9 2.2.2 4 1 4.8 3.1 2.2 4.4 7 1 6.2-2.2 13.5 11.2 19 11 4.2-.6 4.1-.8 5 3 1.6 2.4 6.4.5 8 3 1.1 4.1.6 3 5 4 3.4 1.5 3.8 5.1 4.5 1.3 1.4.5 2.4 3.2 3.7 0 1.8-3.5 13.7-4.4 17.7.9 2.2 3 1.1 6.6 2.3 6.9 2.1.5 5.3-10.1 8.7-9.6 8.6 7.2 8.3-.5 12.6 3.7 1.1 3.3 5.5 2.6 8.5-.2 2.1-2.2.9-4.3 3-6 1.8-1.5 3.2-.3 5-2 1.5-1.4 1.1-2.7 3-4 2.4-2.5 6.8.7 9 1 1.5-.3 1.3-2.1 3-3 4.8-1.4 6.6 1.3 3 4 0 0 .9-1 2-1 4.4.2.4 4.5 1 6 .5.7 1.8-.3 4 0 2.8.4 4 2.5 5 2s.2-2.7 1-3c1-.4 3.4 2.2 5 5 1.5 2.7 1.8 4.9 3 5 5.4-4.8 7.8 12.6 6 17-.9 1.8-1.9 2.2-4 2-.8.7.8 3.4 0 4-2 .1-2.4-.9-2 2 0 1.5-.9 1.8-1 3 .5 3.9 3.5 3 1 8 .3.7 9-4.6 10-3 1.3.9-.2 3.2 1 6 1.5 3.5 5 3 6 6 1.1 3.3-2.4 6.2-1 8 1.2 1.6 4.5 0 6 2 .5 2.4 1.8 5.1 5 5 2.7 0 3.8-2.5 5-2 1.3.6.2 3.6 2 5 1.1.9 3.1.9 4 0 2.5-3-2.8-8.6-3-11 .3-1.2 1.8-2.2 3-2 1 .2 1.4 1.2 2 1 .8-.5 1.2-3.8 3-4 .9.4 3.1 3.9 5 3 .7-.4.4-1.8 1-2 .6-.2 1.3 1.2 2 1 .7-.2.6-2 1-2 .6 0 1 2.9 2 3 .6 0 .9-.9 2-2 1.4-1.3 2.3-1 4-2 2.8-1.7 2.5-3.8 4-4 2-.2 2.7 3.5 6 4 1.1 0 6.6-.2 7 1 .7 1-.2 2 0 4 .5 4.1 4.9 7 9.1 8 3 .7 5.8.5 6.9-1 .7-3.5 3.8-1.5 5.8 1 .8 2.2 4.4 1.7 4-.7 1.7-1.4 7.4 1.6 8.4 5.3.3 1.1.2 2.4-.6 3.6.2 1.3-3.2 3.8-5.8 5.8-1.4 1.1-2.6 2.1-2.7 2.6l-.2.4c-1.1 3.2 1 8.5 5 10 1.9.6 3.8.4 5.6-.4l1.8-1c4.4-3.1 7.2-9.6 4.9-14.2l-.2-.5-.8-1a71.1 71.1 0 0 1-5.2-7c-1-5.1 3.2-7.4 6-8 5.6-1.4 12.4-2.7 16.3-3.5l2.7-.5c9.2-2.4 35.1-15 40-29v-6c-.3-2.7-.3-4 0-4.7.5-1.4 2 .4 3-3.2 0-1.5-1.4-2.3-2.3-3.1-.3-.3-.6-.6-.7-.9-.1-.8.2-1.9.6-2.9l.2-.4c1.2-2.4 3.3-4.8 3.2-4.7-.5 0 7.8-8.7 6-13-.3-.4-.8-.4-1.2-.5-.3 0-.6-.2-.8-.5-.7-1.7.5-3.6 1.6-5.2.9-1.3 1.7-2.3 1.4-2.8l-.9-.8-.4-.3a7.1 7.1 0 0 0-4.1-.9c-2.5 0-5 .5-6.6-.7-.4-.3-.8-.7-1-1.3l2.7-2.9c2.3-2.2 4.2-3.8 4.3-5.8 0-.9-.3-1.9-1.2-3-.9-1.2-2.5-2.6-4.8-4.3-1.8-1.3-5.8-4.3-10.2-8.1-7.4-6.4-15.8-15.1-16-21.3V368c1.4-6.3 14.9-15.4 16-16 4-3.5-3.9-10.8-10-10-9.9.4-9.1 13-15 3-.9-1.6-2.5-4-4-5-1.7-1.4-6.1-.9-9-1a7.3 7.3 0 0 1-6-8.9l.2-.2c.6-.3 1.6 0 4.8.2 2.8.2 3.4.2 4 0 2.3-.5 3.1-1.8 3.6-4.2l.4-1.9c1.3-2.1 1.8-4.5 3.5-6.5l1.5-1.5c.4-.2 2.5-2 3-2 1.4-.2 3.1 0 4.7.8 2.5 1.1 4.7 3.1 4.4 5.7 0 .8-.4 1.6-1 2.5-2.6 2.9-2.5 3.9-1.6 4.2h.1c1.2.4 3.6 0 3.7 1.1l-.1.6c-.2 1-.8 1.8-1.3 2.5 6.3-5.7 15.4-12.4 23.3-7.9l2 1.4c.9.4 2.6 1.7 4 3.4 1.6 1.9 2.8 4.4 2 6.6l-.6.9c-.6.6-1.2 1.3-1.4 2.1v1.1l1.2 1c2.3 1.5 5 1 7.7.9 2.1 0 4.2.2 6.1 2.1l1.1 1.1 2 1.9.9 1v.2l1.4 2.4c.3.5.5 1 .4 1.5 0 .4-.3.7-.9.9-1.2.1-2.7-1.7-3.6-.7l-.3.6c.4 1.3 2.9 3.6 4.8 5.8 1 1.1 1.8 2.2 2.2 3.2l.6 2.4c.9 4.2 2 10.9 3.8 13.1l.6.5c.7-1.2 1.3-2.2 2.1-2.9 1.7-1.7 3.8-2.4 6.9-2.1 4.2-.3 6.1-3.2 6.7-6.7.5-3.1 0-6.6-1.2-9-.4-1-.9-1.8-1.5-2.3-3.4-4.5-10.3-8.4-16.1-12.8-4.4-3.3-8.3-7-9.6-11.4-.5-1.8-.7-3.7-.3-5.8 2.4-7.4 8.8-6.2 9.7-11.3.2-1.4 0-3.2-.7-5.7v-.2c-.2-3.4-2.2-5.4-3-7.8l.8-3.3c.5-3.1-1.1-2.4-4.8-7.7a18 18 0 0 1-2.2-8.6c0-5.5 3.3-9.6 9.7-6.3l.9.5.6.3a70 70 0 0 0-1.2-11.6c0-.5-.2-1-.3-1.4-.5-2.6-1-5.1-1.5-6.9Z" class="cls-1"/><path d="m47.1 188.6 3.1-5.7c7.5 1.5-.2 9.4 1 12 1.7 2.2 10.9-2.8 12-1 .5.8-1.2 1.8-1 4 1.3 4.5 3.1 2.9 1 8 0 2.2 2.3 3.1 2 4-.4 1.1-3.7 0-8 1-3.6.8-6.1 2.7-6 3 3.6-.8 5.7-.5 3 4-2.5 4.3-6 5.2-5.7 6.5-.4 1.5 13.4 2 15.1 1.9l-3.5 2.7-10.3 3.1-6.2 7.7 47.6-10.9c-15.3-4.2 4.3-3.6 3-13-1.1-2.5-6.4-1.9-9-2-1.4-.7-.5-2.8-2-5-1.3-1.9-3.2-2.3-3-3 6.3-1.1 1.5-3.1-3-9-4.6-5.9-3.7-8-7-10-4.3-2.7-9.5-1.3-9.6-2.1 0-.4 1-1 6-2.3l-1.5-1.6 7.1-7.3.7-3.7H59.1l6.6-8.5-11 1-1.1.5c-2.6 3-6.4 12.1-7.9 15.8l4.3-.2-3 10Z" style="fill:#12a200;stroke-width:0"/><path d="M20.1 228c.3.6-3.2 2.3-3 3 .3.7 4.9-.4 5 0 0 .4-3.1 1.2-3 2 1.9 1.5 8.5 1.8 11-1 .4-1.1 2-1.3 3-1 2 0 2.4-2.4 5-3 .8-.2.6.1 3 0 3.4-.1 3.8-.7 4-1 .4-.6-.2-1 0-2 .3-1.8 2.3-2.1 3-4 .4-2-.3-5.8-1-9l1.1-1-.4-.4-1.7.4c-.9-2.1 2.6 0 4-2 2-1.1 1.7-4 1-6-.8-4.7-3.4-5.5-7-3l-1.2-.9h-1.3l-1.8 1.3c-1.2 0-3.6 0-4.7.6.1 1.3-2.9 3.6-3 4 .1.6 2.7.2 3 1 .3.7-1.2 2.3-3 3 0 .7-10.1-.9-10 0-.1.4 1 .9 1 2s-.2.8 0 1c.6 0 2.1 0 2 1-.2.7-2.9.5-3 1 2.3 1.8 0 1.1-1 2 0 .7 6.7 1.1 7 3 .3 1.9-6.2 4.5-6 5 .2.6 8.8-2.7 5 0-.9 1-6.8.3-6 3-.4.5-1.7-.5-3 0-2.9 1.9 1.3.6 2 1Z" style="fill:#024500;stroke-width:0"/><path d="M1100.2 402c-1.2-2.4-19.4-20.4-18.4-11.7 1.1 6.7 5 12.6 6.4 17 2.7 8.7-2.1 19.6-7 20.7-3.4.8-6.7-3.2-8-2-.3 5.3 4.5 9.7-4 15-8 5.3-15-.4-22 4-5.3 3.4-7.5 10.6-6 12 1.9 1.9 11.7-5.1 24-7 11.8-2.3 2.8 11.1 14 12 2.6-.5 4.1-4.8 4-8-.1-4-2.6-6.4-2-7 .7-.6 3.3 2.4 7 4 5.9 2.6 14.7 1.4 18-3 2.6-3.5-.1-6.7-2-19-2.4-15.9.7-19.9-4-27Z" style="fill:#00e78d;stroke-width:0"/><path d="M1103.7 365.5a11.6 11.6 0 0 1-3.2-5.4l-7.3 1.9-24.8-14 7.3 20.5c-1 .2-5-.4-5 0-1.5.7 2.7 10.4 4 13 1.1 2.9 1.2 3.7 2 4 1.8.7 5.2-2 5-4-.3-2.8-7.2-3.7-7-5 .2-.9 3.7-1 4-1 9.7-.2 15.7 5.1 18 3 1.2-1.1-.3-2.7 1-5 2.3-4 9.5-3.3 9.6-5 0-.9-1.6-1.1-3.6-3Z" style="fill:#41bc13;stroke-width:0"/><path d="M1058.7 457.5c-4.1 2.7-5.5 3.2-5.5 4.5 0 .6.2.9 2.5 3.5 2.6 3 3.1 3.6 3.5 3.5 1-.3-.3-3.5 1.5-5.5 1.7-1.9 5.6-2.3 7 0l1.5-6.5c-3.1-4.1-4.6-4-10.5.5Zm-9.5 7.5c-1.1-2.2-1.7-3.5-3-4-1.2-.4-1.6.4-3 0-2.3-.6-2.6-3-4-3-.9 0-1 1-3 3s-3 2.1-3 3c-.3 2.1 6.4 4.4 3 4-1.2-.3-1.8-1.1-2-1 .4 2.3 3.2 4.8 5 2-3.3-5.5 1.6-2.8 3 1 .5 1.7-.3 2.2 0 5 .6 2.6 3.6 15.3 3.8 4.8l.9-.2 2.5 6.5c.4-5.2 4.5-8.2 2.9-15.1-.3-1-.2-.3-3-6Z" style="fill:#489627;stroke-width:0"/><path d="M199 106h0" style="fill:none;stroke:#a00023;stroke-linecap:round;stroke-linejoin:round;stroke-width:0"/><path d="M185.6 170c.4-4.9 5-4.8 5.6-9.5.6-4.8-3.8-9-2.2-10.7 1.8-.6 3.8-2.3 3.4-4.7-.4-2.4-2.9-2.1-4.5-4.7-1.6-2.7.4-4.1-1.1-9.5-2-4.5-.6-5.7 0-9.5-.2-2.2-1.9-2.6-2.2-4.7-.9-8.1 12-11.6 14.6-10.7l.1-4.5c-1-.8-2.7-2.6-3.1-3.8 0-.8 1.9-3.2 2.3-3.9l1.8-4 1.1-5.5-.6-7.3h2.1l2.6-1.7 4-7.3c3.6-4.2 4-4.7 2.4-10.2 1.4-2.3 4.6-7.2 6.8-8.7l4.1 1.2 1.2-4.6.9-1.6 1-1.8 2.4.5 6.6 1.3 4-1.5-1.6-.6c.7-1 1.9-3.1 1.9-4.4l-1.3-2.2.5-.2c1.6-.4 4.2-.7 5.6-.6l.8-3.1 2.6-.4c2.8 2.4 4.1 5.5 6.9 6.7.6.3 1.3.4 2.1.4h3c2.6 0 3.4-.2 5.9-1.3h2.4c3.7.6 5.2 3.4 6.6-1.2.9-1.1 1.8-1 2.5-1.8.6-.6 1-1.9.4-4.4l.4-4.4 2.7-3.7 2.9-1.2 3.4-.6 1.7-1.2c4.1 0 7.8 4.1 11.9 4.4l1 2.2c-.1 1.2-1.4 3.6-2 4.6l1.2 1.5 1.9-3.8c7.3-.6 2.8-7.1 7.8-3.6 2.8 1.5 3.5-2.3 1.1-3.6-2.2-.6-2.5 2.8-3.8-.5l-.8 1.4-1 .3c-2.3-1-7.1-4.8-9-4.8 0-.7 13.6.9 14.6-2.4.3-1.2-.9-3.1-2.2-3.6-1.4-.5-3 .6-3.4 0 0-.7 0-2.2-1.1-2.4-2.3.9-2.4 2.2-5.6 0-2-1.3-2.8-2.3-4-.8l-2.7 6.7c-2.8.9.6-3.1-2.2-4.8-.3-1.2 2.5-2.4 2.2-3.6-.9-1.3-3.7-1.8-5.6-1.2-2.5.9-3 3.1-.3 3.4l-1.9 1-1.5 3.4-1.7 1.1-.7-.3a27 27 0 0 0-.7-5.7l-.8-.2c-2 2.8-6.1 8.1-8.3 10.7h-1l.7-3.4c.3-.8 3-5.6 2.7-6.4l-.7-.2-2.1.8-2.9-1.5h-1.6l-1.3 1.2c-.5 4.2-3.5 6.2-6.2 8.8l-.2 3-.5.4-2.6-4-3.1-.3-4.8 1.8-3 .2c.9 1 3.1 2.3 4.4 2.7l.6 2.2-3.9-1.3-3.5.4-2.6 1.5.8 3.8-2.6 2.9-.9-.2 1.1-2.3c.3-1.2.3-3.5.1-4.6l-1-.8c-.4.8-2.9 5.7-3.5 6.2.2-.9.4-2.6 0-3.5l-1.1-.4-2.8 1.4-2.5 2.6.4 1.6c2.9 1.6-.6 2.5-2.2 1.2-.9-.8-.6-2.3-1.1-2.4-2.9 1 .8 5.6-3.1 5.3a23.6 23.6 0 0 0-3.6 5.3l-3.4 1.3-1.4 1.5.7.8h6.4l-3.8.9-4.9 1.1.8 2.7.3 1.1-.3 2.3-1.8-3-.3-.6-1.7-.2-2.6 1.5-.2 1.5h1.6l-.5.9-2.9-.5-2.1 2.6 1.4 1.2 2.5-.7-.4 1.3-.2.6.5.1 2.7 1-.7 1.1-1.5-.6-1.9-.8-3.1 1.1-1 2.6 2 .2c1-.2 2.8-.4 4.1-.2l.6.1.3.6h-1.1c-2.3 0-7 .3-9 2.4-1.3 1.3-1.7 2.3 0 3.6 0 1-4.8 1.1-5.6 3.6-.3 2.2 1 4.4 3.4 4.8.3 0 .7-.2 1-.4 1.1-.6 1.7-1.5 1.3.4 0 .3-.4.5-.8.6-1.5.6-4.5.7-6.1.8l-.8.9.8.4v.9a42 42 0 0 0-5.2 7.5l.2 2 1.5 1.4c.8-.1 2.6-.9 3.4-1.2l-2.1 2.5h-3l-2.4.7-2.4 1.8-.9 1.6.6.7 1.6-.2c-4.5 2-8.9 8.5-11.2 10.3-2.6 1.6-3.9 8.2 1.1 8.3 3.3.2 8.9-12.2 10.1-7.1-1.6-.6-2.3 1.6-.8 2.4l-.3 1.2c-6.9 1.5-2.7 2.8-5.6 4.8h-4.5c-3.4-3.9-4.1-2.4-6.7 0v-2.4c-1.8-1.1-8.4 2.1-3.4 3.6v.6l-3.4 1.8 3.4 4.7c-7.4-7.9-20.5 6.5-5.6 2.4-.6.3-2 .9-2.2 1.5l.2.5.8.2v.4l-1.1.4c-1.4-1.1-7.8-2.8-10 1.3l.8 1 2.6-.6-3.4 1.2c-.8-.6-5.6-.1-5.6 2.4.3 1.6-.7 2.2-2.2 2.4l.4 1.1c2.7 1.2 6.2 1.8 9.2 1.6l.2.3c-3.5.1-7.5.1-11-.3l-.6 1.1c0 1.7 2 3.3 3 4.5v.5c-.7.3-1.6 1-2 1.5v1.1c.9 1.4 3.5 1.6 5.7 1.6h2.9c1.3.1 2.8-.7 3.5-1.7a10 10 0 0 0 4.8.9l.6-.6c0-1 .3-2.4 1-3.1 0 .5-.2 1.3-.5 1.7l.5.8a4 4 0 0 1 1.4.5c-.4.4-2 .9-2.6 1.1l-1.3 1-.2 1.4-.8-1.5-1-.6-2 .3-2.2 1.2a3.5 3.5 0 0 0-2.2-1.2h-1.8a7 7 0 0 0-4.9 3.5c-1.5 2.1 1 6.4 3.2 4.1l.6-.8-.6.8c-.8 1.2-2 3-2.3 4l.2 1.3c.7 1.1 2.6 1.5 3.8 2-.9.8-3 .2-3.8 1.2.4 1.3-.3 3.9-.3 5.3l.7.3c3.5-4.5 6.7-11.4 12.5-13.2l.3.2-2.6 4.2v-2l-.5-.3c-1.5 1.4-6 5.7-5.6 8.3 1.2.9 5.3-1.3 2.2 1.2-4.9 1-4 .7-5.6 2.4-.4.6-2.8 6.6 1.1 5.9 1.9-.9 4.9-4.3 7.2-5.6l-2.7 3.2c-1.4 2.8-.5 6 2 5.1.2-.3.3-.5.1 0h-.1l-.9 2c-10.2-6.3-1.7 11 4.6 8.1l-.6 2.3 3.4.9 4.9-.7 5.3-3.2 10.4-11.3-.4-1.9 1.6 1.6 2.9-.8 1.7-3.9v-3.6l1.3-1.9 2.1 7.3c4-1.7 4.3 2 5.6 3.6l.7-1c1.6-3.1.2-7.5.5-9.7Z" class="cls-1"/><path d="m347.8 446.4-4.4.2-9.9.5-11.7-2.5-9.6 5c-6.2.3-32.8-5.8-40.8-12.3-8.3-9.9-29.6-3.8-22.6 9.8 0 0-2.8 10-3 10.1l-27.1-10.7-9.8-11.2c-3.4-.8-30.4-3.3-30.7-15.2.5-3.2 4.3-3.4 5.4-6.7.8-2.2-.6-3.1-2.7-9.8-2.2-6.7-2-9.4-3.6-9.8-1.7-.6-5.2 4.1-9.9 3.6-8.1-.3-22.3 2.1-22.3 2.1-16.8 2.8-16.6-1.7-25.6 1.5-13.6 4.8-15.5 15.4-24.4 14.2-5-.7-7.9-4.5-14.5-3.6-8 2.1-7.6-1.9-10.8-5.3-2.4-.1-1.9 11-9 17.8-5.6 5.3-9.6 2-14.5 7.1-5.1 5.3-1.7 10-7.2 22.2-6.2 18.5-18.7 13.5-26.2 23.1-3.6 11.8-3.7 7.9-10.8 16-6.4 10.9 5.6 34.6 7.2 38.2l-8.9.6 12 53.8 8.3 17.9c-1.3 14.8 2.7 5.7 9.4 6.9 1.8 1.3 4.3 1 5.4-.9 0-2.5 2.6-2.4 3.6 0l.9 5.4c7.6 8.5 5.3 10.8 4.5 18.5l-2.7 1.7L47 640c.2.6.3 1.2.2 2-3.2 7.8-12.1 18.4 1.8 22.2l-.3 12.9c8.5-6.6 31.1-11 40.2-3.3a268 268 0 0 1 20.1-9.1h.8l2.6-1.3c46.3-16.6 13.9 26.3 54.1 9.6 8.3 10.9 7.4 8 9.8 21.6l4.8-.3a77.4 77.4 0 0 1-3.9 15.7l18.4 30 9.1 27.4 2.5 24.4-12.1 39.2c6.5 19.6 19.8 64.8 20.9 85.1l33.6-4.4 14.8-12 13.6 1.2 17-22.3 14.1-2.3 7 21.7 18.2-3.3-.2-35.7 34.3-33c3.7-40.7 6.1-35.8-6.7-75.6l34.1-59.4 9.4-14c13.1-3.4 22.6-10.3 32.5-11.2 1.8 3.6-3.4 6.8-6.3 6.2-26.9 3.2-29 36.9-22.6 56l39.4-42.3 27.8-52.2c3.9-16.2 2.9-20.4 1.1-21.2-2.3-1.1-4.7 4.1-12.3 5.5-6.4 1.2-9.3-1.7-13.5.9-3 1.8-3.6 4.4-6.3 4.4-2.5 0-3.2-2-5.4-1.8-2.9.3-3.4 4-6.3 4.4h-.4l3.5-13.8-19 3.9H415l6-5.4-10.5-13.8-16.4-14.6c-4-8.4-5.8-17.8-9.8-22.9-11.5-10.1-15.1-8-14.3-34.8-25.6-41-45.1-72.8-30.7-64l9.4 15.4 3-13.9.6-3-4.4-12.5Z" style="fill:#00a237;stroke-width:0"/></svg>